<?xml version="1.0" encoding="UTF-8" standalone="no"?>
<!DOCTYPE svg PUBLIC "-//W3C//DTD SVG 1.1//EN" "http://www.w3.org/Graphics/SVG/1.1/DTD/svg11.dtd">
<svg version="1.1" xmlns:dc="http://purl.org/dc/elements/1.1/" xmlns:xl="http://www.w3.org/1999/xlink" xmlns="http://www.w3.org/2000/svg" viewBox="0 0 256 256" width="256" height="256">
  <defs>
    <linearGradient x1="0" x2="1" id="Gradient" gradientUnits="userSpaceOnUse">
      <stop offset="0" stop-color="#e63328" stop-opacity=".9448309"/>
      <stop offset=".4966636" stop-color="#f36216" stop-opacity=".9724155"/>
      <stop offset="1" stop-color="#ff8f00"/>
    </linearGradient>
    <linearGradient id="Obj_Gradient" xl:href="#Gradient" gradientTransform="translate(145.37527 -13.437455) rotate(97) scale(285.1459)"/>
    <linearGradient id="Obj_Gradient_2" xl:href="#Gradient" gradientTransform="translate(138.15674 45.219055) rotate(97) scale(166.68244)"/>
  </defs>
  <metadata> Produced by OmniGraffle 7.18.5\n2023-06-25 06:32:01 +0000</metadata>
  <g id="Canvas_1" stroke-opacity="1" fill="none" stroke="none" stroke-dasharray="none" fill-opacity="1">
    <title>Canvas 1</title>
    <g id="Canvas_1_Layer_1">
      <title>Layer 1</title>
      <g id="Group_2">
        <g id="Graphic_4">
          <path d="M 124.7 1.8 C 123.7 2.8 123 5.1 123 6.8 C 123 9.7 122.8 9.9 118.3 10.5 C 83.3 14.9 54.6 31.1 34.4 57.9 C 21 75.8 13.4 94.8 10.5 118.2 C 9.9 122.8 9.8 123 6.6 123 C 3.2 123 2842171e-20 125.5 2842171e-20 128.2 C 2842171e-20 130.6 3.4 133 6.8 133 C 9.7 133 9.9 133.2 10.5 137.7 C 14.9 172.6 31.2 201.5 57.8 221.5 C 75.8 235 94.8 242.6 118.3 245.5 C 122.8 246.1 123 246.2 123 249.4 C 123 252.8 125.5 256 128.2 256 C 130.6 256 133 252.6 133 249.2 C 133 246.3 133.2 246.1 137.8 245.5 C 172.7 241.1 201.4 224.9 221.6 198.1 C 235 180.2 242.6 161.2 245.5 137.7 C 246.1 133.2 246.2 133 249.4 133 C 252.8 133 256 130.5 256 127.8 C 256 125.4 252.6 123 249.2 123 C 246.3 123 246.1 122.8 245.5 118.2 C 241.1 83.3 224.9 54.6 198.1 34.4 C 180.2 21 161.2 13.4 137.8 10.5 C 133.2 9.9 133 9.8 133 6.6 C 133 1 128 -1.9 124.7 1.8 Z M 123 29.7 C 123 37.3 123.4 39.7 124.7 41.2 C 126.7 43.4 128.8 43.5 131.2 41.3 C 132.7 40 133 38.1 133 29.8 L 133 19.9 L 138.3 20.5 C 188.3 26.4 229.4 67.5 235.4 117.7 L 236.1 123 L 226.4 123 C 218.7 123 216.3 123.4 214.8 124.7 C 212.6 126.7 212.5 128.8 214.7 131.2 C 216 132.7 217.9 133 226.2 133 L 236.1 133 L 235.4 138.2 C 229.4 188.5 188.5 229.4 138.3 235.4 L 133 236.1 L 133 226.4 C 133 218.7 132.6 216.3 131.3 214.8 C 129.3 212.6 127.2 212.5 124.8 214.7 C 123.3 216 123 217.9 123 226.2 L 123 236.1 L 117.8 235.4 C 67.5 229.4 26.6 188.5 20.6 138.2 L 19.9 133 L 29.6 133 C 37.3 133 39.7 132.6 41.2 131.3 C 43.4 129.3 43.5 127.2 41.3 124.8 C 40 123.3 38.1 123 29.8 123 L 19.9 123 L 20.6 117.7 C 24.7 83.6 44.8 53.2 75.2 35.1 C 85.8 28.7 102.2 22.7 113 21.2 C 124 19.6 123 18.7 123 29.7 Z" fill="url(#Obj_Gradient)"/>
        </g>
        <g id="Graphic_3">
          <path d="M 104.7 54.8 C 102.1 57.6 102.6 59.6 107.1 64.5 L 111.2 69 L 108.6 72.5 C 104.9 77.2 102.8 83.6 103.2 88.9 C 103.4 93.2 103.3 93.4 99.6 94.6 C 93.8 96.7 88.3 101.6 85.8 107.1 C 84.5 109.8 83.1 112 82.6 112 C 80.3 112 74.1 104.2 73.5 100.5 C 72.2 93.6 68.1 91 64.7 94.8 C 59.2 100.8 68.6 118 78.9 121.1 L 83 122.3 L 83 127.7 L 83 133 L 69.7 133 C 58 133 56.1 133.2 54.7 134.8 C 52.5 137.2 52.6 139.3 54.8 141.3 C 56.3 142.7 59 143 69.8 143 L 83 143 L 83 148.3 L 83 153.7 L 78.9 154.9 C 68.4 158 58.9 176 64.8 181.3 C 68.6 184.8 72.2 182.3 73.5 175.5 C 74.1 171.7 80.4 164 82.8 164 C 83.3 164 84 165.9 84.4 168.2 C 85.5 174.8 91.7 185.5 97.4 190.7 C 103.7 196.4 112.8 200.8 121.4 202.2 C 134.1 204.3 148.5 199.8 158.6 190.7 C 164.3 185.5 170.5 174.8 171.6 168.2 C 172 165.9 172.7 164 173.2 164 C 175.6 164 181.9 171.7 182.5 175.5 C 183.8 182.4 187.9 185 191.3 181.2 C 196.8 175.2 187.4 158 177.1 154.9 L 173 153.7 L 173 148.3 L 173 143 L 186.3 143 C 198 143 199.9 142.8 201.3 141.2 C 203.5 138.8 203.4 136.7 201.2 134.7 C 199.7 133.3 197 133 186.2 133 L 173 133 L 173 127.7 L 173 122.3 L 177.1 121.1 C 187.6 118 197.1 100 191.2 94.7 C 187.4 91.2 183.8 93.7 182.5 100.5 C 181.9 104.3 175.6 112 173.2 112 C 172.6 112 171.6 110.4 170.9 108.3 C 169.3 103.4 162.3 96.6 156.9 94.8 C 152.5 93.3 152.5 93.3 152.8 88.9 C 153.2 83.7 151.1 77.3 147.4 72.5 L 144.8 69 L 148.9 64.5 C 153.4 59.6 154 57.2 151.2 54.7 C 148.3 52.1 146.6 52.6 140.5 58.2 L 134.9 63.3 L 128 63.3 L 121.1 63.3 L 115.5 58.2 C 109.4 52.6 107.3 52 104.7 54.8 Z M 135.9 75.9 C 142 80.2 144.5 87.5 141.1 90.9 C 139.2 92.8 137.8 93 128 93 C 118.2 93 116.8 92.8 114.9 90.9 C 112.8 88.8 112.9 85 115.1 80.8 C 116.3 78.6 121.9 74.4 124.5 73.7 C 127.7 72.9 133.3 73.9 135.9 75.9 Z" fill="url(#Obj_Gradient_2)"/>
        </g>
      </g>
    </g>
  </g>
</svg>
