<?xml version="1.0" encoding="UTF-8" standalone="no"?>
<!DOCTYPE svg PUBLIC "-//W3C//DTD SVG 1.1//EN" "http://www.w3.org/Graphics/SVG/1.1/DTD/svg11.dtd">
<svg version="1.1" xmlns:dc="http://purl.org/dc/elements/1.1/" xmlns:xl="http://www.w3.org/1999/xlink" xmlns="http://www.w3.org/2000/svg" viewBox="0 0 512 512" width="512" height="512">
  <defs>
    <linearGradient x1="0" x2="1" id="Gradient" gradientUnits="userSpaceOnUse">
      <stop offset="0" stop-color="#ffcb00"/>
      <stop offset=".5" stop-color="#e63328"/>
      <stop offset="1" stop-color="#ff8f00"/>
    </linearGradient>
    <linearGradient id="Obj_Gradient" xl:href="#Gradient" gradientTransform="translate(256 32) rotate(90) scale(447.79266)"/>
    <linearGradient x1="0" x2="1" id="Gradient_2" gradientUnits="userSpaceOnUse">
      <stop offset="0" stop-color="#e63328"/>
      <stop offset=".5" stop-color="#ff8f00"/>
      <stop offset="1" stop-color="#ffcb00"/>
    </linearGradient>
    <linearGradient id="Obj_Gradient_2" xl:href="#Gradient_2" gradientTransform="translate(256.5 71) rotate(90) scale(370.1)"/>
    <radialGradient cx="0" cy="0" r="1" id="Gradient_3" gradientUnits="userSpaceOnUse">
      <stop offset="0" stop-color="#e63328"/>
      <stop offset="1" stop-color="#ff8f00"/>
    </radialGradient>
    <radialGradient id="Obj_Gradient_3" xl:href="#Gradient_3" gradientTransform="translate(256.75 256.90325) scale(157.40047)"/>
  </defs>
  <metadata> Produced by OmniGraffle 7.18.5\n2023-06-25 08:06:31 +0000</metadata>
  <g id="Canvas_1" stroke-opacity="1" fill="none" stroke="none" stroke-dasharray="none" fill-opacity="1">
    <title>Canvas 1</title>
    <g id="Canvas_1_Layer_1">
      <title>Layer 1</title>
      <g id="Group_2">
        <g id="Graphic_5">
          <path d="M 243.5 37.9 C 233.3 43.8 161.7 85.1 99 121.2 C 80 132.2 63.7 142 62.8 143.2 C 61.1 145.1 61 151.9 61 255.1 C 61 332.9 61.3 365.6 62.1 367.3 C 62.9 369.1 83.5 381.4 136.9 412.3 C 259.7 483.3 254.2 480.2 257.2 479.6 C 258.6 479.3 280 467.4 304.7 453.2 C 329.3 438.9 371.6 414.6 398.5 399.1 C 425.5 383.6 448.3 369.9 449.3 368.8 C 450.9 366.9 451 360.1 451 256 C 451 152 450.9 145.1 449.3 143.1 C 446.5 139.8 259 32 256 32 C 254.6 32 249 34.6 243.5 37.9 Z M 306.4 80.4 C 333.4 96 372.2 118.3 392.5 130 C 412.9 141.7 430.3 152 431.3 152.8 C 432.9 154.2 433 160.4 433 256 C 433 336.2 432.7 358 431.8 358.8 C 431.1 359.3 410.3 371.5 385.5 385.7 C 360.8 400 323 421.8 301.5 434.2 C 253.3 462 256.5 460.4 253.7 458.9 C 251.5 457.7 183.7 418.7 135 390.5 C 121.5 382.7 104 372.6 96 368 C 88 363.5 80.9 359.1 80.3 358.2 C 79.3 357 79 334.8 79 255.3 L 79 154 L 82.8 151.6 C 84.8 150.3 114.4 133.1 148.5 113.4 C 182.6 93.7 220.4 71.9 232.5 64.9 C 244.6 57.8 255.1 52.1 255.9 52.1 C 256.7 52 279.4 64.8 306.4 80.4 Z" fill="url(#Obj_Gradient)"/>
        </g>
        <g id="Graphic_4">
          <path d="M 176 116.9 L 96.5 162.8 L 96.2 255.7 L 96 348.6 L 134.2 370.7 C 155.3 382.9 191.3 403.7 214.3 417 L 256.1 441.1 L 331.3 397.7 C 372.7 373.8 408.8 352.9 411.5 351.3 L 416.5 348.4 L 416.7 256.2 L 417 164 L 413.2 161.6 C 407.3 157.7 256.9 71 256.1 71 C 255.8 71 219.7 91.7 176 116.9 Z M 334.6 120.2 L 413 165.5 L 412.7 256 L 412.5 346.4 L 382 364 C 365.2 373.7 333.7 391.9 312 404.5 C 290.3 417.1 268.8 429.4 264.3 432 L 256.2 436.7 L 178.1 391.6 L 100 346.6 L 100 255.9 L 100 165.2 L 177.8 120.2 C 220.5 95.4 255.6 75.1 255.8 75.1 C 256 75 291.4 95.4 334.6 120.2 Z" fill="url(#Obj_Gradient_2)"/>
        </g>
        <g id="Graphic_3">
          <path d="M 204 167.4 L 153.5 196.7 L 153.5 257.1 L 153.5 317.4 L 165 324 C 171.3 327.7 194.2 340.9 215.9 353.4 C 238.9 366.7 256 376 257 375.7 C 257.9 375.5 281.5 362.1 309.3 346 L 360 316.7 L 360 257 L 360 197.3 L 308.6 167.7 C 280.3 151.3 256.5 138 255.8 138.1 C 255.1 138.1 231.8 151.3 204 167.4 Z M 254 161.3 L 254 174.6 L 215.3 183.7 C 193.9 188.7 176.4 192.7 176.2 192.6 C 175.9 192.2 252.3 148.1 253.3 148 C 253.7 148 254 154 254 161.3 Z M 305.6 174.7 C 344.1 196.9 349.8 200.4 348.3 201.5 C 344.9 203.8 326.8 214 326.2 214 C 325.8 214 310.4 205.2 292 194.6 L 258.5 175.2 L 258.2 161.5 C 258 149.1 258.1 147.8 259.6 148.4 C 260.5 148.7 281.2 160.6 305.6 174.7 Z M 289.6 197.6 C 308.2 208.3 323.6 217.3 323.7 217.4 C 323.8 217.5 318.8 232.4 312.4 250.5 L 300.9 283.4 L 278.8 325.2 C 266.7 348.2 256.5 367 256.1 367 C 255.7 367 250.9 358.3 245.3 347.7 C 213.7 287.6 209.1 279.6 185.2 241.6 C 171.3 219.7 160 201.6 160 201.5 C 160 200.7 167.2 198.9 209 189 C 234 183.1 254.8 178.2 255.1 178.1 C 255.4 178 270.9 186.8 289.6 197.6 Z M 351.8 283.4 L 351.5 309.9 L 339.8 303.2 L 328 296.5 L 328.3 257 L 328.5 217.6 L 340 210.8 L 351.5 204.1 L 351.8 230.5 C 351.9 245.1 351.9 268.9 351.8 283.4 Z M 172.9 229.2 L 184 246.9 L 184 271.8 L 184 296.6 L 172.8 303 C 166.6 306.6 161.2 309.6 160.8 309.8 C 160.3 310 160 287.5 160 259.9 C 160 230.5 160.4 210 160.9 210.5 C 161.4 211.1 166.8 219.5 172.9 229.2 Z M 323.8 277.9 L 323.5 293.8 L 314.3 288.4 L 305.1 283 L 312.2 262.7 C 316.1 251.6 320.2 239.6 321.4 236.1 L 323.5 229.7 L 323.8 245.8 C 323.9 254.7 323.9 269.2 323.8 277.9 Z M 198.4 269.6 C 202.6 276.2 206 282.2 206 282.8 C 206 283.6 201.7 286.3 188.8 293.7 C 188.3 293.9 188 285 188 273.8 C 188 256.5 188.2 253.8 189.4 255.5 C 190.1 256.6 194.1 262.9 198.4 269.6 Z M 216.6 301.5 C 220.7 309.2 224 315.8 224 316.2 C 224 316.7 191.4 298.8 190.3 297.6 C 189.9 297.2 207.5 287.1 208.4 287.4 C 208.9 287.5 212.6 293.9 216.6 301.5 Z M 313.2 292.1 C 318.1 294.9 321.9 297.5 321.6 297.8 C 320.3 299.1 288.6 316.9 288.2 316.6 C 287.7 316.1 303 287 303.7 287 C 304 287 308.3 289.3 313.2 292.1 Z M 207.5 311.7 L 228.3 323.5 L 238.6 343 C 244.3 353.7 249 362.8 249 363.2 C 249 363.7 163.5 314.8 162.4 313.7 C 162.1 313.4 185.3 300 186.1 300 C 186.4 300 196.1 305.3 207.5 311.7 Z M 338.5 306.7 C 344.8 310.4 349.8 313.6 349.5 313.8 C 348.7 314.6 263.5 363.8 263.2 363.6 C 262.8 363.1 283.1 325.2 284.3 324.2 C 286.2 322.6 325.4 300 326.3 300 C 326.7 300 332.2 303 338.5 306.7 Z" fill="url(#Obj_Gradient_3)"/>
        </g>
      </g>
    </g>
  </g>
</svg>
