<?xml version="1.0" encoding="UTF-8" standalone="no"?>
<!DOCTYPE svg PUBLIC "-//W3C//DTD SVG 1.1//EN" "http://www.w3.org/Graphics/SVG/1.1/DTD/svg11.dtd">
<svg version="1.1" xmlns:dc="http://purl.org/dc/elements/1.1/" xmlns:xl="http://www.w3.org/1999/xlink" xmlns="http://www.w3.org/2000/svg" viewBox="-1 -1 512 448" width="512" height="448">
  <defs>
    <linearGradient x1="0" x2="1" id="Gradient" gradientUnits="userSpaceOnUse">
      <stop offset="0" stop-color="#e63328"/>
      <stop offset="1" stop-color="#ffcb00"/>
    </linearGradient>
    <linearGradient id="Obj_Gradient" xl:href="#Gradient" gradientTransform="translate(255.24778 -.5) rotate(90) scale(447.1643)"/>
  </defs>
  <metadata> Produced by OmniGraffle 7.18.5\n2023-06-25 07:20:49 +0000</metadata>
  <g id="Canvas_1" stroke-opacity="1" fill="none" stroke="none" stroke-dasharray="none" fill-opacity="1">
    <title>Canvas 1</title>
    <g id="Canvas_1_Layer_1">
      <title>Layer 1</title>
      <g id="Group_2">
        <g id="Graphic_3">
          <path d="M 161.32286 9.5 C 148.32286 21.8 139.52286 33.6 132.22286 48.5 C 124.62286 63.8 120.52286 76.8 118.52286 92.2 C 115.82286 112.5 117.92286 133.4 124.72286 153.8 L 127.32286 161.9 L 124.22286 167.3 C 121.22286 172.6 120.92286 172.8 115.82286 173.5 C 101.52286 175.5 82.52286 182.2 68.62286 190.1 C 32.322862 210.9 7.922862 246.3 1.122862 287.8 C -.377138 296.8 -.977138 313.2 -.07713801 320.5 C .822862 327.3 .822862 327.3 1.022862 322.5 C 1.622862 302 10.422862 277.2 23.122862 260.1 C 42.82286 233.6 70.42286 217.2 103.42286 212.5 L 108.22286 211.9 L 107.42286 218.7 C 107.02286 222.4 106.62286 232.7 106.72286 241.5 C 106.82286 266 111.62286 285.5 122.82286 307.2 C 130.92286 322.9 149.72286 347 152.42286 345.3 C 153.02286 345 153.12286 345.2 152.72286 345.8 C 151.92286 347.2 165.02286 358.2 166.52286 357.3 C 167.12286 357 167.32286 357 166.92286 357.5 C 166.02286 358.5 168.62286 360.5 178.12286 366.3 C 189.72286 373.2 206.82286 380.4 219.92286 383.7 C 221.62286 384.1 219.22286 388.3 211.62286 398.5 C 193.92286 422.2 168.22286 438.4 140.12286 443.5 C 121.92286 446.8 121.92286 446.9 140.12286 446.5 C 163.92286 446 176.22286 443.1 197.02286 433.4 C 215.32286 424.8 232.92286 410.8 244.62286 395.5 C 250.42286 388 250.42286 388 255.12286 388 C 259.82286 388 259.92286 388 265.62286 395.5 C 283.92286 419.4 313.32286 437.5 345.12286 444.5 C 349.92286 445.5 359.02286 446.3 370.62286 446.5 C 384.22286 446.8 387.32286 446.7 383.12286 445.9 C 360.82286 442.1 352.22286 439.5 340.02286 433.4 C 326.72286 426.8 315.42286 417.9 304.32286 405.6 C 299.02286 399.7 290.52286 387.6 289.92286 385.2 C 289.72286 384.3 292.32286 383 297.62286 381.5 C 312.72286 377.1 329.02286 369.1 341.42286 360.2 C 345.12286 357.6 345.92286 356.5 344.92286 355.8 C 344.02286 355.1 344.12286 355 345.42286 355.4 C 347.62286 356.1 358.52286 347.4 357.42286 345.7 C 357.12286 345.2 357.32286 345 357.82286 345.3 C 359.12286 346.1 370.42286 334.2 369.52286 332.9 C 369.22286 332.4 369.42286 332.1 369.92286 332.2 C 373.02286 333.1 393.22286 299.8 391.52286 296.7 C 391.12286 296 391.22286 295.8 391.62286 296.3 C 393.72286 298.1 401.22286 271.6 403.22286 255.6 C 404.32286 246.1 403.92286 223.2 402.52286 215.2 L 401.92286 211.9 L 406.22286 212.6 C 434.32286 216.7 456.42286 227.5 475.22286 246.3 C 494.32286 265.5 506.92286 292.2 508.82286 318 L 509.52286 327.5 L 510.32286 321.5 C 511.32286 313.6 511.22286 304.4 509.92286 294 C 503.52286 240 467.52286 195.7 416.52286 179.1 C 410.02286 177 401.12286 174.7 396.92286 174 L 389.12286 172.7 L 386.02286 167.2 L 382.92286 161.7 L 386.02286 152.1 C 391.12286 136.2 392.52286 127.1 392.52286 110 C 392.62286 92.8 391.42286 84.3 386.92286 70 C 378.82286 44.4 363.12286 20.7 342.62286 3.7 L 337.62286 -.5 L 342.72286 5.2 C 371.12286 36.7 379.82286 84.1 364.62286 124 C 360.92286 133.5 361.22286 133.3 356.22286 129 C 353.82286 126.8 351.32286 125.4 350.82286 125.7 C 350.22286 126 350.12286 125.8 350.42286 125.2 C 351.32286 123.9 343.22286 117.8 341.82286 118.7 C 341.22286 119 341.12286 118.8 341.42286 118.3 C 342.22286 117.1 331.22286 110 320.22286 104.6 C 310.92286 100 295.12286 94.6 284.12286 92.3 C 272.02286 89.7 238.22286 89.7 226.12286 92.3 C 214.72286 94.7 198.32286 100.4 188.92286 105.1 C 175.72286 111.7 163.32286 120.2 163.92286 122.2 C 164.02286 122.7 163.72286 122.9 163.12286 122.5 C 161.72286 121.6 158.92286 123.9 159.82286 125.3 C 160.12286 125.8 159.92286 126 159.32286 125.6 C 158.72286 125.3 157.32286 126.2 156.22286 127.6 C 155.02286 129.1 154.12286 129.9 154.12286 129.5 C 154.12286 129 153.02286 129.6 151.72286 130.9 L 149.42286 133.1 L 147.32286 128.3 C 141.72286 115 139.12286 103.1 138.42286 86.9 C 137.12286 57.1 147.52286 27.7 167.12286 5.7 C 169.92286 2.6 172.02286 2842171e-20 171.82286 2842171e-20 C 171.52286 2842171e-20 166.82286 4.3 161.32286 9.5 Z M 275.12286 132.4 C 275.12286 132.8 276.22286 133 277.62286 132.8 C 278.92286 132.5 279.82286 132.6 279.62286 133 C 279.32286 133.4 280.72286 134.1 282.72286 134.4 C 289.22286 135.7 301.92286 141.1 310.32286 146.2 C 314.92286 149 319.12286 151.3 319.82286 151.3 C 320.52286 151.3 320.92286 151.6 320.82286 151.9 C 320.72286 152.3 323.92286 155.6 327.92286 159.4 C 331.82286 163.2 335.12286 166.6 335.12286 167.1 C 335.12286 169.6 317.72286 182.3 306.62286 187.8 C 274.72286 203.6 234.92286 203.4 202.72286 187.4 C 195.02286 183.5 182.12286 174.6 178.12286 170.6 L 174.72286 167 L 179.92286 161.7 C 182.82286 158.8 184.82286 156 184.42286 155.5 C 183.92286 155.1 184.12286 155 184.72286 155.3 C 185.32286 155.7 188.22286 154.1 191.22286 151.9 C 203.02286 143.1 218.12286 136.3 233.82286 132.9 C 240.72286 131.5 246.12286 131.1 258.92286 131.3 C 267.82286 131.4 275.12286 131.9 275.12286 132.4 Z M 162.12286 220.6 C 201.82286 236.5 229.72286 274.3 234.22286 318 C 234.82286 323.8 234.92286 332 234.62286 336.2 C 234.02286 342.7 233.62286 344 232.12286 344 C 229.92286 344 215.82286 339.4 212.02286 337.4 C 210.42286 336.6 208.52286 336.2 207.92286 336.6 C 207.22286 337 207.12286 336.9 207.52286 336.2 C 207.92286 335.5 207.72286 335 207.02286 335 C 206.42286 335 203.62286 333.6 200.92286 332 C 198.22286 330.3 195.62286 329.2 195.02286 329.5 C 194.52286 329.9 194.22286 329.7 194.32286 329.3 C 194.52286 328.8 191.22286 325.5 187.12286 322.1 C 178.62286 315 172.22286 308.1 166.42286 299.8 C 164.22286 296.6 162.12286 294.3 161.82286 294.6 C 161.52286 294.9 161.32286 294.5 161.42286 293.8 C 161.62286 291.7 154.42286 278 153.62286 278.8 C 153.12286 279.2 153.12286 278.9 153.52286 278.3 C 153.92286 277.6 153.22286 274 152.12286 270.3 C 147.52286 255.7 146.12286 239.3 148.32286 224.2 C 149.62286 214.7 148.32286 215.1 162.12286 220.6 Z M 361.92286 224.2 C 364.42286 241.9 362.62286 258.1 356.22286 276.4 C 355.12286 279.6 354.42286 282.7 354.82286 283.3 C 355.12286 283.8 355.02286 284 354.42286 283.7 C 353.32286 283 348.82286 291.7 349.62286 293 C 349.92286 293.5 349.62286 294.2 349.02286 294.6 C 348.22286 295 348.12286 294.9 348.52286 294.2 C 348.92286 293.5 349.02286 293 348.82286 293 C 347.92286 293 341.62286 303.5 341.92286 304.5 C 342.12286 305 341.92286 305.2 341.52286 304.8 C 340.72286 304 337.42286 308 337.92286 309.2 C 338.02286 309.7 337.72286 309.9 337.32286 309.7 C 336.22286 309.4 326.52286 319.2 326.92286 320.2 C 327.02286 320.7 326.82286 320.9 326.32286 320.8 C 325.92286 320.6 323.12286 322.3 320.12286 324.6 C 312.92286 329.8 305.42286 334.4 301.42286 336 C 299.62286 336.7 298.42286 337.7 298.82286 338.3 C 299.12286 338.8 299.02286 339 298.52286 338.7 C 297.92286 338.4 293.62286 339.4 288.72286 341.1 C 276.12286 345.3 276.42286 345.4 275.62286 336.2 C 275.32286 332 275.42286 323.8 276.02286 318 C 280.02286 279.5 301.02286 246.9 334.32286 227.3 C 339.62286 224.2 358.22286 216.1 360.22286 216 C 360.52286 216 361.32286 219.7 361.92286 224.2 Z M 266.02286 221.8 C 277.02286 228.4 278.52286 244.8 268.92286 253.7 C 263.32286 259 253.82286 260.4 246.62286 257.1 C 232.62286 250.8 231.02286 230.7 243.82286 222 C 250.52286 217.4 258.52286 217.3 266.02286 221.8 Z" fill="url(#Obj_Gradient)"/>
        </g>
      </g>
    </g>
  </g>
</svg>
