<?xml version="1.0" encoding="UTF-8" standalone="no"?>
<!DOCTYPE svg PUBLIC "-//W3C//DTD SVG 1.1//EN" "http://www.w3.org/Graphics/SVG/1.1/DTD/svg11.dtd">
<svg version="1.1" xmlns:dc="http://purl.org/dc/elements/1.1/" xmlns:xl="http://www.w3.org/1999/xlink" xmlns="http://www.w3.org/2000/svg" viewBox="0 0 512 512" width="512" height="512">
  <defs>
    <linearGradient x1="0" x2="1" id="Gradient" gradientUnits="userSpaceOnUse">
      <stop offset="0" stop-color="#e63328"/>
      <stop offset=".5" stop-color="#ff8f00"/>
      <stop offset="1" stop-color="#ffcb00"/>
    </linearGradient>
    <linearGradient id="Obj_Gradient" xl:href="#Gradient" gradientTransform="translate(363.5 63) rotate(90) scale(246)"/>
    <linearGradient id="Obj_Gradient_2" xl:href="#Gradient" gradientTransform="translate(223.61226 123.30275) rotate(90) scale(291.25795)"/>
    <linearGradient id="Obj_Gradient_3" xl:href="#Gradient" gradientTransform="translate(222.56705 171.425) rotate(90) scale(196.16882)"/>
    <linearGradient id="Obj_Gradient_4" xl:href="#Gradient" gradientTransform="translate(351.51498 191) rotate(90) scale(52.8663)"/>
    <linearGradient id="Obj_Gradient_5" xl:href="#Gradient" gradientTransform="translate(222.75357 216.13206) rotate(90) scale(105.88635)"/>
    <linearGradient id="Obj_Gradient_6" xl:href="#Gradient" gradientTransform="translate(309.82112 222.1) rotate(90) scale(30.72758)"/>
  </defs>
  <metadata> Produced by OmniGraffle 7.18.5\n2023-06-25 08:01:10 +0000</metadata>
  <g id="Canvas_1" stroke-opacity="1" fill="none" stroke="none" stroke-dasharray="none" fill-opacity="1">
    <title>Canvas 1</title>
    <g id="Canvas_1_Layer_1">
      <title>Layer 1</title>
      <g id="Group_2">
        <g id="Graphic_8">
          <path d="M 359.7 83.8 L 339 104.5 L 339 125.2 C 339 139.2 339.4 146 340.1 146.2 C 341.1 146.5 294.8 193 240.2 246.5 L 221 265.4 L 224 268.5 C 225.8 270.4 227 272.6 227 274.3 L 227 277 L 315 277 C 398.4 277 403 277.1 403 278.8 C 403 279.7 409.4 286.9 417.3 294.8 L 431.5 309 L 460.8 309 L 490 309 L 490 299.7 C 490 290.6 489.9 290.4 486 284.5 C 483.8 281.2 482 278.2 482 277.7 C 482 277.3 487.4 277 494 277 L 506 277 L 506 269.2 L 506 261.5 L 494 261.6 C 487.4 261.7 482 261.4 482 260.9 C 482 260.5 483.8 257.5 486 254.4 C 490 248.7 490 248.6 490 239.3 L 490 230 L 460.8 230 L 431.6 230 L 417.5 243.7 C 409.8 251.3 403.4 258.2 403.2 259.1 C 402.9 260.5 398.9 260.8 368.7 261.4 C 334 262.1 248 262.1 248 261.4 C 248 261 325.2 184.6 343.1 167.1 L 353.8 156.8 L 375 157 L 396.2 157.1 L 417.1 136.9 L 438 116.8 L 433.3 112.6 C 425.3 105.6 424.3 105 418.3 103.9 C 407.7 102 407.8 102.7 417.6 93.4 L 426.5 85 L 420.7 79.3 L 415 73.5 L 406 82.5 C 401.1 87.4 397 91.2 397 90.8 C 397 90.4 396.3 86.8 395.5 82.8 C 394 76 393.5 75.1 387.7 69.2 C 384.3 65.8 381.3 63 381 63 C 380.7 63 371.1 72.3 359.7 83.8 Z M 383.1 99.8 C 384.4 106.5 385.7 112.5 386 113 C 386.3 113.5 392.3 115 399.3 116.3 C 406.3 117.5 412.1 118.8 412.2 119 C 412.2 119.3 407.1 124.6 400.8 130.7 L 389.2 142 L 375.5 142 C 363.3 142 361.4 141.8 358.4 139.9 L 355 137.8 L 355 124.2 L 355 110.5 L 367.2 98.3 C 373.9 91.5 379.7 86.4 380.1 86.8 C 380.5 87.2 381.8 93 383.1 99.8 Z M 472.4 246.2 C 472 246.9 468.6 252.1 464.8 257.7 C 461.1 263.3 458 268.4 458 269 C 458 270 468.7 287 472.3 291.7 C 473 292.7 469.6 293 455.9 293 L 438.5 293 L 428.8 283.7 L 419 274.5 L 419 269.5 C 419 264.6 419 264.5 428.7 254.8 L 438.5 245 L 455.8 245 C 469.4 245 473 245.3 472.4 246.2 Z" fill="url(#Obj_Gradient)"/>
        </g>
        <g id="Graphic_7">
          <path d="M 209.5 124.1 C 192.7 125.9 177 130.4 160.5 138.5 C 120.2 158 91.2 195.9 82.1 240.6 C 74.3 279 82.5 319 105.1 352 C 126.1 382.8 158.3 404 196.3 412.2 C 210 415.1 238 415.4 251.5 412.7 C 297.2 403.5 335 375 355.4 334.1 C 360.1 324.9 366.2 307.8 367.4 300.9 L 368 297.3 L 360.5 295.8 L 353 294.3 L 352 298.4 C 345.9 323.1 334.5 343.5 317 361 C 297.3 380.7 273.5 393 246.1 397.5 C 231.2 400 208.2 399.2 194.8 395.7 C 158.1 386.1 130.3 365.2 112.1 333.5 C 99.7 311.8 94.2 289 95.3 263.5 C 96.9 228.7 110.5 198.9 135.9 174.8 C 159.5 152.3 187.3 140.6 220.5 139.3 C 247.1 138.2 275.2 145.9 295.7 159.8 L 301.7 163.9 L 306.4 157.4 L 311 151 L 304.8 146.9 C 276.3 128.7 242.8 120.6 209.5 124.1 Z" fill="url(#Obj_Gradient_2)"/>
        </g>
        <g id="Graphic_6">
          <path d="M 207.2 172.1 C 193.3 174.5 177.7 181.5 165.2 191 C 147.6 204.2 135.2 223.1 129.4 245.5 C 127.3 253.7 126.8 257.8 126.8 268.5 C 126.7 296.7 136.2 319.5 155.9 339 C 167.7 350.6 178.5 357.3 193.7 362.3 C 234.8 376 277.9 362.6 304.2 328 C 309.8 320.7 318 304.7 318.3 300.5 C 318.5 298.1 318 297.7 312.5 295.9 C 309.2 294.9 306 294 305.4 294 C 304.9 294 303.6 296.2 302.7 298.9 C 297.2 314.1 281.5 332.5 266.9 340.7 C 218.3 368.2 159.2 343.3 144.4 289 C 141.9 279.9 141.9 259 144.4 249.5 C 147.1 238.9 153.9 225.4 160.8 216.9 C 168.4 207.4 177.8 200.1 189.5 194.5 C 202.4 188.3 210 186.6 225 186.6 C 239.4 186.5 247.1 188.2 259.3 193.8 C 265.9 196.8 267.3 197.2 268.1 196 C 268.6 195.2 270.4 192.1 272.1 189.2 L 275.2 184 L 266.8 180.1 C 252.7 173.4 245.6 171.9 228 171.5 C 219.5 171.3 210.1 171.5 207.2 172.1 Z" fill="url(#Obj_Gradient_3)"/>
        </g>
        <g id="Graphic_5">
          <path d="M 341.4 195.1 L 335.2 199.1 L 340.5 209.3 C 345.4 218.8 349.5 229.5 352.1 239.9 C 353.1 244.1 353.2 244.2 356.3 243.6 C 358.1 243.2 361.4 242.7 363.8 242.3 C 368.9 241.6 369 241.5 365 227.9 C 362.2 218.3 349.7 191 348.2 191 C 347.8 191 344.7 192.8 341.4 195.1 Z" fill="url(#Obj_Gradient_4)"/>
        </g>
        <g id="Graphic_4">
          <path d="M 211.6 217.6 C 198.4 220.8 184.8 231.4 178.3 243.7 C 162.5 273.1 177.2 309.6 208.7 319.7 C 216.8 322.2 229.8 322.8 238 320.9 C 245.7 319.1 254.8 314.1 261.3 308 C 268 301.8 274.9 291.5 273.4 290 C 272.5 289.1 259.7 283.8 259.5 284.3 C 255.7 292.7 247.2 301 239.3 304.1 C 234.8 305.9 231.5 306.4 224.5 306.5 C 216.3 306.5 214.9 306.2 208.8 303.2 C 193.6 295.7 185 279.3 187.9 263.1 C 190 251.2 197.8 241 208.8 235.4 C 216 231.8 229.1 230.8 236.7 233.4 C 239.2 234.3 241.4 234.9 241.6 234.7 C 241.7 234.6 243.2 231.6 245 228.1 C 247.1 223.9 247.8 221.4 247.2 220.8 C 246.6 220.2 243.1 218.9 239.4 217.9 C 231.3 215.7 220.1 215.5 211.6 217.6 Z" fill="url(#Obj_Gradient_5)"/>
        </g>
        <g id="Graphic_3">
          <path d="M 305 225.6 C 301.4 227.6 298.4 229.3 298.3 229.4 C 298.1 229.6 299.1 232 300.5 234.8 C 301.9 237.6 303.7 242.8 304.7 246.2 C 305.6 249.7 306.4 252.6 306.5 252.8 C 306.7 253 311.6 252.1 319.6 250.5 C 321.6 250.1 321.7 249.6 320.9 246.3 C 319.6 240.6 316.5 232 313.9 226.7 L 311.5 222.1 Z" fill="url(#Obj_Gradient_6)"/>
        </g>
      </g>
    </g>
  </g>
</svg>
