<?xml version="1.0" encoding="UTF-8" standalone="no"?>
<!DOCTYPE svg PUBLIC "-//W3C//DTD SVG 1.1//EN" "http://www.w3.org/Graphics/SVG/1.1/DTD/svg11.dtd">
<svg xmlns:dc="http://purl.org/dc/elements/1.1/" xmlns="http://www.w3.org/2000/svg" version="1.1" xmlns:xl="http://www.w3.org/1999/xlink" viewBox="0 0 1e3 1e3" width="1000" height="1000">
  <defs>
    <radialGradient cx="0" cy="0" r="1" id="Gradient" gradientUnits="userSpaceOnUse">
      <stop offset="0" stop-color="red"/>
      <stop offset="1" stop-color="#333"/>
    </radialGradient>
    <radialGradient id="Obj_Gradient" xl:href="#Gradient" gradientTransform="translate(500.03473 252.63145) scale(265.08666)"/>
    <radialGradient id="Obj_Gradient_2" xl:href="#Gradient" gradientTransform="translate(499.1676 523.6718) scale(362.5575)"/>
    <radialGradient id="Obj_Gradient_3" xl:href="#Gradient" gradientTransform="translate(474.6814 353.07156) scale(7.8740215)"/>
    <radialGradient id="Obj_Gradient_4" xl:href="#Gradient" gradientTransform="translate(498.5744 353.19078) scale(7.850161)"/>
    <radialGradient id="Obj_Gradient_5" xl:href="#Gradient" gradientTransform="translate(521.74015 352.9829) scale(7.831002)"/>
    <radialGradient id="Obj_Gradient_6" xl:href="#Gradient" gradientTransform="translate(474.6457 374.5147) scale(8.004163)"/>
    <radialGradient id="Obj_Gradient_7" xl:href="#Gradient" gradientTransform="translate(498.61013 374.5949) scale(7.854098)"/>
    <radialGradient id="Obj_Gradient_8" xl:href="#Gradient" gradientTransform="translate(521.82456 374.54535) scale(8.050859)"/>
    <radialGradient id="Obj_Gradient_9" xl:href="#Gradient" gradientTransform="translate(474.6814 395.3066) scale(8.085704)"/>
    <radialGradient id="Obj_Gradient_10" xl:href="#Gradient" gradientTransform="translate(498.64975 395.3041) scale(7.824749)"/>
    <radialGradient id="Obj_Gradient_11" xl:href="#Gradient" gradientTransform="translate(521.82456 395.35015) scale(8.118195)"/>
    <radialGradient id="Obj_Gradient_12" xl:href="#Gradient" gradientTransform="translate(440.47015 420.66053) scale(13.271255)"/>
    <radialGradient id="Obj_Gradient_13" xl:href="#Gradient" gradientTransform="translate(558.03906 420.53224) scale(13.037016)"/>
    <radialGradient id="Obj_Gradient_14" xl:href="#Gradient" gradientTransform="translate(474.6814 416.2108) scale(8.228066)"/>
    <radialGradient id="Obj_Gradient_15" xl:href="#Gradient" gradientTransform="translate(498.61013 416.2465) scale(8.026312)"/>
    <radialGradient id="Obj_Gradient_16" xl:href="#Gradient" gradientTransform="translate(521.82444 416.3026) scale(8.297726)"/>
    <radialGradient id="Obj_Gradient_17" xl:href="#Gradient" gradientTransform="translate(474.6814 437.4609) scale(8.094044)"/>
    <radialGradient id="Obj_Gradient_18" xl:href="#Gradient" gradientTransform="translate(498.61013 437.49037) scale(7.883242)"/>
    <radialGradient id="Obj_Gradient_19" xl:href="#Gradient" gradientTransform="translate(521.82456 437.4347) scale(8.074525)"/>
    <radialGradient id="Obj_Gradient_20" xl:href="#Gradient" gradientTransform="translate(558.21764 454.28244) scale(13.272154)"/>
    <radialGradient id="Obj_Gradient_21" xl:href="#Gradient" gradientTransform="translate(440.50676 454.81816) scale(13.169719)"/>
    <radialGradient id="Obj_Gradient_22" xl:href="#Gradient" gradientTransform="translate(406.36744 452.4253) scale(7.870303)"/>
    <radialGradient id="Obj_Gradient_23" xl:href="#Gradient" gradientTransform="translate(591.4487 453.0772) scale(7.732047)"/>
    <radialGradient id="Obj_Gradient_24" xl:href="#Gradient" gradientTransform="translate(474.6492 458.8478) scale(8.036711)"/>
    <radialGradient id="Obj_Gradient_25" xl:href="#Gradient" gradientTransform="translate(498.5744 458.9057) scale(7.850161)"/>
    <radialGradient id="Obj_Gradient_26" xl:href="#Gradient" gradientTransform="translate(521.82456 458.8896) scale(8.094044)"/>
    <radialGradient id="Obj_Gradient_27" xl:href="#Gradient" gradientTransform="translate(407.0367 472.31826) scale(7.8459605)"/>
    <radialGradient id="Obj_Gradient_28" xl:href="#Gradient" gradientTransform="translate(591.4321 473.56827) scale(7.593007)"/>
    <radialGradient id="Obj_Gradient_29" xl:href="#Gradient" gradientTransform="translate(486.00984 493.40654) scale(20.532895)"/>
    <radialGradient id="Obj_Gradient_30" xl:href="#Gradient" gradientTransform="translate(510.5388 493.2827) scale(20.130088)"/>
    <radialGradient id="Obj_Gradient_31" xl:href="#Gradient" gradientTransform="translate(557.8605 488.6041) scale(13.165093)"/>
    <radialGradient id="Obj_Gradient_32" xl:href="#Gradient" gradientTransform="translate(440.3598 489.28265) scale(13.272154)"/>
    <radialGradient id="Obj_Gradient_33" xl:href="#Gradient" gradientTransform="translate(406.69128 493.09726) scale(7.742586)"/>
    <radialGradient id="Obj_Gradient_34" xl:href="#Gradient" gradientTransform="translate(591.4678 494.9467) scale(8.126613)"/>
    <radialGradient id="Obj_Gradient_35" xl:href="#Gradient" gradientTransform="translate(376.80385 564.2474) scale(11.558893)"/>
    <radialGradient id="Obj_Gradient_36" xl:href="#Gradient" gradientTransform="translate(378.31347 587.4092) scale(13.68283)"/>
    <radialGradient id="Obj_Gradient_37" xl:href="#Gradient" gradientTransform="translate(461.919 570.2117) scale(11.568502)"/>
    <radialGradient id="Obj_Gradient_38" xl:href="#Gradient" gradientTransform="translate(586.48566 576.49746) scale(22.338164)"/>
    <radialGradient id="Obj_Gradient_39" xl:href="#Gradient" gradientTransform="translate(368.46505 633.8652) scale(9.262)"/>
    <radialGradient id="Obj_Gradient_40" xl:href="#Gradient" gradientTransform="translate(567.72306 633.55105) scale(10.151904)"/>
  </defs>
  <metadata> Produced by OmniGraffle 7.18.5\n2023-03-02 17:36:33 +0000</metadata>
  <g id="Canvas_1" fill-opacity="1" fill="none" stroke-opacity="1" stroke="none" stroke-dasharray="none">
    <title>Canvas 1</title>
    <g id="Canvas_1_Layer_1">
      <title>Layer 1</title>
      <g id="Group_2">
        <g id="Graphic_42">
          <path d="M 464.85993 187.13798 C 450.5027 188.20942 414.14534 193.92374 394.2881 198.2809 C 365.14505 204.70951 329.3591 217.85245 303.9304 231.56682 C 281.21597 243.8526 262.7873 256.4241 254.07295 265.70988 C 244.3586 276.0671 242.43003 282.63855 243.5729 302.13867 C 243.93003 308.21014 244.21575 314.2816 244.28718 315.56732 L 244.28718 317.92448 L 247.35863 315.4959 C 256.57297 307.99585 281.85883 292.42433 297.7875 284.35285 C 332.002 267.06703 360.645 256.06697 389.50234 248.9955 C 426.3597 239.924 439.4312 238.1383 473.2171 237.424 C 500.7173 236.78114 528.0746 238.49543 549.289 242.20974 C 596.3607 250.35265 641.6467 262.99558 675.7183 277.49567 C 695.7185 285.9957 734.86155 305.71012 745.7188 312.7816 L 754.6474 318.56734 L 755.576 311.2816 C 756.076 307.21013 756.576 299.06722 756.6474 293.21005 L 756.7903 282.42427 L 754.0045 276.78138 C 749.0045 266.56703 737.57585 256.70983 715.3614 243.3526 C 688.0041 226.78108 657.50394 213.49528 628.43234 205.4238 C 600.7893 197.70947 584.2178 194.42374 547.14614 189.20942 C 531.5032 186.99512 530.2889 186.9237 502.14587 186.7094 C 486.2172 186.63798 469.4314 186.85226 464.85993 187.13798 Z" fill="url(#Obj_Gradient)"/>
        </g>
        <g id="Graphic_41">
          <path d="M 451.07413 263.20986 C 424.8597 265.85274 393.1452 272.49564 372.07366 279.70996 C 344.00206 289.28145 318.28762 300.92438 293.93033 314.9959 C 265.93017 331.21027 247.85863 344.0675 247.85863 347.85323 C 247.85863 348.7818 249.0015 359.639 250.35864 372.06766 C 252.7158 393.7821 256.6444 430.9966 262.85872 491.99695 C 263.64444 499.7113 264.7873 510.71135 265.35873 516.4257 C 265.93017 522.14 267.93018 541.0687 269.64447 558.5688 C 271.4302 576.0689 273.35878 592.7833 273.8588 595.71186 C 276.43023 609.3548 279.85882 613.9977 299.2875 630.2835 C 307.359 636.9978 324.4305 651.35505 337.2163 662.1408 C 391.28806 707.784 466.2885 770.7129 471.57426 774.8558 C 481.5029 782.5701 488.0029 784.9273 499.003 784.9987 C 511.1459 784.9987 519.0031 782.4273 526.8603 775.9272 C 529.21746 773.9272 539.2175 764.9272 549.0033 755.9985 C 558.8605 746.9985 575.3606 731.927 585.7178 722.4983 C 596.075 713.0697 608.6465 701.6411 613.5751 697.141 C 618.5037 692.641 631.0752 681.2124 641.4324 671.78374 C 651.86105 662.42655 664.2183 651.1408 668.9326 646.7836 C 673.6469 642.4264 683.86125 633.2121 691.5756 626.21204 C 706.1471 613.1405 708.00425 611.0691 710.71855 605.78335 C 713.29 600.64046 714.2186 596.7119 716.0757 582.85464 C 718.36145 566.64026 726.0758 512.3542 730.3615 482.85404 C 732.14725 470.85397 735.5044 447.5681 737.8616 431.068 C 744.8616 382.4963 750.0045 347.92466 750.4331 346.92465 C 750.5759 346.42465 750.36164 345.49607 749.8616 344.8532 C 748.64735 343.28177 720.5043 326.78168 704.3614 318.2102 C 684.9327 307.853 663.5754 298.63865 638.5038 289.71002 C 607.9322 278.8528 562.0748 268.35275 525.71744 263.85273 C 512.21736 262.20986 465.0742 261.7813 451.07413 263.20986 Z M 501.57444 301.35295 L 501.86015 314.13874 L 505.003 317.63876 C 509.1459 322.2102 509.3602 322.28165 513.14594 321.28164 C 517.5031 320.13878 519.646 321.1388 520.5031 324.78166 C 521.146 327.42454 521.2174 327.49596 525.00315 327.99597 C 527.7889 328.3531 529.21746 328.8531 530.0032 329.99598 C 533.0032 334.2103 533.36034 334.42458 536.57465 334.78172 L 539.8604 335.13887 L 540.2175 338.49603 C 540.4318 340.28176 540.4318 379.782 540.1461 426.21084 L 539.78895 510.71135 L 541.5747 510.71135 L 543.3604 510.71135 L 543.789 500.497 C 544.00326 494.92554 544.00326 466.13965 543.789 436.4966 L 543.4318 382.63915 L 545.5033 383.06773 C 546.5747 383.35344 553.4319 385.13917 560.71765 386.9963 L 573.932 390.49634 L 573.932 450.4253 L 573.932 510.3542 L 575.71774 510.3542 L 577.50346 510.3542 L 577.50346 467.63966 C 577.50346 444.21095 577.71775 424.99655 577.93204 424.99655 C 578.21775 424.99655 584.0035 426.42513 590.78926 428.21086 C 597.64644 429.9966 603.9322 431.42516 604.8608 431.42516 C 605.7179 431.42516 606.50364 431.4966 606.5751 431.568 C 606.6465 431.7109 606.9322 449.63956 607.1465 471.4254 L 607.50364 511.0685 L 610.2894 510.8542 C 613.43225 510.5685 614.2894 511.3542 614.2894 514.7828 L 614.2894 517.13996 L 498.503 517.13996 L 382.788 517.13996 L 383.0023 514.0685 L 383.2166 511.0685 L 387.7166 511.21135 L 392.1452 511.42564 L 392.1452 472.2111 L 392.1452 432.92517 L 395.93095 431.92516 C 397.93096 431.2823 402.5024 430.13944 406.00244 429.2823 C 409.43103 428.42514 414.0739 427.1394 416.2882 426.3537 C 418.4311 425.6394 420.5025 424.99655 420.85967 424.99655 C 421.1454 424.99655 421.4311 444.2824 421.4311 467.85395 L 421.4311 510.71135 L 423.71683 510.71135 L 425.93113 510.71135 L 425.50255 450.85385 L 425.074 390.9249 L 438.07406 387.49632 C 445.21696 385.63917 452.07414 383.92488 453.217 383.782 L 455.3599 383.42487 L 455.3599 446.92525 L 455.3599 510.3542 L 457.1456 510.3542 L 458.9313 510.3542 L 458.9313 423.56797 C 459.00275 375.8534 459.0742 336.35316 459.1456 335.85316 C 459.21704 335.4246 460.0742 334.996 461.0742 334.996 C 463.64564 334.996 466.9314 333.13886 467.5028 331.35313 C 468.07424 329.71026 472.4314 327.5674 474.0743 328.13883 C 475.86 328.8531 477.86 327.21025 477.86 325.1388 C 477.86 321.56736 478.71716 321.06735 484.9315 321.06735 C 490.50294 321.06735 490.71723 320.99593 493.1458 318.63877 C 494.5744 317.2816 495.8601 315.63875 496.0744 315.06732 C 496.21726 314.42446 496.71727 308.49585 497.14584 301.85295 C 497.5744 295.2815 498.0744 289.56717 498.2887 289.21002 C 498.503 288.85288 499.2173 288.56716 499.9316 288.56716 C 501.14586 288.56716 501.2887 289.56717 501.57444 301.35295 Z M 668.0754 534.2115 C 668.36115 534.2829 668.57544 536.2115 668.57544 538.56866 L 668.57544 542.8544 L 498.64585 542.8544 L 328.7877 542.8544 L 328.2877 540.6401 C 328.0734 539.4258 327.8591 537.4972 327.8591 536.35436 L 327.8591 534.35435 L 337.00202 534.14006 C 345.21636 533.9258 666.7897 533.9972 668.0754 534.2115 Z M 645.861 551.9259 C 650.36104 554.3545 651.1468 555.7116 649.64676 558.5688 C 648.0039 561.71166 646.7896 561.8545 643.50386 559.5688 C 640.1467 557.28306 634.14666 556.4259 630.7181 557.8545 C 623.4323 560.8545 619.4323 572.99744 622.07516 584.0689 C 624.7895 595.3547 636.2895 600.069 644.4324 593.21185 C 647.14674 590.9261 648.7896 590.9261 650.64676 593.2833 C 651.7896 594.7833 651.9325 595.42614 651.2896 596.7833 C 650.0753 599.569 645.2896 602.1405 639.5038 603.35476 C 634.5752 604.3548 633.7181 604.3548 629.7181 603.2833 C 620.78944 600.85475 615.718 594.71185 613.218 583.4261 C 612.21796 578.6403 612.1465 577.1403 612.8608 572.7117 C 614.14654 565.2117 616.218 560.21165 619.5037 556.6402 C 623.00374 552.85446 624.718 551.85445 631.14664 550.14016 C 636.861 548.5687 640.4324 548.9973 645.861 551.9259 Z M 383.93087 551.35445 C 389.57377 552.7116 393.1452 556.49734 393.93093 561.9974 C 394.43094 565.7831 393.71665 568.2831 390.8595 572.3546 C 389.07376 575.0689 389.00233 575.1403 390.3595 575.926 C 393.93093 577.8546 396.21666 581.0689 396.7881 584.7118 C 397.71667 591.71184 394.7881 597.64044 388.9309 600.64046 C 385.57374 602.4262 384.7166 602.4976 372.7165 602.7119 L 360.00216 602.9976 L 360.00216 576.5689 L 360.00216 550.2116 L 370.2165 550.35445 C 375.78797 550.4259 382.0023 550.9259 383.93087 551.35445 Z M 436.78833 553.56875 L 436.78833 556.78306 L 425.21684 556.99734 L 413.5739 557.1402 L 413.5739 564.2831 L 413.5739 571.426 L 423.1454 571.426 C 428.43114 571.426 432.93117 571.7117 433.14546 572.06886 C 433.35974 572.3546 433.2883 574.0689 433.0026 575.7832 L 432.43117 578.92605 L 423.00254 579.1403 L 413.5739 579.3546 L 413.5739 587.4975 L 413.5739 595.71186 L 425.3597 595.71186 L 437.1455 595.71186 L 437.1455 599.2833 L 437.1455 602.85476 L 421.4311 602.85476 L 405.7167 602.85476 L 405.7167 576.926 C 405.7167 562.6402 405.8596 550.783 406.00244 550.64016 C 406.2167 550.4973 413.14534 550.35445 421.57396 550.35445 L 436.78833 550.35445 Z M 466.43137 551.4259 C 468.57424 555.3545 483.64576 601.6405 483.0029 602.2833 C 482.64575 602.6405 480.64574 602.85476 478.5743 602.7119 L 474.78856 602.4976 L 473.86 598.9262 C 472.2171 592.569 470.35996 587.4975 469.85996 587.6404 C 469.5028 587.78324 465.5742 587.8547 461.0742 587.8547 L 452.9313 587.8547 L 450.64556 595.3547 L 448.35983 602.85476 L 444.1455 602.85476 C 441.8598 602.85476 440.00264 602.56904 440.00264 602.2119 C 440.00264 601.7833 440.78836 599.35474 441.71694 596.64044 C 442.6455 593.99756 445.64553 585.2118 448.217 577.1403 C 454.5027 557.99735 457.00274 551.56874 458.4313 550.7116 C 459.0742 550.35445 461.00277 549.9973 462.64563 549.9973 C 464.93136 549.9973 465.85994 550.35445 466.43137 551.4259 Z M 512.8602 575.71174 C 512.8602 589.8547 512.93165 601.6405 513.0745 601.9262 C 513.14594 602.2833 511.21735 602.56904 508.78877 602.7119 L 504.28874 602.9262 L 504.28874 579.4975 C 504.28874 566.64026 504.503 554.8545 504.7173 553.4259 C 505.2173 550.7116 505.50303 550.4973 511.2888 550.14016 L 512.8602 549.9973 Z M 559.6462 553.56875 L 559.6462 556.78306 L 551.9319 556.99734 L 544.21755 557.2116 L 544.289 579.8546 L 544.43184 602.4976 L 540.2175 602.4976 L 536.07464 602.4976 L 535.86036 579.7832 L 535.7175 557.1402 L 527.8603 557.1402 L 520.0031 557.1402 L 520.0031 553.9973 C 520.0031 552.1402 520.36026 550.7116 520.9317 550.4973 C 521.3603 550.283 530.2889 550.14016 540.7175 550.2116 L 559.6462 550.35445 Z M 588.78925 551.14016 C 592.6464 551.85445 598.5036 555.56876 601.2179 559.1402 C 604.78934 563.8545 605.9322 568.7117 605.6465 578.21176 C 605.3608 585.7118 605.2179 586.4975 602.86076 591.1404 C 598.14645 600.2833 592.575 602.85476 577.43204 602.85476 L 568.0034 602.85476 L 567.5034 594.6404 C 566.86054 584.2832 567.36055 552.1402 568.14627 550.783 C 568.6463 549.9973 570.432 549.85444 577.43204 550.2116 C 582.2178 550.4973 587.28924 550.85445 588.78925 551.14016 Z M 371.4308 622.28345 C 376.00226 623.99774 378.5737 629.9978 377.5737 636.6407 C 376.71655 642.4264 373.3594 645.21216 366.2879 645.92645 C 359.78787 646.5693 359.645 646.355 359.645 633.7835 C 359.645 627.9978 359.93073 622.6406 360.21645 621.9263 C 360.645 620.712 361.21645 620.6406 365.21648 621.06915 C 367.64506 621.3549 370.4308 621.9263 371.4308 622.28345 Z M 402.64527 621.4263 C 404.931 621.4263 405.07386 621.56916 404.85957 623.3549 C 404.6453 625.3549 404.57386 625.3549 399.64526 625.3549 L 394.64522 625.3549 L 394.43094 628.3549 L 394.21665 631.3549 L 398.7167 631.5692 C 402.14527 631.7121 403.2167 632.0692 403.2167 632.85494 C 403.2167 633.64066 402.07384 633.9978 398.93096 634.2835 L 394.64522 634.6407 L 394.43094 638.1407 C 394.2881 640.4264 394.50237 641.855 395.14523 642.21214 C 395.64523 642.5693 398.21667 642.855 400.931 642.855 C 405.28815 642.855 405.7167 642.99786 405.7167 644.2836 C 405.7167 645.71216 405.35957 645.7836 398.0738 645.5693 L 390.3595 645.355 L 390.1452 638.56926 C 390.00234 634.85495 390.1452 629.4978 390.3595 626.6406 L 390.8595 621.4977 L 393.43093 621.212 C 394.8595 621.06915 397.0024 620.9977 398.14525 621.1406 C 399.2881 621.28344 401.2881 621.4263 402.64527 621.4263 Z M 417.2882 621.3549 C 418.7168 621.9263 419.28823 623.212 421.07395 630.2835 C 422.2168 635.1407 423.4311 638.4978 423.8597 638.355 C 424.574 638.1407 425.28827 636.2121 428.3597 626.0692 C 429.574 622.06916 429.7883 621.78344 431.7883 621.78344 C 433.0026 621.78344 433.85975 622.06916 433.85975 622.4977 C 433.64546 623.8549 427.6454 643.21214 427.00256 644.4264 C 426.28827 645.92645 422.6454 646.1407 421.6454 644.7836 C 421.2168 644.355 420.57395 642.49786 420.07395 640.7121 C 419.6454 638.9264 418.2168 633.9264 416.85964 629.6406 C 414.71677 622.712 414.35963 620.712 415.35964 620.712 C 415.5025 620.712 416.35964 620.9977 417.2882 621.3549 Z M 471.35997 621.78344 C 473.57427 622.9263 474.71713 624.8549 473.7171 625.8549 C 473.36 626.21204 471.7171 626.1406 469.85996 625.6406 C 466.35994 624.712 464.5028 625.0692 463.8599 626.7835 C 463.21706 628.3549 464.7885 629.92635 469.0028 631.7835 C 473.78856 633.9264 475.28857 636.1407 474.78856 640.2121 C 474.21713 644.6407 472.4314 645.71216 466.0028 645.71216 C 461.5742 645.71216 460.5742 645.4979 459.28847 644.1407 C 458.50275 643.2836 457.8599 642.1407 457.8599 641.5693 C 457.8599 640.5693 457.78846 640.5693 466.2885 641.855 C 468.35995 642.1407 469.35996 641.9264 470.2171 641.0693 C 471.9314 639.4264 470.6457 637.355 466.9314 635.7835 C 461.7885 633.5692 459.28847 630.9978 459.28847 627.9978 C 459.3599 624.7835 460.43133 623.212 463.64564 621.8549 C 466.7885 620.4977 468.85996 620.4263 471.35997 621.78344 Z M 499.86014 621.1406 C 501.14586 621.4977 501.4316 622.06916 501.2887 623.4263 C 501.07443 625.212 500.9316 625.2835 496.14583 625.3549 L 491.21723 625.3549 L 491.0744 627.4978 C 490.8601 631.14064 491.28866 631.42636 495.8601 631.42636 C 499.503 631.42636 500.0744 631.5692 499.86014 632.64065 C 499.7173 633.4978 498.86014 633.9978 497.503 634.14066 C 490.8601 634.7121 490.71723 634.7835 490.71723 638.2121 C 490.71723 642.1407 491.8601 642.855 497.7173 642.855 C 500.9316 642.855 502.07444 643.1407 502.4316 643.9264 C 503.003 645.5693 501.7887 645.7836 493.8601 645.5693 L 486.78863 645.355 L 486.57435 635.7121 C 486.28863 622.8549 486.57435 621.56916 489.50294 621.212 C 493.43153 620.712 498.14585 620.712 499.86014 621.1406 Z M 527.7889 621.78344 C 530.0032 622.8549 531.14604 624.8549 530.14604 625.8549 C 529.8603 626.1406 528.00317 626.1406 526.00316 625.7835 C 521.646 624.9263 519.4317 626.21204 517.9317 630.42635 C 516.64596 634.0692 517.36025 637.855 519.78883 640.7121 C 521.78884 643.0693 523.5746 643.1407 527.71745 640.99785 C 530.21747 639.7121 531.43176 639.7121 531.43176 641.0693 C 531.43176 644.2836 524.9317 647.14074 520.07455 646.0693 C 516.9317 645.42644 513.8602 641.49785 512.93165 636.9978 C 510.71735 626.6406 519.646 617.4977 527.7889 621.78344 Z M 573.432 622.6406 C 580.0749 627.6406 579.2892 641.49785 572.1463 645.21216 C 570.36057 646.1407 568.57484 646.42645 566.14625 646.2122 C 563.21766 645.92645 562.21766 645.4979 560.2891 643.355 C 557.0748 639.855 556.00334 635.7121 557.0748 630.7121 C 558.00335 626.0692 559.50336 623.8549 562.8605 621.9977 C 565.932 620.3549 570.7177 620.6406 573.432 622.6406 Z M 604.0036 622.9263 C 606.1465 624.712 607.28936 627.8549 606.78935 630.7121 C 606.2179 634.2835 605.4322 634.7835 599.36074 636.2835 L 594.2893 637.4264 L 594.2893 641.6407 C 594.2893 645.7836 594.2893 645.7836 592.3607 645.5693 L 590.3607 645.355 L 590.1464 637.855 C 590.00354 633.7121 590.1464 628.3549 590.3607 625.9263 C 590.78926 621.56916 590.8607 621.4977 593.075 621.28344 C 596.5036 620.9263 602.7893 621.9263 604.0036 622.9263 Z M 631.2895 622.1406 C 634.0752 623.8549 634.5752 626.8549 632.0038 626.1406 C 627.4323 624.9263 625.218 624.8549 624.0752 626.0692 C 622.0037 628.1406 622.718 629.0692 628.1466 631.64065 C 633.64666 634.2835 634.2895 635.06924 634.2895 639.855 C 634.2895 641.4264 633.7181 642.7836 632.5038 643.9264 C 631.0038 645.4979 630.14664 645.71216 625.71804 645.71216 C 621.28944 645.71216 620.4323 645.4979 618.9323 643.9264 C 615.718 640.78356 617.2894 639.1407 621.78944 640.99785 C 625.4323 642.5693 628.3609 642.4264 629.21806 640.855 C 630.2895 638.855 628.43234 636.7835 623.6466 634.2835 C 621.3609 633.14066 619.2894 631.7121 619.0037 631.0692 C 618.07514 628.5692 618.57514 625.212 620.218 623.712 C 623.5752 620.56915 627.6466 619.9263 631.2895 622.1406 Z M 560.2891 682.2124 C 562.2891 687.8553 564.0748 689.28385 569.2891 689.28385 C 572.3606 689.28385 573.5749 689.5696 573.5749 690.2124 C 573.5749 690.7124 572.0034 692.7839 570.0034 694.7839 C 568.07484 696.7839 566.432 698.8553 566.432 699.4268 C 566.432 699.9268 566.932 701.7839 567.57483 703.4982 C 568.14627 705.2125 568.5034 707.0697 568.2891 707.6411 C 567.7177 709.1411 564.7891 708.7125 562.1462 706.78396 C 559.1462 704.56966 557.5748 704.56966 553.9319 706.78396 C 552.36046 707.784 550.36044 708.5697 549.5033 708.5697 C 547.5747 708.5697 547.3604 706.8554 548.7176 701.7125 L 549.64615 698.4268 L 545.5033 694.4982 C 543.21754 692.2839 541.50325 690.4267 541.71754 690.2124 C 541.8604 690.0696 543.0747 689.78385 544.3604 689.641 C 553.28903 688.5696 552.6462 688.9267 555.2176 683.5695 C 556.4319 680.8552 557.8605 678.5695 558.21763 678.5695 C 558.6462 678.5695 559.5748 680.2124 560.2891 682.2124 Z M 444.21695 682.4267 C 445.50267 686.9267 447.71697 688.7124 452.5027 689.141 C 456.00274 689.4267 456.4313 689.641 456.4313 691.0696 C 456.4313 692.141 455.217 693.7839 453.07415 695.7125 L 449.717 698.64105 L 451.2884 702.9268 C 453.57415 709.2125 452.4313 709.9983 446.0741 706.6411 L 442.4312 704.78394 L 438.28834 706.6411 C 431.21687 709.9268 430.43115 709.284 432.574 702.1411 L 433.7169 698.2839 L 431.35973 696.0696 C 430.0026 694.9267 427.7883 693.0696 426.43113 691.99815 L 423.9311 689.9981 L 426.43113 689.9981 C 427.7883 689.9267 430.71687 689.4981 432.85974 689.0696 C 436.35976 688.2124 436.9312 687.8553 438.1455 685.35526 C 441.50265 678.2838 442.78837 677.6409 444.21695 682.4267 Z M 503.86017 704.4268 C 506.1459 709.284 508.1459 713.284 508.21733 713.42685 C 508.6459 713.92686 512.3602 714.3554 519.5031 714.784 C 523.7174 714.9983 527.3603 715.4983 527.5746 715.784 C 527.7889 716.14115 524.8603 719.56975 521.146 723.4269 L 514.2888 730.4984 L 515.36023 737.927 C 515.93167 741.99845 516.64596 746.0699 516.86024 746.92705 C 517.2174 748.3556 517.0031 748.5699 515.43166 748.5699 C 513.3602 748.5699 508.5745 746.2842 503.57445 742.927 C 501.7887 741.7127 500.003 740.7127 499.64585 740.7127 C 499.2173 740.7127 496.71727 742.1413 494.0744 743.8556 C 488.7172 747.3556 483.14576 749.5699 482.43147 748.4985 C 482.2172 748.0699 482.36004 746.2842 482.7886 744.427 C 483.2172 742.5699 483.86005 738.5699 484.2886 735.5698 L 485.07434 730.0698 L 479.2886 724.49835 C 476.0743 721.4269 472.6457 718.4269 471.7171 717.85545 C 469.6457 716.64116 469.4314 715.4269 471.35997 715.9269 C 472.07426 716.0697 475.36 715.8554 478.64573 715.284 C 481.93146 714.784 485.9315 714.284 487.5029 714.1411 C 490.1458 713.92686 490.50294 713.6411 493.00296 709.284 C 494.50297 706.7125 496.43155 702.6411 497.2887 700.2125 C 498.2173 697.7125 499.0744 695.7125 499.2887 695.7125 C 499.503 695.7125 501.57444 699.64106 503.86017 704.4268 Z" fill="url(#Obj_Gradient_2)"/>
        </g>
        <g id="Graphic_40">
          <path d="M 470.2171 347.5675 C 469.57425 347.85323 469.28853 349.63896 469.28853 352.85326 C 469.28853 355.85328 469.6457 357.9247 470.2171 358.3533 C 470.6457 358.78187 473.07427 358.92473 475.5743 358.71044 L 480.0743 358.42472 L 479.86 352.9247 L 479.64573 347.4961 L 475.36 347.35323 C 473.00284 347.2818 470.6457 347.42466 470.2171 347.5675 Z" fill="url(#Obj_Gradient_3)"/>
        </g>
        <g id="Graphic_39">
          <path d="M 494.0744 347.63894 C 493.7887 347.85323 493.5744 350.42467 493.5744 353.28183 L 493.5744 358.49615 L 497.503 358.92473 C 503.4316 359.71044 503.57445 359.49616 503.57445 352.85326 L 503.57445 347.13894 L 499.0744 347.13894 C 496.5744 347.13894 494.2887 347.35323 494.0744 347.63894 Z" fill="url(#Obj_Gradient_4)"/>
        </g>
        <g id="Graphic_38">
          <path d="M 516.9317 347.5675 C 516.64596 347.85323 516.4317 350.42467 516.4317 353.35326 C 516.4317 358.5676 516.4317 358.5676 518.4317 358.71044 C 520.2174 358.78187 525.28887 358.71044 526.646 358.639 C 526.93173 358.5676 527.146 356.06757 527.00316 352.9961 L 526.7889 347.4961 L 522.146 347.2818 C 519.57455 347.13894 517.2174 347.2818 516.9317 347.5675 Z" fill="url(#Obj_Gradient_5)"/>
        </g>
        <g id="Graphic_37">
          <path d="M 469.28853 374.21053 L 469.28853 379.782 L 473.1457 380.21057 C 479.7886 380.85343 480.0029 380.71057 480.0029 374.21053 L 480.0029 368.56764 L 474.6457 368.56764 L 469.28853 368.56764 Z" fill="url(#Obj_Gradient_6)"/>
        </g>
        <g id="Graphic_36">
          <path d="M 493.5744 373.8534 C 493.5744 380.21057 494.1458 380.85343 499.43157 380.5677 L 503.2173 380.35343 L 503.4316 374.4248 L 503.6459 368.56764 L 498.5744 368.56764 L 493.5744 368.56764 Z" fill="url(#Obj_Gradient_7)"/>
        </g>
        <g id="Graphic_35">
          <path d="M 516.4317 374.28196 L 516.4317 379.92485 L 518.7888 380.282 C 520.0031 380.4963 522.3603 380.5677 523.9317 380.4963 L 526.7889 380.35342 L 527.00316 374.4248 L 527.21745 368.56764 L 521.78884 368.56764 L 516.4317 368.56764 Z" fill="url(#Obj_Gradient_8)"/>
        </g>
        <g id="Graphic_34">
          <path d="M 469.28853 394.1392 C 469.28853 400.7821 470.0028 401.56784 475.36 401.2821 L 479.64573 401.06784 L 479.86 395.13923 L 480.0743 389.28205 L 474.6457 389.28205 L 469.28853 389.28205 Z" fill="url(#Obj_Gradient_9)"/>
        </g>
        <g id="Graphic_33">
          <path d="M 493.8601 390.28206 C 493.2887 391.78207 494.00296 399.9964 494.7887 400.7821 C 495.21726 401.2107 497.21727 401.425 499.36014 401.2821 L 503.2173 401.06784 L 503.4316 395.13923 L 503.6459 389.28205 L 498.93156 389.28205 C 495.5744 389.28205 494.1458 389.56777 493.8601 390.28206 Z" fill="url(#Obj_Gradient_10)"/>
        </g>
        <g id="Graphic_32">
          <path d="M 516.4317 394.99637 C 516.4317 401.4964 516.64596 401.7107 523.28885 401.2821 L 526.7889 401.06784 L 527.00316 395.13923 L 527.21745 389.28205 L 521.78884 389.28205 L 516.4317 389.28205 Z" fill="url(#Obj_Gradient_11)"/>
        </g>
        <g id="Graphic_31">
          <path d="M 435.14547 420.4965 L 435.35976 432.4966 L 440.4312 432.7109 C 444.1455 432.85374 445.64553 432.63945 445.7884 431.9966 C 445.93125 431.4966 446.0027 425.99656 445.8598 419.78223 L 445.64553 408.5679 L 440.28836 408.5679 L 435.0026 408.5679 Z" fill="url(#Obj_Gradient_12)"/>
        </g>
        <g id="Graphic_30">
          <path d="M 553.0033 420.4965 L 553.2176 432.4966 L 558.21763 432.4966 L 563.21766 432.4966 L 563.0748 422.49654 C 563.0034 416.9965 562.93195 411.63933 562.93195 410.49646 C 562.8605 408.5679 562.8605 408.5679 557.8605 408.5679 L 552.86046 408.5679 Z" fill="url(#Obj_Gradient_13)"/>
        </g>
        <g id="Graphic_29">
          <path d="M 469.28853 415.63935 C 469.28853 418.78223 469.5028 421.49653 469.85996 421.7108 C 470.1457 421.85367 472.50283 422.1394 475.00285 422.2108 L 479.64573 422.4251 L 479.86 416.2108 L 480.0743 409.99646 L 474.6457 409.99646 L 469.28853 409.99646 Z" fill="url(#Obj_Gradient_14)"/>
        </g>
        <g id="Graphic_28">
          <path d="M 493.5744 415.7108 C 493.5744 422.28225 493.71725 422.4251 499.64585 422.49654 L 503.2173 422.49654 L 503.4316 416.2108 L 503.6459 409.99646 L 498.5744 409.99646 L 493.5744 409.99646 Z" fill="url(#Obj_Gradient_15)"/>
        </g>
        <g id="Graphic_27">
          <path d="M 516.4317 415.9965 C 516.4317 422.8537 516.2888 422.7108 522.8603 422.56796 L 526.7889 422.49654 L 527.00316 416.2108 L 527.21745 409.99646 L 521.78884 409.99646 L 516.4317 409.99646 Z" fill="url(#Obj_Gradient_16)"/>
        </g>
        <g id="Graphic_26">
          <path d="M 469.28853 437.1395 L 469.28853 442.78237 L 471.6457 443.21094 C 472.9314 443.49666 475.28857 443.5681 476.7886 443.42523 L 479.64573 443.21094 L 479.86 437.28234 L 480.0743 431.42516 L 474.6457 431.42516 L 469.28853 431.42516 Z" fill="url(#Obj_Gradient_17)"/>
        </g>
        <g id="Graphic_25">
          <path d="M 493.5744 437.1395 C 493.5744 443.5681 493.8601 443.8538 500.0744 443.42523 L 503.2173 443.21095 L 503.4316 437.28234 L 503.6459 431.42516 L 498.5744 431.42516 L 493.5744 431.42516 Z" fill="url(#Obj_Gradient_18)"/>
        </g>
        <g id="Graphic_24">
          <path d="M 516.4317 437.1395 C 516.4317 443.6395 516.5031 443.6395 523.2174 443.3538 L 526.7889 443.21095 L 527.00316 437.28234 L 527.21745 431.42516 L 521.78884 431.42516 L 516.4317 431.42516 Z" fill="url(#Obj_Gradient_19)"/>
        </g>
        <g id="Graphic_23">
          <path d="M 552.86046 453.85387 C 552.86046 463.8539 553.0033 465.63965 554.0033 465.9968 C 555.4319 466.56823 558.50335 466.56823 561.3605 465.9968 L 563.5748 465.4968 L 563.2891 460.7825 C 563.0748 458.21104 562.93195 452.9253 562.8605 449.0681 L 562.8605 442.1395 L 557.8605 442.1395 L 552.86046 442.1395 Z" fill="url(#Obj_Gradient_20)"/>
        </g>
        <g id="Graphic_22">
          <path d="M 435.14547 454.78244 L 435.35975 466.7825 L 440.71693 466.7825 C 445.7884 466.7825 446.0741 466.7111 446.0027 465.13965 C 446.0027 464.2825 445.93125 458.9253 445.8598 453.211 L 445.71696 442.8538 L 440.3598 442.8538 L 435.0026 442.8538 Z" fill="url(#Obj_Gradient_21)"/>
        </g>
        <g id="Graphic_21">
          <path d="M 401.57384 452.28243 L 401.78812 458.21104 L 404.931 458.4253 C 406.71673 458.5682 408.8596 458.49675 409.78817 458.21104 C 411.43104 457.8539 411.50247 457.5682 411.2882 452.28243 L 411.0739 446.7824 L 406.2167 446.5681 L 401.35955 446.3538 Z" fill="url(#Obj_Gradient_22)"/>
        </g>
        <g id="Graphic_20">
          <path d="M 586.9321 447.5681 C 586.0035 448.4967 586.36066 457.6396 587.3607 458.4253 C 587.9321 458.9253 589.8607 459.0682 592.3607 458.78247 L 596.5036 458.3539 L 596.2893 452.9253 L 596.075 447.4967 L 591.7893 447.2824 C 589.3607 447.13954 587.2178 447.2824 586.9321 447.5681 Z" fill="url(#Obj_Gradient_23)"/>
        </g>
        <g id="Graphic_19">
          <path d="M 469.78853 453.35386 C 469.0028 454.06815 469.2171 463.42535 470.0028 463.92536 C 471.1457 464.63965 476.5743 465.13965 478.36 464.63965 C 479.93145 464.2825 480.0029 463.92536 480.0029 458.5682 L 480.0029 452.85386 L 475.1457 452.85386 C 472.4314 452.85386 470.0028 453.06815 469.78853 453.35386 Z" fill="url(#Obj_Gradient_24)"/>
        </g>
        <g id="Graphic_18">
          <path d="M 493.5744 458.49675 L 493.5744 464.21107 L 497.503 464.63965 C 503.4316 465.42536 503.57445 465.2111 503.57445 458.5682 L 503.57445 452.85386 L 498.5744 452.85386 L 493.5744 452.85386 Z" fill="url(#Obj_Gradient_25)"/>
        </g>
        <g id="Graphic_17">
          <path d="M 516.4317 458.5682 L 516.4317 464.21107 L 518.7888 464.63964 C 520.07455 464.92536 522.4317 464.9968 523.9317 464.85393 L 526.7889 464.63964 L 527.00316 458.71104 L 527.21745 452.85386 L 521.78884 452.85386 L 516.4317 452.85386 Z" fill="url(#Obj_Gradient_26)"/>
        </g>
        <g id="Graphic_16">
          <path d="M 401.931 466.9254 C 401.78812 467.2825 401.85955 469.9254 402.07384 472.854 L 402.5024 478.21116 L 407.1453 478.21116 L 411.7882 478.21116 L 412.00247 472.28255 L 412.21676 466.42537 L 407.21673 466.42537 C 404.50243 466.42537 402.07384 466.63966 401.931 466.9254 Z" fill="url(#Obj_Gradient_27)"/>
        </g>
        <g id="Graphic_15">
          <path d="M 586.4321 472.4254 C 586.4321 479.13973 586.5035 479.2826 591.8607 479.2826 L 596.43215 479.2826 L 596.43215 473.56827 L 596.43215 467.85395 L 591.4321 467.85395 L 586.4321 467.85395 Z" fill="url(#Obj_Gradient_28)"/>
        </g>
        <g id="Graphic_14">
          <path d="M 475.71714 493.0684 L 475.71714 510.49706 L 485.4315 510.99707 C 490.8601 511.2828 495.503 511.21135 495.8601 510.8542 C 496.14583 510.5685 496.3601 502.56844 496.2887 493.1398 L 496.0744 476.0683 L 485.9315 475.854 L 475.71714 475.6397 Z" fill="url(#Obj_Gradient_29)"/>
        </g>
        <g id="Graphic_13">
          <path d="M 500.7173 493.21124 C 500.7173 502.85416 500.9316 510.71135 501.2887 510.71135 C 501.57444 510.71135 506.00304 510.7828 511.0745 510.7828 L 520.36026 510.8542 L 520.28884 504.9256 C 520.28884 501.63987 520.146 493.71125 520.146 487.28264 L 520.0031 475.71114 L 510.3602 475.71114 L 500.7173 475.71114 Z" fill="url(#Obj_Gradient_30)"/>
        </g>
        <g id="Graphic_12">
          <path d="M 553.0033 488.3541 L 553.2176 500.35415 L 558.0748 500.56843 L 562.8605 500.7827 L 562.8605 488.56836 L 562.8605 476.42543 L 557.8605 476.42543 L 552.86046 476.42543 Z" fill="url(#Obj_Gradient_31)"/>
        </g>
        <g id="Graphic_11">
          <path d="M 435.0026 489.28265 L 435.0026 501.4256 L 440.3598 501.4256 L 445.71696 501.4256 L 445.71696 489.28265 L 445.71696 477.1397 L 440.3598 477.1397 L 435.0026 477.1397 Z" fill="url(#Obj_Gradient_32)"/>
        </g>
        <g id="Graphic_10">
          <path d="M 402.2167 487.78264 C 401.5024 488.28264 401.431 489.49694 401.85955 493.6398 L 402.5024 498.92557 L 407.1453 498.92557 L 411.7882 498.92557 L 411.7882 493.21125 L 411.7882 487.4969 L 407.50244 487.28264 C 405.1453 487.2112 402.78813 487.4255 402.2167 487.78264 Z" fill="url(#Obj_Gradient_33)"/>
        </g>
        <g id="Graphic_9">
          <path d="M 586.4321 494.0684 C 586.4321 497.13984 586.7178 500.0684 587.07495 500.56843 C 587.4321 501.2113 588.9321 501.4256 591.8607 501.2827 L 596.075 501.06844 L 596.2893 494.7827 L 596.5036 488.56836 L 591.4321 488.56836 L 586.4321 488.56836 Z" fill="url(#Obj_Gradient_34)"/>
        </g>
        <g id="Graphic_8">
          <path d="M 367.85935 564.2831 L 367.85935 571.56886 L 375.0737 571.28314 C 381.93086 571.06886 382.35944 570.9974 384.0023 569.06884 C 385.7166 567.0688 386.2166 563.64024 385.28803 561.0688 C 384.4309 558.99735 380.5737 557.6402 374.1451 557.28306 L 367.85935 556.9259 Z" fill="url(#Obj_Gradient_35)"/>
        </g>
        <g id="Graphic_7">
          <path d="M 368.2165 582.9975 C 367.9308 585.4975 367.85935 589.4261 368.0022 591.7833 L 368.2165 596.069 L 372.35938 596.2833 C 378.50227 596.569 384.14516 595.21186 386.57375 592.8547 C 390.50234 588.9261 388.7166 581.7118 383.35944 580.14034 C 382.14515 579.71176 378.288 579.21176 374.8594 578.92605 L 368.7165 578.4975 Z" fill="url(#Obj_Gradient_36)"/>
        </g>
        <g id="Graphic_6">
          <path d="M 460.6456 561.92594 C 460.6456 563.0688 459.5742 567.426 458.28846 571.78315 C 457.00274 576.0689 456.217 579.8546 456.57417 580.0689 C 456.8599 580.2832 459.50276 580.42605 462.3599 580.42605 C 467.4314 580.3546 467.5028 580.3546 467.2885 578.5689 C 467.0028 575.7832 461.8599 559.99736 461.2885 559.99736 C 460.93134 559.99736 460.71705 560.8545 460.6456 561.92594 Z" fill="url(#Obj_Gradient_37)"/>
        </g>
        <g id="Graphic_5">
          <path d="M 575.8606 576.49746 L 576.0749 596.069 L 580.0035 595.8547 C 588.7178 595.42614 594.71785 591.4261 596.5036 584.85465 C 597.5036 581.0689 597.5036 570.35457 596.5036 567.7117 C 595.43214 564.92596 590.7178 559.9259 588.07496 558.8545 C 586.86066 558.28306 583.5035 557.6402 580.7178 557.4259 L 575.71774 556.9259 Z" fill="url(#Obj_Gradient_38)"/>
        </g>
        <g id="Graphic_4">
          <path d="M 364.14504 630.8549 C 364.0022 633.7121 364.0736 637.355 364.2879 638.9264 C 364.5736 641.355 364.93076 641.7836 366.5022 641.99785 C 369.5022 642.355 372.8594 637.9978 372.8594 633.85495 C 372.8594 630.2835 371.4308 626.8549 369.64508 626.1406 C 369.0022 625.9263 367.57363 625.71204 366.43077 625.71204 C 364.43076 625.71204 364.43076 625.71204 364.14504 630.8549 Z" fill="url(#Obj_Gradient_39)"/>
        </g>
        <g id="Graphic_3">
          <path d="M 565.2891 625.5692 C 562.1462 627.71205 561.0748 635.06924 563.21766 639.28355 C 564.5034 641.7836 567.2891 642.71214 569.7177 641.4264 C 572.0034 640.1407 573.8606 635.06924 573.2177 631.7121 C 572.432 627.3549 567.86055 623.78346 565.2891 625.5692 Z" fill="url(#Obj_Gradient_40)"/>
        </g>
      </g>
    </g>
  </g>
</svg>
