<?xml version="1.0" encoding="UTF-8" standalone="no"?>
<!DOCTYPE svg PUBLIC "-//W3C//DTD SVG 1.1//EN" "http://www.w3.org/Graphics/SVG/1.1/DTD/svg11.dtd">
<svg xmlns:dc="http://purl.org/dc/elements/1.1/" xmlns="http://www.w3.org/2000/svg" xmlns:xl="http://www.w3.org/1999/xlink" version="1.1" viewBox="-50 -221 981 996" width="981" height="996">
  <defs/>
  <metadata> Produced by OmniGraffle 7.18.5\n2023-06-06 09:22:19 +0000</metadata>
  <g id="Canvas_1" fill-opacity="1" fill="none" stroke-dasharray="none" stroke-opacity="1" stroke="none">
    <title>Canvas 1</title>
    <g id="Canvas_1_Layer_1">
      <title>Layer 1</title>
      <g id="Group_65">
        <g id="Graphic_127">
          <path d="M 5.733713 -220.175 C 4.933713 -219.675 2.733713 -219.175 .9337129 -219.175 C -6.766287 -219.175 -16.266287 -211.375 -21.966287 -200.375 C -26.766287 -191.275 -26.566287 -191.075 -10.766287 -191.475 C 3.633713 -191.775 5.433713 -192.375 5.933713 -196.975 C 6.433713 -201.275 10.233713 -201.175 12.833713 -196.775 L 14.933713 -193.175 L 30.233713 -193.175 C 48.033713 -193.175 49.13371 -192.675 45.633713 -186.575 C 42.933713 -181.675 41.333713 -180.575 35.433713 -179.175 C 30.133713 -177.875 28.833713 -176.675 31.733713 -175.875 C 32.833713 -175.575 33.733713 -174.775 33.733713 -173.975 C 33.733713 -171.275 29.633713 -166.075 26.733713 -164.975 C 25.033713 -164.475 23.733713 -163.275 23.733713 -162.375 C 23.733713 -161.075 25.233713 -160.975 35.533713 -161.475 C 41.933713 -161.875 48.233713 -162.475 49.43371 -162.775 C 52.83371 -163.675 53.23371 -161.175 50.53371 -155.575 C 47.333713 -148.675 42.433713 -146.475 28.333713 -145.575 C 17.333713 -144.875 14.733713 -143.875 19.133713 -142.175 C 24.033713 -140.375 25.233713 -136.875 25.233713 -124.375 C 25.233713 -114.275 25.033713 -112.875 23.333713 -111.575 C 19.333713 -108.775 17.833713 -110.575 16.433713 -119.475 L 15.233713 -127.175 L 12.433713 -125.275 L 9.533713 -123.475 L 12.233713 -122.775 C 16.833713 -121.575 14.233713 -118.775 7.633713 -117.675 C 4.833713 -117.275 3.933713 -116.575 2.933713 -113.875 C 2.133713 -111.675 .033712907 -109.675 -3.466287 -107.575 C -9.066287 -104.175 -11.266287 -104.175 -11.266287 -107.575 C -11.266287 -110.375 -7.666287 -116.175 -5.866287 -116.175 C -3.866287 -116.175 -3.266287 -118.275 -2.566287 -128.275 C -2.066287 -135.975 -1.666287 -137.575 .5337129 -139.675 C 1.933713 -141.075 3.633713 -142.175 4.433713 -142.175 C 5.233713 -142.175 5.733713 -142.875 5.533713 -143.975 C 5.133713 -146.275 -5.366287 -147.475 -18.366287 -146.675 C -28.866287 -145.975 -29.766287 -146.375 -30.866287 -151.875 C -31.766287 -156.375 -29.366287 -158.275 -23.666287 -157.475 C -18.866287 -156.875 -4.266287 -158.975 -4.266287 -160.275 C -4.266287 -161.275 -10.866287 -163.175 -14.466287 -163.175 C -16.066287 -163.175 -18.266287 -164.175 -19.366287 -165.275 C -21.166287 -167.075 -21.366287 -168.175 -20.866287 -171.875 C -20.366287 -175.675 -20.666287 -176.875 -23.066287 -179.975 C -26.266287 -184.275 -27.266287 -185.175 -29.266287 -185.175 C -30.966287 -185.175 -32.066287 -182.975 -35.566287 -172.175 C -39.666287 -159.775 -40.166287 -156.475 -41.266287 -136.275 C -41.866287 -125.575 -42.566287 -116.475 -42.866287 -115.975 C -43.166287 -115.575 -43.566287 -111.975 -43.766287 -107.975 C -44.166287 -101.375 -45.266287 -97.075 -45.266287 -101.975 C -45.266287 -103.175 -45.666287 -104.175 -46.266287 -104.175 C -46.766287 -104.175 -47.266287 -103.075 -47.266287 -101.675 C -47.266287 -100.275 -46.666287 -99.175 -45.966287 -99.175 C -45.166287 -99.175 -44.066287 -97.975 -43.366287 -96.575 C -42.366287 -94.275 -42.566287 -93.075 -44.466287 -88.275 C -45.766287 -85.175 -47.066287 -82.475 -47.366287 -82.175 C -47.666287 -81.875 -48.466287 -78.775 -49.16629 -75.175 C -50.86629 -66.475 -49.76629 -32.775 -47.666287 -30.775 C -46.966287 -29.975 -45.366287 -27.075 -44.266287 -24.175 C -36.566287 -4.575 -23.866287 8.725 -8.766287 12.925 C -2.466287 14.625 12.833713 14.725 18.733713 13.025 C 26.533713 10.725 34.033713 6.525 38.933713 1.825 C 41.533713 -.675 45.533713 -4.175 47.733713 -6.075 C 49.93371 -7.875 51.73371 -9.775 51.73371 -10.175 C 51.73371 -10.575 49.63371 -10.475 47.033713 -10.075 C 41.833713 -9.075 28.833713 -10.475 22.733713 -12.775 C 20.833713 -13.475 14.033713 -15.875 7.733713 -18.075 C -6.866287 -23.375 -13.266287 -26.575 -16.866287 -30.275 C -21.466287 -35.075 -18.966287 -35.875 -9.666287 -32.675 C -1.4662871 -29.875 7.333713 -28.575 24.233713 -27.675 C 42.533713 -26.675 57.13371 -24.975 58.93371 -23.475 C 60.33371 -22.175 60.73371 -22.575 62.73371 -27.875 C 67.63371 -40.775 68.33371 -54.775 65.73371 -85.175 C 65.13371 -93.175 64.83371 -102.775 65.23371 -106.675 C 65.63371 -110.575 66.03371 -118.075 66.13371 -123.475 C 66.13371 -129.775 66.63371 -133.475 67.43371 -133.975 C 71.23371 -136.275 71.83371 -149.775 68.73371 -163.675 C 67.63371 -168.675 66.33371 -174.375 65.83371 -176.575 C 65.33371 -178.875 63.83371 -181.375 62.13371 -182.775 C 60.03371 -184.475 59.53371 -185.375 60.43371 -185.975 C 61.43371 -186.575 61.23371 -187.975 59.63371 -192.175 C 56.23371 -201.075 54.73371 -203.475 48.533713 -209.375 C 42.033713 -215.675 40.033713 -216.475 27.233713 -218.175 C 22.833713 -218.775 17.033713 -219.675 14.233713 -220.175 C 7.733713 -221.275 7.533713 -221.275 5.733713 -220.175 Z M 47.533713 -100.675 C 51.93371 -98.675 52.83371 -97.775 52.53371 -95.975 C 52.33371 -94.475 50.83371 -92.975 48.233713 -91.775 C 44.833713 -90.075 41.633713 -89.775 25.033713 -89.475 L 5.833713 -89.175 L 3.133713 -92.675 C 1.1337129 -95.375 .7337129 -96.475 1.633713 -97.475 C 3.633713 -99.975 20.433713 -102.775 34.733713 -103.075 C 40.733713 -103.175 43.233713 -102.675 47.533713 -100.675 Z M 44.733713 -84.175 C 47.133713 -81.775 47.333713 -78.975 45.333713 -75.875 C 44.533713 -74.675 43.133713 -71.475 42.233713 -68.675 C 41.233713 -65.975 39.833713 -62.975 39.033713 -62.075 C 37.933713 -60.675 37.833713 -60.175 38.933713 -59.075 C 42.833713 -54.875 42.933713 -54.375 41.733713 -48.975 C 39.633713 -39.675 39.433713 -39.575 32.033713 -37.275 C 28.333713 -36.175 21.133713 -35.075 16.033713 -34.775 C 4.033713 -34.175 3.933713 -34.275 4.133713 -48.175 C 4.433713 -64.875 5.833713 -77.475 7.433713 -79.375 C 8.833713 -80.975 18.933713 -84.575 24.733713 -85.475 C 26.133713 -85.675 30.733713 -85.975 35.033713 -86.075 C 41.533713 -86.175 43.033713 -85.875 44.733713 -84.175 Z M -13.766287 -79.875 C -11.266287 -77.475 -9.266287 -75.075 -9.266287 -74.475 C -9.266287 -72.675 -20.366287 -63.075 -24.766287 -61.075 C -28.166287 -59.575 -28.966287 -59.475 -30.166287 -60.675 C -31.366287 -61.875 -31.166287 -62.875 -28.766287 -67.575 C -26.466287 -72.075 -26.166287 -73.375 -27.166287 -74.575 C -28.666287 -76.375 -27.966287 -79.075 -25.166287 -81.975 C -22.066287 -85.375 -18.866287 -84.775 -13.766287 -79.875 Z M -15.866287 -55.775 C -11.466287 -53.975 -10.866287 -52.775 -12.166287 -48.875 C -14.066287 -43.175 -25.166287 -34.175 -28.666287 -35.475 C -31.266287 -36.475 -30.466287 -38.375 -25.266287 -43.575 C -22.566287 -46.275 -20.466287 -48.675 -20.566287 -48.875 C -20.766287 -49.075 -22.366287 -48.475 -24.166287 -47.575 C -27.366287 -45.975 -30.266287 -46.275 -30.266287 -48.175 C -30.266287 -50.075 -23.066287 -57.175 -21.166287 -57.175 C -20.066287 -57.175 -17.666287 -56.575 -15.866287 -55.775 Z" fill="#ee1820"/>
        </g>
        <g id="Graphic_126">
          <path d="M 310.2 46.825 C 308.4 50.725 306.9 52.825 305.8 52.825 C 304.9 52.825 303.9 53.725 303.5 54.725 C 303.1 56.225 301.1 57.125 295.4 58.425 C 291.2 59.325 288.1 60.525 288.3 61.125 C 288.5 61.725 291.4 62.925 294.9 63.925 C 300.8 65.625 301.4 65.625 304.6 64.025 C 307.7 62.625 308.2 62.625 309 63.825 C 309.6 64.625 310 66.125 310 67.025 C 310 69.425 311.6 70.125 314 68.625 C 316.5 67.025 316.5 66.325 314 63.125 L 312 60.625 L 314.3 57.725 C 315.5 56.125 317.6 53.425 319 51.625 C 321.7 48.225 322.5 45.725 320.6 46.425 C 320 46.625 318.9 45.525 318.3 43.825 C 317.5 41.725 316.5 40.825 315 40.825 C 313.3 40.825 312.2 42.125 310.2 46.825 Z" fill="#ee1820"/>
        </g>
        <g id="Graphic_125">
          <path d="M 427.3 106.325 C 427 107.225 427.7 110.325 428.8 113.325 C 430.1 116.525 430.5 119.025 430 119.325 C 429.4 119.725 429 121.125 429 122.625 C 429 124.025 427.2 127.825 424.9 131.125 C 420.5 137.425 420.4 139.325 424.8 136.525 C 426.3 135.525 429.4 133.825 431.8 132.825 C 434.6 131.525 436 130.225 436 128.925 C 436 126.225 438.8 125.525 440.2 127.825 C 441.8 130.425 444.2 130.325 445.8 127.725 C 446.9 125.925 446.9 125.425 445.3 124.225 C 444.3 123.525 442.8 122.825 441.9 122.825 C 439.9 122.825 438.4 120.925 438.3 118.325 C 438.1 115.125 436.4 111.425 433.5 108.025 C 430.6 104.525 428.3 103.925 427.3 106.325 Z" fill="#ee1820"/>
        </g>
        <g id="Graphic_124">
          <path d="M 340.7 145.625 C 339.8 145.825 336.7 148.425 333.8 151.425 C 331 154.425 328 156.825 327.1 156.825 C 326.2 156.825 324.2 158.125 322.7 159.825 C 321.1 161.425 319.3 162.825 318.7 162.925 C 316 163.025 321.8 164.725 325.2 164.725 C 327.7 164.825 329.3 165.425 330.3 166.925 C 331.5 168.525 332.6 168.925 335.6 168.625 C 339.2 168.325 339.5 168.125 339.5 165.325 C 339.5 163.025 339 162.225 337.3 162.025 C 334.5 161.625 334.4 159.525 336.9 155.925 C 338.1 154.325 338.7 152.325 338.4 151.125 C 337.7 148.625 339 147.625 341 148.925 C 342.3 149.725 342.3 149.925 341 150.725 C 339.3 151.825 340.3 153.325 342.2 152.525 C 343.7 152.025 344.5 146.225 343.3 145.525 C 342.8 145.325 341.7 145.325 340.7 145.625 Z" fill="#ee1820"/>
        </g>
        <g id="Graphic_123">
          <path d="M 484.6 149.025 C 483.7 150.225 483 152.225 483 153.325 C 483 157.425 481.7 159.725 479 160.825 C 475.7 162.225 472.4 165.525 473.3 166.525 C 473.7 166.825 475.2 166.525 476.7 165.725 C 479.6 164.225 486.8 163.925 494.3 165.025 L 499.1 165.825 L 495.6 161.625 C 493 158.625 492 156.525 492 154.125 C 492 150.925 489.2 146.825 487.1 146.825 C 486.5 146.825 485.4 147.825 484.6 149.025 Z" fill="#ee1820"/>
        </g>
        <g id="Graphic_122">
          <path d="M 500.7 171.125 C 499.7 173.625 493.4 175.825 487 175.825 C 482.2 175.825 479.7 175.225 476 173.225 L 471.1 170.625 L 468.1 173.425 C 464.7 176.725 463.2 184.325 466 184.325 C 468.5 184.325 469 186.025 469 195.325 C 469 205.125 468.3 209.125 466.8 208.225 C 466.3 207.925 464.8 208.625 463.5 209.825 C 462.1 211.125 459.5 212.125 457 212.425 C 451.5 212.925 451 213.325 451 217.225 C 451 221.525 451.7 222.025 455.1 220.225 C 456.7 219.425 459.3 218.925 461 219.025 C 463.5 219.225 464.6 218.625 466.6 216.025 C 469.5 212.325 470.6 212.025 471.5 214.825 C 472.3 217.425 473.7 216.525 475.5 212.225 C 477.3 207.825 478.6 207.925 480.5 212.425 C 481.9 215.825 482.2 216.025 485.5 215.425 C 488.2 214.925 490.5 215.425 495.1 217.425 C 500.4 219.825 501.6 220.025 504.2 219.025 C 506.1 218.325 507.9 218.225 508.9 218.725 C 510 219.425 510.7 219.025 511.5 217.525 C 512.8 214.825 514.4 214.425 516.3 216.325 C 518.4 218.425 520 218.225 520 215.925 C 520 214.025 515.7 211.825 511.9 211.825 C 509.3 211.825 503.8 206.825 504.5 205.025 C 505.7 201.925 508.1 181.225 507.6 178.525 C 507 175.725 503.2 169.825 501.9 169.825 C 501.5 169.825 501 170.425 500.7 171.125 Z" fill="#ee1820"/>
        </g>
        <g id="Graphic_121">
          <path d="M 580.5 199.825 C 580.2 200.325 580.1 201.225 580.4 201.625 C 581.1 202.725 580 204.125 576.2 206.725 C 572 209.725 570.3 212.625 572.5 213.425 C 575.2 214.525 586.1 209.625 587.1 207.025 C 588.2 204.125 591.1 204.425 592.5 207.625 C 593 208.825 593.8 209.825 594.1 209.825 C 595.2 209.825 596.8 207.425 597.5 204.625 C 598 202.525 597.8 201.925 596 201.325 C 594.8 200.925 593.6 200.825 593.3 201.125 C 593.1 201.425 591 201.025 588.8 200.225 C 584 198.625 581.4 198.425 580.5 199.825 Z" fill="#ee1820"/>
        </g>
        <g id="Graphic_120">
          <path d="M 468.5 230.525 C 448.8 232.125 411 243.925 411 248.525 C 411 250.425 411.6 250.225 420.5 245.825 C 429.9 241.225 444.8 237.225 458 235.825 C 477.9 233.725 486.3 235.225 468.7 237.825 C 463.3 238.525 459.1 239.725 457.7 240.825 C 454.8 243.225 455.9 244.125 459.9 242.725 C 461.7 242.125 464.8 241.825 467 242.225 C 469.5 242.625 471.8 242.325 473.6 241.325 C 475.2 240.525 478.2 239.825 480.2 239.825 C 484.4 239.825 485.7 238.625 483.4 236.825 C 481.2 234.925 483.4 233.825 489.5 233.825 C 495.6 233.825 498.2 235.125 495.4 236.625 C 494.4 237.225 493.9 238.025 494.3 238.425 C 497.3 241.525 518.5 243.425 518.5 240.725 C 518.5 238.825 512.6 236.925 506 236.725 C 501.7 236.625 501.2 236.425 503.5 235.925 C 508.7 234.825 526.5 236.625 537.1 239.325 C 542.7 240.725 551.2 243.725 555.9 245.925 C 561.7 248.625 564.7 249.525 565.4 248.825 C 567 247.225 564.4 245.425 554.5 241.425 C 542.9 236.825 525.1 232.325 512.8 230.925 C 503.9 229.925 478.3 229.725 468.5 230.525 Z" fill="#ee1820"/>
        </g>
        <g id="Graphic_119">
          <path d="M 476.5 259.425 C 458.1 260.725 436.6 265.125 418.2 271.425 C 398.1 278.325 384.6 285.125 373.5 293.925 C 363.7 301.725 269.1 398.225 212.5 458.225 C 205.4 465.725 197.4 473.525 194.8 475.525 C 190 479.025 188.6 481.825 191.6 481.825 C 193.5 481.825 221.3 454.625 305.5 370.225 C 382.8 292.825 386.6 289.725 413.4 281.325 C 419.7 279.325 427.8 275.925 431.5 273.625 C 437.6 270.025 438.6 269.725 442.9 270.325 C 446.3 270.825 450.7 270.225 459 268.325 C 477.8 263.925 481.6 263.525 484.5 265.425 C 485.8 266.225 487.3 266.725 487.8 266.425 C 488.3 266.125 494.8 266.325 502.2 266.825 C 527.2 268.625 559.5 277.025 579 286.825 C 596.5 295.525 612.6 309.925 659.4 358.525 C 665.9 365.325 671.8 370.825 672.5 370.825 C 674.1 370.825 676.3 368.225 675.8 366.925 C 675.1 364.825 618.7 307.825 609.5 299.925 C 594 286.525 589.7 283.725 573.9 276.725 C 557.6 269.525 542.4 265.125 522.3 261.925 C 510.8 260.025 486.6 258.725 476.5 259.425 Z" fill="#ee1820"/>
        </g>
        <g id="Graphic_118">
          <path d="M 479.5 276.025 C 459.6 278.525 436.6 282.125 429.8 283.825 C 415.8 287.325 391.1 298.325 383.7 304.525 L 380.8 306.825 L 383.5 306.825 C 385.3 306.825 386.4 307.425 386.7 308.825 C 387.4 311.525 388.2 311.325 398 306.525 C 405.7 302.725 406.6 302.025 407.5 298.625 C 408.9 293.625 409.3 293.325 418.5 289.925 C 427 286.925 429 286.925 429 289.825 C 429 290.825 429.3 291.925 429.8 292.125 C 430.2 292.425 434.4 291.625 439.2 290.325 C 446.1 288.625 448.8 287.325 452 284.425 C 454.2 282.425 456.4 280.825 456.8 280.825 C 458.2 280.825 460 283.225 460 285.125 C 460 286.625 460.4 286.825 461.8 286.225 C 462.7 285.725 468.5 285.125 474.5 284.825 C 485 284.325 485.5 284.225 485.8 282.025 C 486.2 279.225 489.3 279.125 491.1 281.825 C 492.3 283.625 494 284.025 503.3 284.625 C 509.2 285.025 514 285.025 514 284.625 C 514 284.125 514.9 282.925 516 281.825 C 518.3 279.525 520.1 279.925 525.4 284.425 C 527.9 286.625 531.2 288.125 534.9 288.925 C 538 289.625 541.3 290.525 542.4 291.125 C 543.8 291.825 544.8 291.425 546.9 289.425 L 549.7 286.725 L 557.7 289.325 C 566.4 292.025 567.3 292.725 568.4 297.225 C 569.4 301.325 574.9 306.325 580.6 308.225 C 587 310.425 588.8 310.225 589.2 307.625 C 589.4 306.325 590.3 305.225 591.3 305.025 C 594 304.525 600.6 309.525 602 313.125 C 604.4 319.625 605.4 320.725 611.5 324.325 C 615.1 326.325 622.8 332.925 629.5 339.425 C 640 349.625 643.8 352.725 642.8 349.925 C 642.7 349.325 634.3 340.625 624.2 330.425 C 604.7 310.625 594.9 303.125 578.5 295.025 C 558.6 285.225 529.5 277.725 506 276.325 C 500.8 276.025 494.3 275.625 491.5 275.425 C 488.8 275.225 483.4 275.525 479.5 276.025 Z" fill="#ee1820"/>
        </g>
        <g id="Graphic_117">
          <path d="M 465.5 297.425 C 437.2 300.825 406.9 308.725 387.2 317.925 C 366.3 327.725 358.3 334.125 319.5 371.925 C 310.7 380.525 298.1 392.625 291.5 398.925 C 284.9 405.225 273.2 416.425 265.5 423.825 C 257.8 431.225 246.8 441.825 241 447.325 C 235.2 452.925 223.5 464.225 215 472.425 C 193.5 493.325 187.3 498.825 185.2 498.825 C 184.1 498.825 182.5 499.825 181.4 500.925 C 178.3 504.425 168.1 511.825 166.5 511.825 C 165.6 511.825 165 512.725 165 514.025 C 165 515.525 163.8 517.125 161.9 518.325 C 160.3 519.425 158.3 521.725 157.5 523.525 C 156.1 526.825 148.1 533.425 144.2 534.425 C 143 534.725 141.7 536.125 141.4 537.325 C 140.7 540.225 136.5 544.225 135.1 543.425 C 134.6 543.025 134.3 542.125 134.7 541.325 C 135 540.425 134.6 539.825 133.9 539.825 C 132.3 539.825 115 557.425 115 559.025 C 115 559.625 115.8 559.425 116.8 558.525 C 117.8 557.525 119.1 556.825 119.7 556.825 C 120.2 556.825 121.7 555.725 123 554.325 C 125.6 551.525 131.4 550.925 134.3 553.025 C 135.8 554.225 135.8 555.125 134.1 565.325 C 133 571.325 131.4 584.625 130.5 594.825 C 128.3 617.625 126.1 622.525 121.9 613.825 L 120.3 610.425 L 119.5 613.725 C 118.9 616.325 119.2 617.425 121 619.025 C 122.7 620.625 122.9 621.325 121.9 622.425 C 120.5 624.125 117.8 624.225 116.2 622.625 C 115.3 621.725 114.4 621.725 112.5 622.625 C 111.1 623.325 108.7 623.825 107.3 623.825 C 105.8 623.825 103.6 624.825 102.3 625.925 C 100.5 627.725 99.8 627.925 98.5 626.825 C 97.7 626.125 97 625.025 97 624.425 C 97 623.825 95.3 622.425 93.2 621.325 L 89.5 619.325 L 89.5 612.625 C 89.5 604.925 88.6 603.425 86.1 606.725 C 83.7 609.925 81.6 608.625 82.4 604.425 C 82.8 602.725 83.1 600.625 83 599.825 C 82.5 577.725 82.6 578.025 80.2 575.625 C 77.6 572.825 77.5 572.025 79.4 569.925 C 82.4 566.625 81.8 565.425 77.3 565.725 C 73.3 565.925 72.9 565.725 70.9 562.425 C 68.8 558.825 67 557.725 67 560.025 C 67 560.725 67.9 562.625 69 564.325 C 72.9 570.125 70.7 577.025 66 574.025 C 65 573.425 63.3 573.225 62.2 573.525 C 60.6 573.925 59.8 573.125 58.2 569.525 C 56.3 565.325 56.2 563.325 56.7 540.725 C 56.9 527.325 56.8 514.825 56.5 513.025 C 56 510.025 55.6 509.825 52 509.825 C 47.9 509.825 46 511.625 46 515.725 C 46 517.725 44 520.325 41.9 521.025 C 40.6 521.425 39.1 542.825 38.9 564.625 C 38.8 580.225 38.9 581.125 41 583.325 C 42.5 584.925 43.1 586.525 42.8 588.225 C 42.4 590.125 42.9 591.225 44.6 592.325 C 47.1 593.925 57 605.925 59 609.725 C 60.1 611.925 60 612.425 58.1 613.625 C 57 614.425 56 615.825 56 616.825 C 56 619.725 53.2 621.125 46.2 621.725 C 38.5 622.425 39 621.325 39 636.325 C 39 640.725 38.7 644.825 38.2 645.425 C 37.8 645.925 35.8 647.425 33.8 648.725 C 31.7 649.925 30 651.425 30 651.925 C 30 652.425 29.1 652.825 28 652.825 C 26.8 652.825 26 653.525 26 654.525 C 26 655.425 24.1 658.025 21.7 660.325 C 17.8 664.025 17.1 664.325 14.1 663.525 C 12.2 663.125 9.6 663.125 8.1 663.625 C 6.7 664.125 4.3 664.125 2.7 663.725 C 1.2 663.325 5684342e-20 663.325 5684342e-20 663.625 C .1 664.825 8.6 670.825 10.2 670.825 C 11 670.825 12.5 671.725 13.6 672.925 C 16.1 675.725 20.3 677.825 23.4 677.825 C 24.8 677.825 26.8 678.725 27.9 679.925 L 29.8 682.025 L 32.9 678.725 C 35.8 675.425 35.9 674.925 36 666.025 C 36 658.525 36.3 656.825 37.5 656.825 C 38.8 656.825 39 659.125 39 671.825 C 39 689.325 38.2 688.225 51.4 689.425 C 59.7 690.125 61.6 691.425 60.6 695.325 C 60 697.625 60.2 697.825 63.3 697.825 C 65.3 697.825 67.2 698.625 68.3 699.825 C 69.5 701.325 71.2 701.825 74.8 701.825 C 77.5 701.825 83.2 702.125 87.5 702.525 L 95.2 703.125 L 94.6 694.725 C 94.2 690.125 94.3 684.325 94.7 681.825 C 95.4 677.925 95.9 677.325 98.3 677.025 C 100.8 676.725 101 676.925 101 680.225 C 101 684.725 102.4 684.825 104.5 680.425 C 106.2 676.925 108.4 675.325 110.2 676.425 C 110.7 676.825 112 678.925 113 681.225 L 114.7 685.325 L 116.3 681.825 C 117.2 679.925 118.1 677.525 118.4 676.525 C 118.7 675.625 119.9 674.825 121 674.825 C 122.5 674.825 123.8 676.425 126.1 681.525 C 129 687.925 129.2 688.725 128.5 696.425 C 128.1 701.725 128.2 704.825 128.9 705.225 C 129.4 705.625 133.5 706.425 137.9 707.025 C 145.2 708.125 146.1 708.025 147.9 706.425 C 150.6 703.925 153.4 705.025 152.6 708.225 C 152.2 709.925 152.5 710.825 153.8 711.325 C 156.8 712.625 195.1 713.625 201.7 712.625 C 205.1 712.125 211.9 711.925 216.7 712.325 C 221.6 712.625 262.9 713.125 308.7 713.425 C 382.4 713.825 392.2 713.725 394.3 712.425 C 396.7 710.825 403.4 710.025 432.4 707.725 C 452.2 706.225 452.6 705.925 453.6 694.625 C 454.4 685.525 453.7 681.825 451.1 681.825 C 450.1 681.825 448.1 680.925 446.6 679.725 C 444.3 677.925 444 677.025 444 671.325 C 444 664.125 445.7 655.125 447.1 654.225 C 447.7 653.925 449.5 654.225 451.1 654.825 C 453.5 655.825 454.6 655.825 456.6 654.725 C 458.9 653.525 459.3 653.725 461.5 656.125 C 463 657.625 465.5 659.025 467.7 659.325 C 469.8 659.625 474 661.125 477.1 662.525 L 482.8 665.125 L 491.1 663.525 C 504.4 661.025 505.4 660.925 507.3 662.025 C 508.3 662.525 509.6 664.125 510.2 665.625 C 511.3 668.225 511.3 668.125 512.4 662.925 C 513.7 656.525 515.9 654.525 518.8 657.125 C 520.9 659.025 520.4 659.825 524.1 649.825 C 525.4 646.325 527 646.025 529.6 648.925 C 531.3 650.825 531.6 653.125 532 669.025 L 532.5 687.025 L 534.8 684.525 C 537.1 682.125 537.1 681.925 535.4 679.325 C 534 677.225 533.7 674.825 533.9 668.025 C 534.2 657.625 536 652.525 539.2 653.025 L 541.5 653.325 L 541.5 674.725 C 541.5 689.125 541.1 696.325 540.4 696.525 C 539.8 696.725 537.7 695.725 535.7 694.425 L 532 691.925 L 532 695.825 C 532 698.425 532.7 700.625 534.3 702.425 L 536.7 705.125 L 541.1 703.425 C 544.4 702.125 546.8 701.825 551.2 702.325 C 558.5 703.225 558.8 702.625 556.7 690.525 C 554.1 675.825 553.6 668.325 555.3 667.025 C 557.3 665.325 569.8 661.625 572.3 662.025 C 573.6 662.225 575.1 663.625 576 665.525 C 576.8 667.325 578 668.825 578.7 668.825 C 581 668.825 581.7 672.225 582.3 684.325 C 582.5 690.925 583.1 697.125 583.5 698.125 C 583.9 699.125 585.6 700.625 587.2 701.425 C 589.8 702.825 591.2 702.825 599.8 701.425 C 605.1 700.625 612.5 699.725 616.2 699.325 C 622.1 698.725 622.9 698.425 623.2 696.525 C 623.5 694.625 624.2 694.325 628.3 694.025 C 632.3 693.725 633.4 694.125 635 696.025 C 636.8 698.225 637 698.225 638.6 696.625 C 641.2 694.125 639 692.225 632.7 691.425 C 626.4 690.625 622.9 688.925 627.5 688.825 C 629.2 688.725 632.5 687.725 635 686.525 C 638.7 684.725 639.6 683.825 639.8 681.325 C 639.9 679.625 640.3 677.225 640.6 675.925 C 641.4 672.225 643 675.325 643 680.525 C 643 683.625 643.6 685.325 645.2 686.825 C 647.1 688.625 647.3 689.225 646.2 690.925 C 644.7 693.325 646 696.425 649.1 697.325 C 652.9 698.525 653.2 696.925 652.1 679.725 C 651.5 670.725 650.6 655.925 650 646.825 C 649.5 637.725 648.7 628.225 648.4 625.725 C 647.9 621.325 647.8 621.225 644.9 621.625 C 642.4 622.025 593.4 616.625 586.3 615.225 C 583.4 614.625 583.4 612.525 586.2 609.925 C 589.4 606.825 594.5 606.225 597.6 608.425 C 599.1 609.525 600.8 610.625 601.4 611.025 C 602 611.325 610 612.125 619.1 612.625 C 633.8 613.425 636.4 613.825 641.5 616.225 C 644.6 617.625 647.5 618.825 647.7 618.825 C 648.9 618.825 646.6 608.025 644.9 605.625 C 642.6 602.325 642.6 602.125 644.4 600.225 C 645.6 599.125 645.8 596.925 645.3 590.025 C 644.5 578.625 643.9 577.225 638.5 574.725 C 636 573.525 633.7 572.225 633.5 571.725 C 633.2 571.325 632.3 571.125 631.6 571.425 C 630.9 571.725 627.3 571.225 623.6 570.425 C 613.2 568.025 614 567.125 614 581.525 C 614 588.625 613.6 595.025 613.1 595.825 C 612.3 597.025 610.9 597.025 602.8 595.925 C 597.7 595.225 593.4 594.525 593.2 594.325 C 593 594.125 593.4 591.425 594.1 588.225 C 594.9 584.325 595 579.325 594.6 573.625 C 593.6 562.725 592.4 561.325 583.7 561.325 L 577.5 561.325 L 577 572.325 C 576.2 589.025 576 588.425 584.1 592.025 C 592.7 595.825 593.4 598.225 585.8 597.425 C 582.9 597.125 572.6 596.425 563 595.825 C 533.7 594.125 531.1 593.825 529.3 592.025 C 527.8 590.525 524 590.325 497.1 590.025 C 467 589.725 457.5 588.725 472.6 587.525 C 476.8 587.125 480.9 586.325 481.6 585.725 C 483.7 584.025 483.6 557.525 481.5 555.825 C 479.4 554.025 453 555.425 453 557.325 C 453 558.025 453.7 558.825 454.5 559.225 C 455.7 559.625 456 562.225 456 573.725 C 456 589.325 455.4 590.825 449.7 590.825 L 446.5 590.825 L 446.5 574.125 L 446.5 557.325 L 442 557.025 C 435.4 556.525 427.2 557.725 425.5 559.425 C 424.3 560.625 424 563.725 424 573.825 C 424 589.325 423.5 590.425 414.5 591.825 C 405.6 593.325 398.5 593.125 397 591.325 C 396.2 590.325 395.7 585.325 395.6 576.125 L 395.5 562.325 L 392.5 562.425 C 390.9 562.525 387 562.925 383.9 563.325 L 378.2 564.025 L 377 560.425 C 376.4 558.425 375.3 556.825 374.7 556.825 C 372.3 556.825 367 560.825 367 562.725 C 367 565.025 363.3 569.825 361.4 569.825 C 360.6 569.825 360 570.225 360 570.825 C 360 571.325 360.5 571.825 361 571.825 C 363.5 571.825 361.7 576.425 357.8 580.125 C 355.5 582.325 354 584.325 354.6 584.525 C 357.1 585.325 359.3 587.625 358.6 588.625 C 357.7 590.125 353.8 587.625 351.5 584.125 C 350 581.925 350 580.925 350.9 577.725 C 351.5 575.625 353.2 573.025 354.6 571.925 C 356.2 570.625 356.7 569.725 355.9 569.225 C 354.1 568.125 355.5 560.025 358 556.525 C 360.4 553.325 361.3 546.825 359.4 546.125 C 358.9 545.925 354.2 550.325 349.1 555.925 L 339.7 566.125 L 340.4 572.925 C 340.7 576.625 340.6 580.825 340.1 582.125 C 338.9 585.325 333.9 587.425 331.1 585.825 C 328.4 584.425 328.4 582.825 331.2 579.825 C 333.2 577.625 333.3 577.525 331.5 578.225 C 330.4 578.625 328.3 579.225 326.8 579.525 L 324 580.125 L 324 571.125 C 324 562.725 323.8 561.825 321 558.025 C 317.7 553.525 316 552.725 316 555.725 C 316 556.825 315.6 558.025 315 558.325 C 314.5 558.625 314 560.325 314 562.025 C 314 563.725 313.3 566.025 312.4 566.925 C 311 568.525 310.9 569.425 311.9 573.225 C 313.3 579.125 313.3 579.825 311.5 579.825 C 309.2 579.825 307.1 574.125 308 570.725 C 308.6 568.825 308.4 567.625 307.6 566.825 C 306.8 566.225 306 561.825 305.6 555.625 L 304.9 545.325 L 307.6 543.125 C 311.4 540.125 310.4 539.525 305.6 541.925 C 302.7 543.325 301.3 543.525 300.3 542.725 C 299.3 541.825 298.4 542.325 296.2 544.525 C 294.7 546.225 292.3 547.925 291 548.325 C 286.3 549.725 285 551.725 285 557.325 C 285 560.625 284.5 563.025 283.6 563.725 C 280.7 566.125 280 561.525 279.9 539.625 C 279.9 527.925 279.5 517.525 279.2 516.625 C 278.5 515.025 278 515.125 273.5 518.125 C 268 521.725 267.9 521.925 265.6 536.725 C 264.6 542.925 264.5 546.925 265.1 548.525 C 265.6 549.825 266 554.525 266 558.925 C 266 565.225 265.6 567.425 264.1 569.625 C 262.9 571.225 262 574.325 261.8 577.325 C 261.6 581.925 261.8 582.425 264.3 583.625 C 267.5 585.225 267.8 588.025 265.3 593.325 C 263.2 597.625 259.7 597.925 259.2 593.825 C 259 592.425 258.4 590.925 257.9 590.325 C 257.4 589.825 257 588.425 257 587.225 C 257 585.825 256.2 584.725 255 584.325 C 252.8 583.625 252.4 581.825 254.1 580.125 C 255.4 578.825 251.8 572.825 246.6 567.925 C 242.1 563.625 241.6 560.925 242.8 547.825 C 243.4 542.025 243.6 537.125 243.4 536.925 C 242.2 535.625 240.2 539.725 239.8 544.425 C 239.3 550.625 236.7 554.525 235 551.825 C 234.5 551.025 234 548.625 234 546.525 C 234 543.925 233.6 542.825 232.5 542.825 C 230.1 542.825 229.2 546.725 229.9 553.325 C 230.5 558.825 230.7 559.325 233 559.325 C 235.8 559.325 240 564.725 240 568.425 C 240 571.325 238.6 571.425 232 568.825 C 229.2 567.725 226.5 566.825 226 566.825 C 224.5 566.825 224.8 573.825 226.5 579.625 C 227.9 584.325 228.3 584.825 230.4 584.225 C 232 583.825 232.9 584.225 233.3 585.225 C 234.3 587.725 233 589.825 230.6 589.825 C 229.4 589.825 227.9 590.725 227.2 591.825 C 225.3 594.825 224.3 594.325 221.5 588.925 L 219.1 584.025 L 213 584.525 C 208 585.025 206.6 584.825 204.9 583.225 C 201.6 580.225 200 576.325 199.9 570.625 C 199.8 567.725 199.5 566.425 199.3 567.825 C 198.6 572.225 196.8 575.825 195.3 575.825 C 193.3 575.825 192.7 573.225 193.9 569.725 C 194.8 567.025 194.7 566.325 193.2 565.225 C 189.9 562.725 188.3 563.625 186.4 568.925 C 184.2 574.925 182.8 576.425 181 574.325 C 180 573.125 180 570.225 180.9 560.125 C 181.6 553.025 182.5 541.225 183 533.825 C 184.3 514.825 185 512.925 193.4 504.025 C 197.3 499.925 203.2 494.225 206.5 491.525 C 209.8 488.825 216.1 483.325 220.5 479.325 C 224.9 475.425 233.2 467.925 239 462.725 C 244.8 457.625 252 451.025 255 448.225 C 258 445.425 271.8 433.125 285.5 420.825 C 312.9 396.525 323 387.325 341.9 369.425 C 379.2 334.225 406.4 321.825 460 315.425 C 475.1 313.625 480 313.425 500 314.125 C 515.2 314.625 530.6 317.425 538.3 320.925 C 542.7 322.925 540.3 324.125 533 323.425 C 526.4 322.825 526.2 322.925 525.6 325.325 C 525 327.825 521.3 330.325 517.5 330.925 C 516.4 331.025 509.4 330.825 501.9 330.425 C 470.8 328.625 432.1 334.825 401.5 346.525 C 391.9 350.125 381.1 355.825 379.1 358.225 C 378.1 359.425 378.5 359.625 381.2 359.525 L 384.5 359.325 L 384.8 364.825 C 385.2 372.625 386.1 374.225 387.1 368.825 C 388.2 362.925 390.8 359.625 395.7 357.825 C 400.8 355.925 403 354.025 403 351.725 C 403 348.925 406.1 346.725 413.7 344.025 C 426.2 339.625 428 340.025 428 347.025 L 428 350.925 L 430.3 348.325 C 432.3 346.025 436.1 344.625 446 342.325 C 447.4 342.025 449.4 340.325 450.5 338.625 C 454.2 332.625 458 334.125 458.8 341.725 C 459 344.525 459.7 346.825 460.1 346.825 C 460.6 346.825 460.8 345.825 460.5 344.525 C 459.6 341.225 463.4 339.725 474.7 339.125 C 482.5 338.625 483.9 338.225 484.3 336.725 C 485.1 333.725 487.8 333.325 490.5 335.825 C 492.3 337.525 494.6 338.125 502.2 338.825 C 507.3 339.325 512.5 340.025 513.6 340.325 C 515.3 340.825 515.9 340.425 516.4 338.525 C 517.3 334.625 519.5 334.625 524 338.325 C 528.4 342.025 528.5 342.025 537.8 343.825 C 541.2 344.525 544.3 345.525 544.6 345.925 C 545.4 347.325 547 347.025 547 345.525 C 547 343.425 550.4 340.825 553.1 340.825 C 554.5 340.825 558.4 341.725 561.8 342.925 C 567.8 344.925 569.4 346.325 574.3 353.325 C 575.4 354.725 577.7 356.725 579.6 357.525 C 583.5 359.425 584 361.425 580.8 362.425 C 578.8 363.025 578.9 363.225 582 364.225 C 584.9 365.125 585.7 366.125 586.9 369.825 C 588.1 373.525 588.5 373.925 589.1 372.325 C 589.5 371.225 590.2 367.725 590.5 364.525 C 591.2 357.925 592.3 357.125 597.3 358.725 C 601.8 360.225 604.7 363.425 607 369.425 C 608.8 374.225 608.9 374.325 613.2 374.325 C 617.5 374.325 617.5 374.325 618.7 378.825 C 619.3 381.325 619.9 384.725 619.9 386.525 C 620 391.025 621.6 391.425 623 387.325 C 624.6 382.325 627.1 382.825 630.3 388.625 C 631.7 391.225 634.1 394.425 635.5 395.825 C 639.3 399.325 640.7 402.425 641.5 409.125 C 642.5 416.825 644 416.325 644 408.325 C 644 403.225 644.4 401.425 645.9 399.925 C 647.8 398.025 647.6 397.825 629.2 382.125 C 618.9 373.325 608.7 364.925 606.5 363.325 C 597.9 356.925 596.5 353.425 602.9 354.025 C 606.4 354.325 606.7 354.125 605.9 352.625 C 603.7 348.625 610.4 351.425 621 359.025 C 634.5 368.625 669 400.825 669 403.725 C 669 404.325 668.4 404.825 667.6 404.825 C 666.9 404.825 665.6 405.825 664.8 407.025 C 663.4 409.025 663.3 409.125 660.7 407.325 C 657 404.925 656.5 405.825 659.1 410.325 C 661.2 413.825 661.2 414.125 659.6 415.325 C 658 416.525 658 416.825 659.6 420.925 C 662 427.225 663 427.825 663 423.025 C 663 419.625 663.3 418.825 664.8 418.825 C 665.8 418.825 667.6 419.825 668.8 421.125 C 671.5 424.025 671.9 432.625 669.4 436.325 C 667.9 438.525 667.9 438.825 669.3 438.825 C 670.2 438.825 671.1 438.425 671.4 437.925 C 671.7 437.425 672.9 430.625 674.1 422.725 C 676.6 405.625 677.4 403.225 681.1 401.225 C 684.6 399.425 684.8 397.525 681.6 395.025 C 680.2 394.025 667.1 381.425 652.3 367.125 C 637.6 352.825 622.7 338.625 619.4 335.625 C 607.1 324.825 570.5 308.425 544 301.925 C 521 296.325 489.5 294.525 465.5 297.425 Z M 377.8 567.025 C 378.5 567.725 379 569.625 379 571.325 C 379 574.825 380.6 576.925 382.7 576.125 C 384.6 575.425 388.3 579.525 387.6 581.425 C 387.2 582.625 386.2 582.825 384 582.325 L 381 581.625 L 381 587.625 C 381 595.525 379.6 596.725 370.3 597.125 C 365.6 597.225 362.8 596.925 361.7 595.925 C 360.2 594.725 360.3 594.125 363 588.925 C 366.4 582.525 366.7 579.325 364.3 575.925 C 362.8 573.625 362.8 573.425 364.5 572.225 C 365.5 571.425 367.1 570.825 368 570.825 C 368.9 570.825 370.7 569.725 372 568.325 C 374.6 565.525 376 565.225 377.8 567.025 Z M 169.5 599.825 C 169.8 600.325 171.4 600.825 173 600.825 C 177.9 600.825 177.5 604.025 172.5 605.025 C 170.8 605.325 170.5 606.125 170.5 609.925 C 170.5 612.425 169.9 615.225 169.2 616.125 C 167.6 618.025 168.6 624.425 170.6 625.225 C 172.4 625.925 172.4 628.425 170.6 629.125 C 168.4 630.025 162 626.625 162 624.725 C 162 623.725 161.6 622.625 161 622.325 C 159.1 621.125 160 617.125 162.5 615.425 C 164.7 614.025 165 613.025 165 608.225 C 165 601.025 167.4 596.425 169.5 599.825 Z M 490.8 600.725 C 491.7 601.225 492 603.325 491.8 607.425 L 491.5 613.325 L 485 613.325 L 478.5 613.325 L 478.3 607.625 C 478.1 602.325 478.2 601.925 480.8 600.925 C 484.2 599.725 489.1 599.625 490.8 600.725 Z M 551.5 600.825 C 554.3 601.225 559.2 602.225 562.6 603.025 C 567.5 604.125 569.2 604.225 571.6 603.125 C 575.5 601.525 581.5 601.525 582.9 603.125 C 584.2 604.825 582.2 615.025 579.2 621.925 C 577.8 625.125 577.2 628.825 577.1 634.925 C 576.9 646.825 575.6 648.425 566.4 648.025 C 553.8 647.525 552.2 645.825 553.5 634.325 C 554.4 625.925 556.1 623.925 565.1 620.825 C 572.6 618.225 574.4 616.625 571.3 615.325 C 570.3 614.825 559.6 614.225 547.5 613.925 L 525.5 613.325 L 525.3 607.825 C 525.3 604.825 525.7 601.725 526.2 601.025 C 527.4 599.625 543.5 599.425 551.5 600.825 Z M 466.4 601.725 C 468.6 602.625 468.8 603.225 468.7 607.925 C 468.5 612.425 468.1 613.225 466.1 614.025 C 463.9 614.825 456.3 614.425 455.3 613.425 C 455 613.225 454.7 610.525 454.6 607.425 C 454.4 603.125 454.7 601.825 455.9 601.525 C 458.9 600.725 463.9 600.825 466.4 601.725 Z M 516.1 602.825 C 514.3 609.625 515.1 611.525 518.3 607.825 C 519.7 606.125 520.4 606.025 522 606.825 C 523.1 607.425 524 608.525 524 609.225 C 524 611.125 521.5 613.025 519.3 612.725 C 518.3 612.625 516.8 612.825 515.9 613.225 C 515 613.625 511.9 613.825 509 613.625 C 504.1 613.325 503.6 613.125 502.7 610.325 C 502.1 608.625 501 606.925 500.2 606.425 C 499 605.725 499.3 605.125 501.6 603.225 C 504 601.225 505.4 600.925 510.5 601.125 C 515.3 601.325 516.4 601.625 516.1 602.825 Z M 444.8 607.925 C 445.2 614.925 446.1 614.625 424 614.825 C 403.3 615.125 404.8 615.325 405.2 612.125 C 405.6 608.525 409.9 605.625 416.2 604.625 C 426 603.025 435.5 602.025 440 602.225 L 444.5 602.325 Z M 144.8 611.625 C 145.4 612.525 146 613.725 146 614.425 C 146 615.025 146.9 615.825 148 616.125 C 149.6 616.525 149.8 617.225 149.4 620.025 C 148.8 623.525 150 625.625 153.8 627.725 C 155.2 628.525 155.3 628.925 154 631.225 C 152.6 634.025 149 634.825 149 632.325 C 149 631.625 149.8 630.425 150.8 629.925 C 152.3 629.025 152.1 628.525 148.8 625.425 C 146.7 623.525 145 621.425 145 620.925 C 145 620.325 144.3 620.125 143.4 620.525 C 142.6 620.825 140.5 620.425 138.7 619.525 C 136.9 618.625 134.7 617.725 133.8 617.425 C 131.1 616.625 131.7 615.025 134.8 614.625 C 137.1 614.325 137.5 613.925 137.2 611.525 C 136.9 608.725 137 608.625 140.2 609.325 C 142 609.725 144.1 610.725 144.8 611.625 Z M 321.3 620.725 C 326.2 621.925 326.8 622.525 324.6 624.125 C 323 625.325 323 625.525 324.4 626.725 C 325.4 627.525 326 629.625 326 631.925 C 326 635.125 325.6 636.025 323.6 636.825 C 322.3 637.325 320.9 638.225 320.5 638.725 C 320.2 639.325 318.8 639.825 317.4 639.825 C 315.1 639.825 315 640.125 315 646.125 C 315 649.625 315.3 652.725 315.6 653.125 C 315.9 653.425 317 652.825 318 651.825 C 320.4 649.425 323.1 650.225 325.2 653.925 C 326.3 655.825 327.7 656.825 329.3 656.825 C 332.2 656.825 334.9 659.525 335.2 662.925 C 335.5 664.925 335.1 665.325 332.8 665.325 C 331.3 665.425 329.3 666.125 328.3 667.025 C 327.3 667.925 324.9 668.925 323 669.325 L 319.5 669.925 L 319.3 687.525 C 319.2 701.525 318.8 705.425 317.7 706.625 C 314.7 709.525 313.8 704.825 314.2 688.025 C 314.4 679.425 314.8 671.725 315 670.925 C 315.4 669.825 314.4 669.225 311.8 668.825 C 307.7 668.125 305 666.325 305 664.225 C 305 663.425 304.4 662.825 303.6 662.825 C 302.5 662.825 302.3 663.725 302.7 666.325 L 303.3 669.825 L 295.1 669.825 C 288.6 669.825 287 669.525 287 668.325 C 287 666.925 287.6 666.725 295.7 666.325 C 298.5 666.225 299.4 665.325 299.5 662.525 C 299.5 661.025 300.2 660.225 301.6 660.025 C 303.5 659.725 303.8 658.825 304.4 652.225 C 305 643.925 306.4 640.025 307.3 643.425 C 307.6 644.425 308.1 649.225 308.5 654.125 C 309.3 664.125 309.4 664.225 319.1 663.625 C 323.1 663.425 324.5 662.925 324.5 661.825 C 324.5 660.725 323.3 660.325 319.5 660.325 C 316.8 660.325 313.9 659.925 313.3 659.525 C 312.5 659.025 312 656.225 312 652.025 C 311.9 647.725 311.4 644.625 310.5 643.425 C 309.2 641.725 309.2 641.225 310.7 639.625 C 312.1 638.025 312.2 637.325 311 633.725 C 310.2 631.425 309.4 630.225 309.2 630.925 C 308.1 635.025 308 635.125 306.5 633.825 C 304.8 632.425 304.5 626.625 306.1 623.725 C 308 620.125 313.7 619.025 321.3 620.725 Z M 417.4 629.325 C 418.3 630.625 419 632.425 419 633.325 C 419 634.225 419.9 634.825 421.5 634.825 C 425 634.825 427.7 638.325 428.4 643.625 C 429.3 650.725 428.9 678.125 427.9 680.025 C 426.5 682.725 424.1 682.225 423.5 679.025 C 423.2 677.525 422.5 674.925 421.9 673.325 C 419.7 667.125 419 663.125 419 655.525 C 419 651.325 418.6 647.825 418.2 647.825 C 417.7 647.825 415.5 649.425 413.2 651.425 C 410.9 653.325 408.6 654.725 408 654.325 C 407.5 654.025 407 649.725 407 644.725 C 407 636.425 407.2 635.525 409.5 633.225 C 410.9 631.825 412 630.125 412 629.425 C 412 626.025 415.2 626.025 417.4 629.325 Z M 537.3 635.925 C 538.7 636.725 539.8 639.825 538.6 639.825 C 538.5 639.825 535.2 640.925 531.4 642.325 C 527.6 643.725 523.9 644.825 523.2 644.825 C 522.4 644.825 520.5 643.425 518.8 641.725 C 516 638.925 515.8 638.525 517.3 637.125 C 520.3 634.025 532.4 633.325 537.3 635.925 Z M 64.9 639.425 C 66.6 640.625 67 641.625 66.6 643.525 C 66 645.525 66.4 646.125 69 646.925 C 72.6 648.225 73.1 650.325 69.5 649.425 C 65.9 648.525 64.6 651.625 65.5 659.225 C 66 664.425 65.8 665.725 64.2 667.625 C 63.1 668.825 61.9 672.225 61.5 675.125 L 60.7 680.325 L 59.8 676.825 C 59.3 674.925 58.6 671.925 58.3 670.325 C 58 668.625 57.3 667.025 56.7 666.625 C 54.3 665.125 53.3 648.625 55.5 646.425 C 56.3 645.625 57 643.825 57 642.425 C 57 640.125 59.1 637.925 61.5 637.825 C 62.1 637.825 63.6 638.525 64.9 639.425 Z M 370.8 647.125 C 371.7 647.825 371.9 649.525 371.5 652.725 C 370.5 659.725 370 660.825 367.9 660.825 C 366.3 660.825 366 661.525 366 665.325 C 366 668.625 365.5 670.025 364.4 670.525 C 362.2 671.325 360.9 669.025 361.3 665.325 C 361.6 663.225 361 661.525 359.4 659.525 C 356.5 656.125 357.1 651.625 360.9 647.525 C 363 645.325 364.1 644.925 366.5 645.425 C 368.2 645.725 370.1 646.525 370.8 647.125 Z M 439.1 657.025 C 439.9 658.525 440.4 664.525 440.4 674.325 C 440.5 687.425 440.3 689.325 438.9 689.625 C 437.7 689.825 436.4 688.225 434.4 684.325 C 431.9 679.225 431.7 677.625 431.8 668.625 C 431.9 663.225 432.2 657.825 432.5 656.725 C 433.4 654.025 437.6 654.225 439.1 657.025 Z M 161.3 666.525 C 163 668.825 164 671.425 164 673.525 C 164 675.425 164.5 677.925 165.1 679.025 C 167.3 683.225 162.9 691.725 160.5 687.825 C 160.1 687.225 159.4 687.025 158.9 687.325 C 157.6 688.225 157.8 696.225 159.1 697.525 C 162.1 700.525 156.3 701.325 146.2 699.225 C 143.1 698.625 144.4 696.825 148.1 696.825 C 150.5 696.825 151 696.425 151 694.325 C 151 692.925 151.5 691.025 152.1 690.025 C 152.9 688.725 153 687.325 152.3 685.225 C 151.2 682.225 151.2 682.225 149.4 687.525 C 148.9 689.125 148.6 689.125 146.9 686.925 C 145.9 685.625 145 683.925 145 683.025 C 145 681.725 144.7 681.825 143.5 683.425 C 142.1 685.225 141.9 685.225 140.6 683.525 C 138.8 681.225 137.4 681.325 136.7 683.825 C 136 686.625 133.2 686.325 132.4 683.325 C 130.7 676.625 134.5 670.325 142.9 666.025 C 146.8 663.925 146.9 663.925 149 665.825 C 151.2 667.725 151.3 667.725 154.2 665.325 C 155.8 663.925 157.5 662.825 157.8 662.825 C 158.2 662.925 159.7 664.525 161.3 666.525 Z" fill="#ee1820"/>
        </g>
        <g id="Graphic_116">
          <path d="M 302.5 324.025 C 299.9 325.525 299 326.825 299 329.525 C 299 331.125 299.7 331.725 301.8 332.025 C 304.1 332.225 304.7 333.125 306 337.025 C 306.8 339.725 307.9 341.825 308.4 341.825 C 310.4 341.825 316.2 337.425 317.6 334.725 C 318.9 332.125 318.9 331.725 317.5 331.225 C 316.6 330.825 315.3 329.325 314.5 327.825 C 313.4 325.625 312.5 325.125 310.9 325.525 C 309.5 325.925 308.4 325.525 307.8 324.425 C 306.8 322.525 305.3 322.425 302.5 324.025 Z" fill="#ee1820"/>
        </g>
        <g id="Graphic_115">
          <path d="M 348.1 382.425 C 328.1 399.025 327 400.125 328.9 401.425 C 330.1 402.325 331.1 404.525 331.6 407.325 C 332.3 412.625 334 414.325 334 409.825 C 334 405.325 336.5 401.125 341 398.325 C 344.7 396.025 345.4 394.725 346.2 389.325 C 346.4 388.225 347.3 387.225 348.3 387.025 C 349.8 386.725 350 387.625 350 395.025 C 350.1 402.525 350.2 403.125 351.5 401.425 C 352.3 400.325 353 397.825 353 395.925 C 353.1 390.625 356 385.425 361 381.625 C 364.6 378.925 365.9 377.025 367.8 371.925 C 369 368.425 369.9 365.325 369.6 365.125 C 369.4 364.925 359.7 372.725 348.1 382.425 Z" fill="#ee1820"/>
        </g>
        <g id="Graphic_114">
          <path d="M 265.3 368.825 C 263.5 369.825 261.4 372.125 260.5 373.725 L 259 376.825 L 261.9 376.225 C 264.4 375.725 265.1 376.025 266.4 378.625 C 267.3 380.325 268 382.725 268 384.025 C 268.1 386.225 268.2 386.225 270.5 383.325 C 271.8 381.725 273 379.525 273.2 378.325 C 273.4 377.025 274.5 376.125 276.5 375.825 C 279.5 375.225 279.5 375.225 277.3 374.025 C 276 373.325 275 372.125 275 371.325 C 275 370.425 274 369.825 272.5 369.825 C 271.2 369.825 269.7 369.125 269.3 368.325 C 268.6 367.125 268 367.125 265.3 368.825 Z" fill="#ee1820"/>
        </g>
        <g id="Graphic_113">
          <path d="M 474.3004 398.44564 C 472.9004 399.14564 472.6004 400.84564 472.6004 407.64564 C 472.6004 415.34564 472.8004 415.94564 475.0004 417.04564 C 476.6004 417.74564 478.7004 417.74564 481.7004 417.04564 C 484.1004 416.54564 488.3004 416.24564 490.9004 416.54564 C 494.0004 416.84564 496.2004 416.54564 497.0004 415.64564 C 498.4004 414.24564 501.1004 399.84564 500.2004 398.34564 C 499.6004 397.34564 492.5004 398.04564 488.7004 399.44564 C 486.8004 400.14564 486.6004 400.54564 487.6004 401.74564 C 489.8004 404.44564 486.2004 407.24564 480.7004 407.24564 C 472.9004 407.24564 471.5004 404.44564 477.8004 401.84564 L 480.7004 400.54564 L 478.4004 399.04564 C 476.7004 397.94564 475.5004 397.74564 474.3004 398.44564 Z" fill="#ee1820"/>
        </g>
        <g id="Graphic_112">
          <path d="M 574 397.125 C 574 397.925 574.7 399.125 575.5 399.825 C 576.3 400.525 577 401.725 577 402.525 C 577 403.625 577.7 403.825 579.4 403.425 C 583.9 402.325 589 408.425 586 411.425 C 585.2 412.225 585.4 412.925 586.5 413.825 C 588.3 415.325 588.5 420.425 586.7 421.125 C 586 421.425 583.2 420.625 580.4 419.325 C 574.7 416.625 572.7 417.425 575 421.525 C 576.1 423.425 578.4 424.825 583.3 426.425 L 590.1 428.725 L 591 426.025 C 592.6 421.525 593.7 420.325 595.9 420.425 C 598.6 420.525 598.6 420.525 595.1 417.025 C 593.3 415.325 591.9 412.625 591.5 410.225 C 590.2 402.525 589.5 401.425 584.9 399.225 C 578.6 396.125 574 395.225 574 397.125 Z" fill="#ee1820"/>
        </g>
        <g id="Graphic_111">
          <path d="M 420.5 399.825 C 419.1 404.125 419.6 412.325 421.5 416.125 C 423.2 419.825 423.2 420.125 421.5 425.625 C 420.5 428.725 419.5 434.525 419.3 438.525 L 418.8 445.725 L 422.2 447.125 C 425.1 448.325 425.7 448.325 427.2 447.125 C 428.1 446.325 432.5 445.125 436.9 444.625 C 441.4 444.025 445 443.125 445 442.725 C 445 441.625 443.5 441.625 433.1 442.825 C 428.4 443.325 424.5 443.625 424.2 443.425 C 424 443.225 423.6 439.425 423.4 435.125 C 422.9 427.525 423 426.925 425.6 423.925 C 428.9 420.025 432.9 417.825 436.9 417.825 C 438.6 417.825 441.8 417.125 444.1 416.225 C 448.8 414.325 450.5 411.225 449 407.225 C 448.1 405.025 447.5 404.725 445.2 405.225 C 441.2 406.125 438 406.725 433.3 407.425 C 429.8 407.925 429 407.725 429 406.525 C 429 405.625 430 404.225 431.2 403.425 C 433 402.125 433.1 401.825 431.7 401.825 C 430.8 401.825 429.1 400.925 428 399.825 C 425.4 397.225 421.3 397.225 420.5 399.825 Z" fill="#ee1820"/>
        </g>
        <g id="Graphic_110">
          <path d="M 311.9 413.025 C 307.8 416.525 303.4 420.325 302 421.625 C 300.6 422.825 297.4 425.525 294.8 427.625 C 289.2 432.025 288.8 432.725 290.1 437.025 C 290.6 438.825 291 442.125 291 444.225 C 291 449.025 291.8 448.425 294 441.825 C 296 436.025 301.9 426.825 303.8 426.825 C 304.4 426.825 305.1 427.625 305.1 428.525 C 305.2 429.525 305.3 430.725 305.5 431.325 C 305.6 431.825 305.8 433.425 305.8 434.725 C 306.1 438.825 307.9 435.825 309.1 429.325 C 310 424.225 310.9 422.725 314.5 419.225 C 317.4 416.425 318.9 413.925 319.4 411.325 C 319.8 409.325 320 407.425 319.7 407.225 C 319.5 407.025 316 409.625 311.9 413.025 Z" fill="#ee1820"/>
        </g>
        <g id="Graphic_109">
          <path d="M 610 413.925 C 610 414.625 612.6 417.725 615.9 420.825 L 621.7 426.525 L 621.5 436.625 C 621.3 445.525 621.5 447.025 623.3 448.925 C 625.8 451.625 627.1 449.925 626.5 444.825 C 626.3 442.925 625.8 437.425 625.4 432.625 L 624.8 423.825 L 618.7 419.025 C 611 412.925 610 412.425 610 413.925 Z" fill="#ee1820"/>
        </g>
        <g id="Graphic_108">
          <path d="M 676 437.825 C 676 438.825 676.7 444.425 677.6 450.025 C 679.3 461.025 681 465.025 681 458.125 C 681 454.925 681.5 453.525 683.2 452.425 C 686.2 450.225 688 452.025 688 457.325 C 688 464.025 689.6 467.025 695.6 471.225 C 698.6 473.425 701.3 476.225 701.6 477.525 C 702.9 482.625 696 485.125 693.8 480.325 C 693.2 478.925 692 477.825 691.2 477.825 C 690 477.825 689.9 478.625 690.5 482.025 C 690.9 484.425 691.6 488.325 692 490.825 C 692.4 493.325 693.2 496.425 693.8 497.825 C 694.7 500.025 694.9 499.425 694.9 494.025 C 695 490.625 695.4 487.825 695.9 487.825 C 696.4 487.825 697.5 489.725 698.4 492.025 C 699.2 494.425 700.9 498.825 702 501.825 C 704.6 509.025 704.6 509.425 700.8 512.925 C 696.5 516.825 695.2 516.625 694.8 512.025 C 694.5 508.425 694.5 508.425 693.2 510.625 C 692.1 512.525 692.2 514.125 693.6 520.625 C 695.2 528.025 696.9 532.825 697 530.025 C 697 527.325 700.1 529.025 702.5 533.125 C 705.4 538.225 705.6 539.525 703.3 542.025 C 701.9 543.625 701.8 544.625 702.8 550.225 C 703.5 553.725 704 557.725 704 559.125 C 704 560.525 704.8 563.025 705.7 564.625 C 707.3 567.325 707.3 568.125 706.1 572.025 C 704.3 577.825 703.5 589.725 704.9 591.125 C 705.7 591.925 706.8 591.425 709 589.325 C 712.5 586.025 712.6 584.425 711 564.625 C 710.5 557.825 709.6 545.125 709 536.325 C 708.4 527.525 707.5 514.225 707 506.825 C 706.4 499.425 705.5 485.525 705 476.025 C 704.3 461.825 703.8 458.325 702.4 456.725 C 701.5 455.725 700.1 454.825 699.4 454.825 C 696.5 454.825 686.2 446.325 684.4 442.525 C 681.7 436.725 676 433.525 676 437.825 Z" fill="#ee1820"/>
        </g>
        <g id="Graphic_107">
          <path d="M 279.9 440.625 C 278 442.125 272 447.125 266.7 451.725 C 257.7 459.425 257 460.225 258.5 461.825 C 259.3 462.725 260 465.125 260 467.125 C 260 469.125 260.3 470.825 260.8 470.825 C 261.2 470.825 262.8 467.425 264.4 463.325 C 267.7 454.625 270 453.425 270 460.325 C 270 462.825 270.4 464.825 270.9 464.825 C 271.8 464.825 276 455.425 276 453.425 C 276 452.825 277.8 449.225 280 445.425 C 282.2 441.625 283.9 438.425 283.8 438.225 C 283.6 438.125 281.9 439.225 279.9 440.625 Z" fill="#ee1820"/>
        </g>
        <g id="Graphic_106">
          <path d="M 472.7996 447.2 C 473.0996 448.5 473.3996 451 473.3996 452.7 C 473.3996 455.9 473.4996 456 477.5996 456 C 480.4996 456 482.4996 456.7 484.0996 458.2 C 485.3996 459.4 486.3996 459.9 486.3996 459.3 C 486.3996 457.3 491.7996 455.8 494.7996 457 C 498.3996 458.3 498.3996 458.4 498.3996 455.6 C 498.3996 453.6 497.5996 452.9 493.3996 451.5 C 490.6996 450.6 488.0996 449.4 487.7996 448.8 C 486.6996 447.1 489.6996 445.9 493.6996 446.5 C 496.1996 446.9 497.2996 446.7 496.8996 446 C 496.4996 445.4 491.3996 445 484.1996 445 C 472.1996 445 472.1996 445 472.7996 447.2 Z" fill="#ee1820"/>
        </g>
        <g id="Graphic_105">
          <path d="M 574.5 448.825 C 574.2 449.225 574.3 450.325 574.6 451.225 C 574.9 452.125 575.3 458.225 575.4 464.825 C 575.4 472.025 575.9 477.125 576.6 477.825 C 578 479.225 588.8 482.125 589.9 481.425 C 590.4 481.125 591.1 476.125 591.5 470.325 C 592.3 457.725 591.5 454.925 586.2 452.325 C 580 449.425 575.1 447.925 574.5 448.825 Z" fill="#ee1820"/>
        </g>
        <g id="Graphic_104">
          <path d="M 395.5 451.225 C 383.6 453.625 382 456.025 382 471.225 C 382 481.525 382.9 484.325 385.3 481.925 C 385.9 481.325 387.7 480.825 389.2 480.825 C 391.6 480.825 392 480.425 392 477.925 C 392 475.325 391.7 474.925 389.3 475.125 C 386.9 475.325 386.4 474.925 386.2 472.625 C 386 471.125 386.3 469.025 386.9 468.025 C 387.6 466.725 387.6 465.825 386.9 465.125 C 386.3 464.525 386 462.825 386.2 461.225 C 386.4 458.825 387.4 457.825 391.5 455.925 C 394.3 454.625 398 453.525 399.8 453.525 C 402.3 453.625 403 453.225 403 451.725 C 403 450.725 402.7 449.825 402.3 449.925 C 401.8 450.025 398.8 450.525 395.5 451.225 Z" fill="#ee1820"/>
        </g>
        <g id="Graphic_103">
          <path d="M 708.4 465.525 C 710.5 477.625 711.1 479.625 713 480.125 C 714.1 480.425 715.5 481.825 716.2 483.325 C 717.2 485.525 717.1 486.525 715.6 489.225 C 714.1 492.025 714 493.325 715 499.425 C 716.6 509.725 716.9 510.825 718 510.825 C 718.6 510.825 719 503.525 719 491.525 C 719 470.825 719.1 471.325 713.1 464.525 C 709.5 460.525 707.6 460.925 708.4 465.525 Z" fill="#ee1820"/>
        </g>
        <g id="Graphic_102">
          <path d="M 610 465.825 C 610 467.125 611.5 468.525 614.7 470.125 C 621.4 473.425 623.3 477.225 623.6 487.125 C 623.8 494.825 625 498.325 626.5 495.825 C 627.5 494.125 628.4 477.625 627.6 474.525 C 627.2 472.725 624.9 470.825 619.9 467.925 C 612 463.325 610 462.925 610 465.825 Z" fill="#ee1820"/>
        </g>
        <g id="Graphic_101">
          <path d="M 242 473.125 C 233.6 480.425 233.5 480.525 233.7 484.825 C 234.1 492.225 234.9 492.825 237.6 487.525 C 238.9 484.925 240.4 482.825 240.8 482.825 C 241.2 482.825 242.1 483.825 242.9 485.025 C 244.2 487.125 244.4 486.925 247.1 479.825 C 249.9 472.725 251.7 465.825 250.8 465.825 C 250.6 465.825 246.6 469.125 242 473.125 Z" fill="#ee1820"/>
        </g>
        <g id="Graphic_100">
          <path d="M 355.5 468.725 C 353.3 469.725 350 472.225 348.3 474.125 C 346.1 476.625 343.7 478.125 340.9 478.725 C 336.1 479.825 332.6 482.125 329.6 486.225 C 328 488.325 327.4 490.825 327.1 496.925 C 326.8 505.625 327.6 509.925 329 506.325 C 329.4 505.225 330.1 501.425 330.5 497.825 C 331.4 489.925 333.1 486.325 337.1 483.925 C 341 481.525 343.7 482.225 345.6 486.025 C 347.2 489.125 347.2 497.525 345.6 501.125 C 345 502.425 345.1 502.725 346.3 502.225 C 349.4 501.125 351.2 493.925 350.5 486.125 C 349.6 476.125 351.4 473.025 360.3 469.825 C 363.3 468.725 364 466.825 361.3 466.925 C 360.3 466.925 357.7 467.725 355.5 468.725 Z" fill="#ee1820"/>
        </g>
        <g id="Graphic_99">
          <path d="M 727.3 491.025 C 729.9 500.625 730.4 505.425 729.1 506.225 C 727.3 507.425 727.8 515.525 730 519.025 C 732.5 523.225 732.5 524.825 729.9 529.725 C 728.1 533.325 728 534.225 729.1 537.525 C 729.7 539.625 730.9 542.225 731.5 543.325 C 734.8 548.525 733.6 602.925 730 615.025 C 728.4 620.625 730 623.125 734.6 622.225 C 736.8 621.825 738.6 622.025 739.5 622.825 C 741.7 624.625 742.5 623.325 741.2 620.325 C 738.5 614.525 740.6 606.725 744.3 608.125 C 746.6 609.025 748.3 600.925 747.5 592.325 C 746.8 585.125 746.9 584.625 748.6 585.025 C 750.4 585.325 752.1 588.825 754 596.325 C 754.8 599.325 754.8 599.325 754.9 595.525 C 755 592.725 755.4 591.825 756.8 591.825 C 758 591.825 759.1 593.825 760.9 599.325 C 762.3 603.425 763.7 606.825 764.1 606.825 C 764.5 606.825 765.1 605.725 765.4 604.325 C 766.2 601.225 767.6 601.125 770.2 604.025 L 772.1 606.325 L 771.7 601.825 C 771.4 599.325 770.5 591.925 769.6 585.325 C 768 573.425 767 560.825 764.9 526.325 C 764.2 516.425 763.4 507.925 762.9 507.425 C 762.5 506.925 757.4 507.325 750.9 508.325 L 739.7 510.125 L 737.8 507.825 C 736.8 506.625 736 504.325 736 502.625 C 736 498.225 739.5 495.325 747 493.925 C 755 492.325 757 491.325 757 488.725 C 757 485.825 754.9 485.525 747.1 487.325 C 739.3 489.225 734.5 488.825 730.7 485.825 C 725.8 482.025 725.1 483.025 727.3 491.025 Z" fill="#ee1820"/>
        </g>
        <g id="Graphic_98">
          <path d="M 434.5 499.025 C 424.1 500.825 419.8 502.425 422.8 503.525 C 425.3 504.425 423 513.825 419.3 518.025 C 417.3 520.325 418.3 528.725 420.7 530.525 C 422.8 532.125 426.1 532.125 429.4 530.725 C 432.4 529.325 431.9 527.825 428.5 527.825 C 427 527.825 425.6 526.925 424.9 525.725 C 423.3 522.625 424.4 516.025 427.1 513.225 C 428.3 511.925 428.8 510.825 428.2 510.825 C 427.5 510.825 427 509.725 427 508.325 C 427 506.525 428.1 505.125 430.9 503.225 C 434.5 500.825 435.4 500.725 441.3 501.325 C 447.2 501.925 447.9 501.825 448.9 500.025 C 450.9 496.325 450.1 496.225 434.5 499.025 Z" fill="#ee1820"/>
        </g>
        <g id="Graphic_97">
          <path d="M 576.7 504.425 C 575.3 505.925 577.6 507.825 582.5 509.325 C 586.1 510.325 588.1 511.525 588.5 512.825 C 589.4 515.825 588.3 516.825 583.9 516.825 C 579.5 516.825 579.6 516.825 581.1 520.125 C 582 522.025 581.8 523.325 580.1 526.625 C 578.1 530.425 578.1 530.725 579.8 532.825 C 581 534.325 582.8 534.925 585.9 535.125 C 590.3 535.325 590.4 535.225 591.1 531.825 C 591.5 529.925 592 523.625 592.2 517.925 L 592.5 507.425 L 588.5 506.325 C 582.5 504.525 577.4 503.725 576.7 504.425 Z" fill="#ee1820"/>
        </g>
        <g id="Graphic_96">
          <path d="M 392 505.725 C 390.1 506.125 387.2 507.125 385.5 507.925 C 382.2 509.525 382.4 508.125 382.8 528.425 L 383 538.025 L 386.6 537.325 C 388.6 537.025 391.3 536.325 392.6 535.825 L 395 534.825 L 393 532.825 C 390.4 530.225 391.2 528.825 395.5 528.825 C 397.4 528.825 399.1 528.525 399.3 528.025 C 399.6 527.625 400.1 523.025 400.5 517.725 C 401.1 509.525 401 507.925 399.5 506.525 C 397.7 504.725 397.4 504.725 392 505.725 Z" fill="#ee1820"/>
        </g>
        <g id="Graphic_95">
          <path d="M 358.3 517.425 C 351.7 520.625 346.5 523.825 345.9 525.025 C 345.1 526.425 345 529.825 345.4 534.725 C 346.2 545.025 348 546.425 348 536.725 C 348 527.525 349.9 524.025 356.5 520.925 C 364.2 517.325 364.5 517.625 364.5 530.325 C 364.5 540.725 365.9 547.825 368 547.825 C 368.8 547.825 373.9 532.325 374.7 527.225 C 375.5 522.525 374.3 517.725 371.7 514.625 L 369.5 511.925 Z" fill="#ee1820"/>
        </g>
        <g id="Graphic_94">
          <path d="M 768.6 516.525 C 769 519.125 769.9 522.625 770.6 524.325 C 771.9 527.225 771.9 527.225 772 524.825 C 772 523.425 772.5 521.625 773 520.825 C 774.7 518.225 775.7 521.225 776.4 531.125 C 776.7 536.225 777.5 545.525 778 551.825 C 778.5 558.125 779.7 572.125 780.5 582.825 C 781.4 593.525 782.5 605.025 783.1 608.325 C 783.7 611.625 784.4 618.025 784.7 622.525 C 785 627.125 785.5 630.825 785.9 630.825 C 786.2 630.825 787.7 629.625 789.3 628.325 L 792 625.925 L 790.6 613.625 C 789.8 606.825 788.4 592.725 787.5 582.325 C 786.6 571.825 785.5 559.225 785 554.125 C 783.7 542.425 783.7 529.125 784.9 528.325 C 786.4 527.425 787.2 529.625 787.8 536.425 C 788.5 545.625 790.3 545.925 789.8 536.825 C 789.5 530.825 789 529.225 787.2 527.825 C 786 526.825 785 525.525 785 525.025 C 785 524.525 782.9 522.625 780.2 520.925 C 777.6 519.325 774.1 516.525 772.5 514.825 C 770.9 513.225 769.2 511.825 768.8 511.825 C 768.3 511.825 768.2 513.925 768.6 516.525 Z" fill="#ee1820"/>
        </g>
        <g id="Graphic_93">
          <path d="M 615 516.425 C 615 516.725 616.4 518.125 618 519.525 C 620.3 521.425 621 522.825 621 525.525 C 621 527.525 621.9 530.125 623 531.525 C 624.4 533.325 625 535.625 625 539.425 C 625 544.025 626.2 546.925 627.5 545.625 C 627.8 545.425 628.2 540.325 628.6 534.225 C 629.2 524.325 629.1 523.225 627.4 521.725 C 625.3 520.025 615 515.625 615 516.425 Z" fill="#ee1820"/>
        </g>
        <g id="Graphic_92">
          <path d="M 847.5 533.925 C 848.5 537.125 851.6 542.225 853.6 543.925 C 856.2 546.025 858.7 552.025 859.5 557.825 C 859.9 560.825 861 565.525 861.9 568.325 C 864.5 576.425 863.1 578.825 858 574.825 C 856.6 573.725 855 572.825 854.5 572.825 C 853.2 572.825 849.9 588.225 849.6 595.325 C 849.5 598.025 848.8 601.325 848.2 602.525 C 846.3 605.925 846.6 606.425 853 610.325 C 857.7 613.225 859 614.525 859 616.425 C 859 618.025 858.2 619.225 856.6 619.925 C 854.5 620.925 854.3 621.425 855.1 624.725 C 855.6 626.725 856 630.225 856 632.425 C 856 635.325 856.5 636.825 857.6 637.225 C 859.5 637.925 874.5 638.025 875.2 637.325 C 875.5 637.025 874.9 632.825 873.9 628.025 C 872.9 623.225 871.6 612.525 870.9 604.325 C 870.3 595.325 868.7 584.125 866.9 576.125 C 865.3 568.925 864 561.025 864 558.625 C 864 556.325 863.1 552.525 862.1 550.325 C 859.8 545.425 846.4 530.325 847.5 533.925 Z" fill="#ee1820"/>
        </g>
        <g id="Graphic_91">
          <path d="M 491.3 555.525 C 490.3 555.825 490 559.825 490 570.325 C 490 589.125 489.6 588.725 505 586.825 C 515.6 585.425 516 584.825 516 569.225 C 516 558.025 515.8 556.825 514.1 555.825 C 512.1 554.825 493.6 554.525 491.3 555.525 Z" fill="#ee1820"/>
        </g>
        <g id="Graphic_90">
          <path d="M 526.6 557.425 C 526.3 558.325 526 565.025 526 572.425 C 526 588.325 525.4 587.725 539.6 587.525 C 548.2 587.325 548.5 587.225 548.8 584.825 C 549.1 582.825 549 582.625 547.7 583.725 C 545.8 585.225 543 583.725 540.6 579.725 C 538.6 576.325 538.6 573.425 540.6 570.325 C 541.7 568.625 541.8 567.825 541.1 567.825 C 539.1 567.825 536.8 561.125 538 558.925 C 539.2 556.525 537.6 555.825 531.5 555.825 C 528.5 555.825 527 556.325 526.6 557.425 Z" fill="#ee1820"/>
        </g>
        <g id="Graphic_89">
          <path d="M 816.8 567.425 C 817.4 568.525 820.8 572.225 824.4 575.825 C 828 579.325 831 582.825 831 583.525 C 831 584.325 829.8 584.825 828 584.825 C 825.7 584.825 825 585.325 825 586.725 C 825 588.925 827.5 591.825 829.4 591.825 C 830.1 591.825 831.4 590.025 832.4 587.825 C 834.4 583.225 836.8 581.625 842.1 581.425 C 846.8 581.325 847 580.125 843.1 574.725 C 841.4 572.525 839.9 570.125 839.7 569.525 C 839.4 568.725 838.6 568.925 837.2 570.125 C 836.1 571.125 833.3 572.225 831 572.525 C 827.6 573.025 826.2 572.625 822.7 570.125 C 816.2 565.525 815.6 565.325 816.8 567.425 Z" fill="#ee1820"/>
        </g>
        <g id="Graphic_88">
          <path d="M 839 587.125 C 836.6 588.325 836 589.725 834.4 598.525 C 833.8 601.725 832.4 601.425 827.8 597.225 C 823.2 593.025 821.4 593.425 825.6 597.625 C 827.2 599.225 830.2 602.625 832.4 605.225 C 834.5 607.825 836.8 609.725 837.5 609.425 C 838.3 609.125 840.9 610.925 843.5 613.225 C 846.7 616.225 848.8 617.425 850.1 617.125 C 852.9 616.325 852.5 615.525 847.5 612.025 C 841.8 608.025 841.3 606.725 843.5 601.825 C 844.9 598.725 845.1 596.925 844.4 592.225 C 843.4 585.925 842.7 585.225 839 587.125 Z" fill="#ee1820"/>
        </g>
        <g id="Graphic_87">
          <path d="M 665 595.425 C 664.4 596.825 664.3 599.825 664.6 602.025 C 665.4 606.925 664.4 607.725 658.3 607.025 L 653.7 606.525 L 654.3 615.425 C 654.7 620.325 655.5 634.025 656.1 645.825 C 657.5 676.225 658.3 685.325 659.5 685.125 C 660.1 684.925 660.7 681.325 661 677.125 C 661.4 671.125 661.8 669.325 663 669.325 C 664.1 669.325 664.6 670.725 664.8 674.525 C 665 678.225 665.6 680.125 666.9 681.025 C 668.1 681.925 668.9 684.125 669.2 687.725 C 669.6 691.825 670.3 693.625 672 695.025 C 675.5 697.825 676.7 696.925 678.7 690.325 C 679.9 686.025 683.4 685.725 685.4 689.725 C 686.3 691.325 687 693.625 687 694.825 C 687 698.125 691.8 697.525 692.6 694.125 C 693.2 691.725 692.1 657.225 690.3 620.925 C 689.8 610.425 689.4 608.325 687.7 606.725 C 686.2 605.325 685.3 605.125 683.9 605.925 C 682.8 606.425 682 607.525 682 608.325 C 682 610.725 679 611.625 675.1 610.525 C 670.6 609.125 669.8 608.025 671.6 605.425 C 673.8 602.325 673.4 595.125 671.1 593.825 C 667.9 592.225 666 592.625 665 595.425 Z" fill="#ee1820"/>
        </g>
        <g id="Graphic_86">
          <path d="M 822.7 604.425 C 822.4 604.825 823.5 606.825 825.2 609.025 C 828.3 612.725 828.3 613.025 826.8 615.625 C 825.6 617.625 825.3 619.925 825.7 624.825 C 826.1 630.125 825.9 631.625 824.6 632.725 C 823.2 633.925 822.7 633.825 820.9 632.225 L 818.8 630.325 L 819.6 643.725 L 820.3 657.125 L 817.9 656.525 C 816.6 656.225 814.8 656.325 814 656.825 C 812.8 657.625 812.8 657.925 814.3 659.625 C 817.9 663.525 815.4 666.825 808.6 666.825 C 805.9 666.825 804.7 666.225 803 663.825 C 801.9 662.225 799.7 660.325 798.2 659.625 C 795.1 658.125 794.3 655.325 794.1 646.125 C 794.1 642.725 793.7 639.725 793.3 639.525 C 792.8 639.225 790.9 639.825 789 640.725 L 785.5 642.325 L 785.8 648.925 C 786.1 653.425 785.8 655.825 785 656.325 C 783.2 657.425 782 654.925 782 649.525 C 782 646.225 781.6 644.825 780.7 644.825 C 777.8 644.825 776 648.525 775.1 656.725 C 774.6 661.325 773.7 665.525 773.2 666.025 C 770.5 668.725 768 664.125 768 656.725 C 768 653.025 767 652.525 763.2 654.825 C 760.9 656.225 760 657.525 760 659.525 C 759.9 661.125 759.3 663.425 758.5 664.825 C 757.7 666.225 757.1 668.925 757 670.925 C 757 675.025 754.6 676.825 753.1 673.925 C 752.3 672.425 751.1 672.225 745.8 672.625 C 741.9 672.925 739.2 673.625 738.7 674.425 C 737.4 676.725 733.1 676.125 732 673.525 C 730.7 670.425 728 655.425 728 650.925 C 728 647.425 724.8 641.725 723.5 642.925 C 723.2 643.325 723.7 650.425 724.6 658.825 L 726.3 674.125 L 723.4 676.425 C 720.8 678.525 720.5 679.425 720.5 684.225 C 720.5 687.425 721.1 690.325 721.8 691.025 C 723.4 692.625 741.4 692.725 747.9 691.125 C 753.1 689.825 754.2 688.425 753.6 684.025 C 752.4 675.725 755.8 676.725 761.9 686.225 C 764.4 690.325 765.7 693.325 765.3 694.425 C 764.8 695.925 765.6 695.925 774.6 695.325 C 784.9 694.525 787 693.825 787 690.725 C 787 687.125 793.4 686.425 795.5 689.725 C 796.3 691.125 814 691.225 814 689.825 C 814 689.225 813.3 687.125 812.5 685.125 C 811.6 683.125 811.2 680.625 811.6 679.625 C 812.3 677.225 817.1 674.825 819.7 675.425 C 821.2 675.825 821.9 675.425 822.3 673.825 C 823.1 670.825 825.4 671.825 826 675.425 C 826.6 678.125 826.6 678.025 827.3 673.925 C 828 670.025 827.8 669.225 825.5 666.825 C 822.8 664.025 822.4 661.825 824.1 658.625 C 824.9 657.225 824.9 656.325 824.1 655.525 C 822.3 653.725 822.8 650.025 824.9 648.825 C 826 648.325 828.4 647.825 830.2 647.825 C 836.3 647.825 836.5 647.325 836.5 632.125 L 836.5 618.325 L 839.5 617.825 L 842.5 617.225 L 838 615.125 C 835.5 614.025 831.4 611.025 828.7 608.425 C 823.6 603.525 823.6 603.525 822.7 604.425 Z" fill="#ee1820"/>
        </g>
        <g id="Graphic_85">
          <path d="M 895.4 610.025 C 895.7 611.825 896.3 617.825 896.6 623.325 C 897.2 631.925 897 633.525 895.6 634.725 C 894.3 635.825 893.7 635.825 892.4 634.725 C 891 633.625 890.6 633.725 889.4 635.325 C 887.6 637.825 887.6 638.825 889.7 640.325 C 892.6 642.425 889.7 644.525 882.7 645.325 C 871.9 646.525 870.5 648.925 873 661.525 C 873.5 664.125 874.5 669.225 875.1 672.625 C 876.7 681.125 877.6 681.425 891.6 679.525 C 897.6 678.625 905.8 678.025 909.9 678.025 C 918.2 678.025 919.8 677.125 917.9 673.725 C 917.2 672.425 916.7 670.525 916.9 669.525 C 917.4 666.325 914.9 660.925 912 658.825 C 909.6 657.125 909.1 657.025 908.6 658.325 C 907.8 660.525 905 660.125 905 657.825 C 905 656.525 905.7 655.825 906.9 655.825 C 908.2 655.825 908.9 654.925 909.3 653.025 C 909.6 651.525 910.1 649.425 910.5 648.325 C 910.8 647.125 910.5 645.525 909.6 644.325 C 908 642.325 908 642.325 907.4 644.525 C 907.1 645.825 906.1 646.825 905.4 646.825 C 903.9 646.825 903.7 644.525 904 627.225 C 904.1 621.625 903.8 615.525 903.5 613.525 C 902.9 610.325 902.4 609.825 899.9 609.825 C 898 609.825 897 609.325 897 608.325 C 897 607.525 896.5 606.825 895.9 606.825 C 895.2 606.825 895 608.025 895.4 610.025 Z" fill="#ee1820"/>
        </g>
        <g id="Graphic_84">
          <path d="M 699 639.225 C 699 657.725 699.4 669.925 700 670.325 C 700.5 670.625 703.2 671.025 705.9 671.125 C 710.2 671.325 711.3 670.925 713.9 668.425 L 717 665.425 L 716.9 653.925 C 716.8 631.425 715.5 615.525 713.5 612.025 C 712.3 610.025 711.2 609.225 710.5 609.825 C 709.9 610.325 707.8 610.325 705.5 609.825 C 703.3 609.325 700.9 608.825 700.3 608.825 C 699.3 608.825 699 615.525 699 639.225 Z" fill="#ee1820"/>
        </g>
        <g id="Graphic_83">
          <path d="M 755 614.825 C 755 615.425 754.1 617.125 752.9 618.725 C 751.3 620.925 751 622.625 751.2 627.425 C 751.5 632.525 751.8 633.325 753.6 633.625 C 754.7 633.825 757.3 632.525 759.4 630.925 C 761.4 629.325 763.5 627.825 764 627.625 C 764.6 627.425 764.7 625.025 764.3 622.025 C 763.8 617.525 763.4 616.825 761.5 616.825 C 760.3 616.825 758.7 616.125 758 615.325 C 756.6 613.625 755 613.325 755 614.825 Z" fill="#ee1820"/>
        </g>
        <g id="Graphic_82">
          <path d="M 721 625.825 C 721 630.225 724.9 637.825 727.6 638.925 C 728.9 639.325 730 640.625 730 641.525 C 730 642.625 732.1 644.625 735.6 646.725 C 741.7 650.325 742.1 652.025 736.9 652.825 C 732.6 653.425 732 656.225 735 661.625 C 737.4 665.925 739.2 667.225 743.8 668.325 C 746.7 668.925 747.5 668.525 751 665.025 C 753.3 662.825 755 660.125 755 658.825 C 755 655.925 758.5 651.125 761.3 650.325 C 764.9 649.225 778.9 640.625 779.5 639.025 C 779.9 637.925 779.5 637.725 777.8 638.225 C 773 639.525 768 640.025 766.4 639.425 C 764.9 638.825 764.9 638.625 766.4 636.325 C 769.7 631.325 765.7 631.125 760.3 636.025 C 756.9 639.225 749.4 638.625 743.8 634.725 C 742.4 633.625 740.3 632.825 739.2 632.825 C 737.1 632.825 731.6 629.325 727.2 625.325 C 723.4 621.825 721 622.025 721 625.825 Z" fill="#ee1820"/>
        </g>
        <g id="Graphic_81">
          <path d="M 861.1 649.425 C 860.4 650.225 859.2 650.725 858.4 650.425 C 857.4 650.025 857 650.825 857 653.225 C 857 658.525 856.1 659.825 852.7 659.825 L 849.7 659.825 L 850.3 667.625 C 851 677.125 849.8 679.825 844.6 679.825 C 838.4 679.825 831.9 681.125 832.3 682.225 C 832.5 682.825 833.8 683.925 835.2 684.625 C 837.3 685.625 839.1 685.525 844.7 684.425 C 848.4 683.625 855.7 682.725 860.8 682.325 C 869.4 681.625 870 681.525 870 679.425 C 870 678.125 868.9 676.125 867.5 674.825 C 866.1 673.525 865 671.625 865 670.625 C 865 667.525 863.1 664.825 861 664.825 C 858.6 664.825 858.4 662.625 860.5 660.825 C 861.4 660.125 862.5 657.525 863.1 655.125 C 864 651.725 864.5 651.025 865.6 651.925 C 866.3 652.525 867.1 654.825 867.3 657.125 C 867.6 661.125 867.7 661.125 867.8 656.225 C 868 652.425 867.5 650.725 866.2 649.525 C 863.9 647.425 862.9 647.425 861.1 649.425 Z" fill="#ee1820"/>
        </g>
        <g id="Graphic_80">
          <path d="M 471.5 673.525 C 471 674.525 470.5 681.525 470.2 689.125 L 469.8 702.925 L 490.5 702.825 C 501.9 702.725 511.9 702.425 512.6 702.125 C 513.4 701.825 514 700.625 514 699.425 C 513.9 697.425 513.8 697.425 512.6 699.025 C 510.8 701.425 508.4 701.225 506.6 698.625 C 505.4 696.925 505 693.725 505 685.725 C 505 679.825 504.7 674.325 504.4 673.425 C 503.9 672.025 501.5 671.825 488 671.825 C 473.9 671.825 472.1 672.025 471.5 673.525 Z" fill="#ee1820"/>
        </g>
        <g id="Graphic_79">
          <path d="M 700.9 676.925 C 699.1 678.725 698.9 679.825 699.4 683.925 C 700.6 692.625 700.8 692.825 709.1 692.025 L 714.8 691.625 L 714.3 684.925 C 713.9 679.925 713.3 677.925 711.8 676.525 C 709 674.125 703.5 674.325 700.9 676.925 Z" fill="#ee1820"/>
        </g>
        <g id="Graphic_78">
          <path d="M 829.7 690.525 C 828.8 690.725 828.3 691.425 828.6 692.025 C 829.9 694.125 826.1 694.825 811.8 694.825 L 797 694.825 L 797 697.325 C 797 701.525 792.2 703.225 779.4 703.425 C 766.3 703.625 761.3 704.925 760.4 708.425 C 759 713.925 758.7 713.825 787.7 713.825 C 802.4 713.825 815.5 713.525 816.7 713.225 C 818.6 712.725 818.9 711.825 819.2 706.925 C 819.5 701.525 819.6 701.325 822.5 701.025 C 833.9 700.125 837 698.725 837 694.825 C 837 692.725 834.4 689.725 832.7 689.925 C 832 690.025 830.7 690.225 829.7 690.525 Z" fill="#ee1820"/>
        </g>
        <g id="Graphic_77">
          <path d="M 803.1 726.425 C 800.2 727.225 791.6 728.925 784.1 730.325 C 769.4 733.025 747.9 737.425 744.8 738.425 C 743.4 738.825 743.1 739.325 743.8 740.025 C 744.9 741.125 749.3 740.525 763.5 737.325 C 767.4 736.425 774.8 734.925 780 733.825 C 799.7 729.825 812.6 727.025 816 726.025 C 819.4 725.025 819.4 725.025 814 725.025 C 811 724.925 806.1 725.625 803.1 726.425 Z" fill="#ee1820"/>
        </g>
        <g id="Graphic_76">
          <path d="M 839.5 727.925 C 830.7 729.425 820.6 731.225 817.1 731.825 C 813.6 732.425 809.3 733.525 807.4 734.325 C 805.6 735.025 792.2 738.025 777.5 740.925 C 760.4 744.225 751.1 746.525 751.3 747.225 C 751.9 748.825 756.5 748.225 772 744.825 C 779.4 743.225 788 741.425 791 740.925 C 795.9 740.025 806.1 737.925 846.4 729.425 C 852.9 728.025 858.8 726.425 859.3 725.925 C 860.9 724.325 857.9 724.625 839.5 727.925 Z" fill="#ee1820"/>
        </g>
        <g id="Graphic_75">
          <path d="M 636.2324 700.8723 C 636.2324 701.5723 637.8324 704.9723 639.7324 708.6723 C 641.6324 712.2723 644.7324 718.6723 646.6324 722.7723 C 648.4324 726.8723 651.8324 732.3723 654.1324 734.9723 C 656.3324 737.4723 658.2324 740.0723 658.2324 740.6723 C 658.2324 741.3723 656.1324 741.7723 652.8324 741.7723 C 645.8324 741.7723 644.3324 743.3723 646.1324 748.5723 C 650.4324 760.6723 662.4324 765.9723 673.2324 760.4723 C 675.6324 759.2723 677.8324 757.7723 678.0324 757.0723 C 678.2324 756.3723 676.5324 753.9723 674.2324 751.5723 C 672.0324 749.2723 670.3324 746.6723 670.4324 745.9723 C 670.6324 745.0723 674.5324 743.5723 680.2324 742.0723 C 688.8324 739.8723 690.2324 739.1723 696.2324 733.9723 C 699.8324 730.7723 704.4324 726.9723 706.5324 725.4723 C 708.5324 723.9723 710.2324 721.9723 710.2324 721.1723 C 710.2324 718.9723 709.0324 719.4723 704.9324 723.6723 C 702.1324 726.5723 699.7324 727.9723 695.9324 728.8723 C 693.0324 729.5723 689.4324 730.6723 687.7324 731.3723 C 686.1324 731.9723 682.7324 732.8723 680.2324 733.2723 C 674.5324 734.0723 671.9324 731.8723 672.4324 726.6723 C 672.8324 722.0723 669.9324 721.4723 667.7324 725.6723 C 664.9324 731.2723 661.9324 730.0723 652.0324 719.5723 C 647.2324 714.4723 642.7324 708.8723 642.1324 707.2723 C 639.6324 700.5723 639.2324 699.7723 637.7324 699.7723 C 636.9324 699.7723 636.2324 700.2723 636.2324 700.8723 Z" fill="#ee1820"/>
        </g>
        <g id="Graphic_74">
          <path d="M 920.5 731.525 C 918.9 731.725 908.1 734.325 896.5 737.325 C 885 740.225 867.6 744.225 858 746.225 C 848.4 748.225 833.2 751.325 824.2 753.225 C 809.1 756.325 804 758.225 804 761.025 C 804 761.425 806.5 761.825 809.5 761.825 C 812.5 761.825 815 761.425 815 760.925 C 815 759.825 819.4 758.825 870 748.425 C 901.8 741.825 912.5 739.225 915.2 737.425 C 916.6 736.525 920 735.125 922.8 734.325 C 930.9 731.925 929.6 730.325 920.5 731.525 Z" fill="#ee1820"/>
        </g>
        <g id="Graphic_72">
          <path d="M 210.3 741.525 C 209 741.725 208 742.425 208 742.925 C 208 743.425 212.6 746.125 218.2 748.825 C 228.5 753.925 235.3 755.225 239 752.825 C 241.4 751.325 238.8 749.525 228.5 745.525 C 219.2 741.925 214.1 740.825 210.3 741.525 Z" fill="#ee1820"/>
        </g>
        <g id="Graphic_71">
          <path d="M 177.4 747.225 C 175.9 748.425 175.7 749.125 176.6 750.525 C 178.6 753.825 183.9 756.625 190.7 757.825 C 200 759.425 201 759.725 200.7 761.125 C 200.4 762.725 205.8 763.225 207.5 761.825 C 208.7 760.825 208.7 760.325 207.3 758.225 C 206.5 756.925 205.1 755.825 204.3 755.825 C 203.5 755.825 198.1 753.525 192.3 750.825 C 186.5 748.025 181.2 745.825 180.6 745.825 C 179.9 745.825 178.5 746.425 177.4 747.225 Z" fill="#ee1820"/>
        </g>
        <g id="Graphic_70">
          <path d="M 139.1 748.225 C 138.2 749.325 138.9 750.325 142.7 753.125 C 145.4 755.025 148.4 757.625 149.5 758.825 C 151.7 761.325 157.2 763.825 160.4 763.825 C 161.5 763.825 163.2 764.325 164 764.825 C 165.3 765.725 165.3 765.925 164 766.825 C 162.9 767.525 163.4 767.825 166.1 767.825 C 168.2 767.825 170.8 767.025 172.1 765.925 C 174.1 764.325 174.2 763.825 173.1 762.425 C 172.4 761.525 171.1 760.825 170.3 760.825 C 169.5 760.825 164 757.625 158.1 753.825 C 146.9 746.525 141.7 745.025 139.1 748.225 Z" fill="#ee1820"/>
        </g>
        <g id="Graphic_69">
          <path d="M 908.4 750.325 C 904.5 751.025 898 752.625 893.9 753.825 C 889.8 755.125 882.9 757.225 878.5 758.525 C 869.4 761.325 864.8 762.925 865.2 763.325 C 865.6 763.625 884.5 766.025 910.4 768.825 C 923.7 770.325 929.6 770.625 930.3 769.925 C 931.1 769.125 931 768.825 929.9 768.825 C 929.1 768.825 923 768.125 916.5 767.325 C 909.9 766.525 901.5 765.825 897.9 765.825 C 894 765.825 890.6 765.325 889.5 764.525 C 887.8 763.225 887.8 763.025 890.1 761.425 C 891.4 760.525 896.3 758.625 901 757.225 C 912.5 753.825 921.1 750.825 923 749.825 C 925.2 748.425 916.9 748.725 908.4 750.325 Z" fill="#ee1820"/>
        </g>
        <g id="Graphic_68">
          <path d="M 101.2 751.025 C 100.3 752.125 100.3 752.825 101.3 754.025 C 103.1 756.325 121.1 766.825 124.3 767.525 C 126.1 767.925 126.9 768.625 126.6 769.425 C 125.9 771.325 129.1 771.625 132.5 770.025 C 134.2 769.225 135.7 768.425 136 768.125 C 136.8 767.425 129.7 761.925 120.6 756.225 C 111 750.225 103.6 748.225 101.2 751.025 Z" fill="#ee1820"/>
        </g>
        <g id="Graphic_67">
          <path d="M 63.1 753.725 C 60.7 755.225 62.5 757.225 72.2 764.025 C 77.3 767.625 82.6 771.625 83.9 772.825 C 85.7 774.525 87 774.825 89.6 774.325 C 93.9 773.525 94.1 773.025 92.1 768.825 C 91 766.525 87.6 763.325 81.6 759.125 C 74.2 753.825 72.1 752.825 68.6 752.825 C 66.4 752.825 63.9 753.225 63.1 753.725 Z" fill="#ee1820"/>
        </g>
        <g id="Graphic_66">
          <path d="M 812.5054 167.6138 C 811.8054 168.7138 810.7054 169.6138 810.0054 169.6138 C 809.2054 169.6138 807.6054 170.7138 806.3054 172.1138 C 805.0054 173.5138 803.4054 174.6138 802.7054 174.6138 C 801.4054 174.6138 798.3054 183.2138 798.3054 186.6138 C 798.3054 190.0138 794.0054 201.2138 792.0054 202.9138 C 790.2054 204.5138 788.9054 204.7138 783.5054 204.1138 C 777.8054 203.5138 776.9054 203.6138 775.2054 205.5138 C 773.9054 206.9138 772.4054 207.4138 771.0054 207.1138 C 769.8054 206.8138 766.6054 206.1138 763.8054 205.6138 C 761.10535 205.0138 758.40535 204.1138 757.80535 203.7138 C 757.30535 203.2138 753.70535 201.7138 749.80535 200.3138 C 740.10535 196.9138 731.80535 192.9138 725.50535 188.9138 C 721.40535 186.3138 720.40535 186.0138 721.30535 187.5138 C 721.80535 188.6138 722.10535 190.1138 721.80535 190.8138 C 720.50535 194.1138 734.50535 207.8138 742.10535 210.7138 C 743.30535 211.2138 744.30535 212.0138 744.30535 212.5138 C 744.30535 214.2138 760.60535 221.5138 767.8054 223.1138 C 776.3054 225.0138 781.3054 227.2138 781.3054 229.1138 C 781.3054 231.4138 779.4054 231.8138 777.7054 229.8138 C 776.1054 227.9138 775.9054 228.0138 768.0054 232.5138 C 763.6054 235.1138 759.80535 237.7138 759.50535 238.4138 C 758.90535 240.3138 766.5054 246.6138 769.5054 246.6138 C 771.0054 246.6138 772.5054 247.1138 772.8054 247.6138 C 773.2054 248.2138 774.6054 248.6138 776.1054 248.6138 C 777.6054 248.6138 780.8054 248.9138 783.3054 249.2138 C 788.2054 249.7138 788.9054 249.7138 800.8054 249.6138 C 808.5054 249.4138 808.8054 249.3138 811.9054 246.0138 C 813.7054 244.1138 815.6054 242.6138 816.2054 242.6138 C 817.9054 242.6138 820.5054 236.7138 820.1054 233.8138 C 819.9054 231.6138 819.0054 230.9138 815.3054 229.8138 C 804.5054 226.5138 798.8054 224.0138 798.5054 222.2138 C 798.0054 219.7138 799.9054 218.6138 804.8054 218.6138 C 810.2054 218.5138 816.3054 215.8138 821.7054 211.4138 C 826.0054 207.8138 828.0054 203.2138 826.3054 201.1138 C 825.8054 200.5138 826.0054 199.4138 826.6054 198.5138 C 828.2054 196.4138 828.1054 183.0138 826.5054 181.4138 C 825.8054 180.7138 825.3054 179.4138 825.3054 178.4138 C 825.3054 177.4138 824.6054 176.6138 823.8054 176.6138 C 822.9054 176.6138 822.3054 175.6138 822.3054 174.0138 C 822.3054 171.9138 821.9054 171.6138 820.3054 172.1138 C 818.6054 172.6138 818.3054 172.3138 818.3054 169.6138 C 818.3054 167.3138 817.9054 166.5138 816.9054 166.9138 C 816.2054 167.2138 815.1054 167.0138 814.6054 166.5138 C 814.1054 166.0138 813.2054 166.5138 812.5054 167.6138 Z" fill="#ee1820"/>
        </g>
      </g>
      <g id="Graphic_128">
        <path d="M 544.5164 388.8038 C 542.3164 389.8038 539.0164 392.3038 537.3164 394.2038 C 535.1164 396.7038 532.7164 398.2038 529.9164 398.8038 C 525.1164 399.9038 521.6164 402.2038 518.6164 406.3038 C 517.0164 408.4038 516.4164 410.9038 516.1164 417.0038 C 515.8164 425.7038 516.6164 430.0038 518.0164 426.4038 C 518.4164 425.3038 519.1164 421.5038 519.5164 417.9038 C 520.4164 410.0038 522.1164 406.4038 526.1164 404.0038 C 530.0164 401.6038 532.7164 402.3038 534.6164 406.1038 C 536.2164 409.2038 536.2164 417.6038 534.6164 421.2038 C 534.0164 422.5038 534.1164 422.8038 535.3164 422.3038 C 538.4164 421.2038 540.2164 414.0038 539.5164 406.2038 C 538.6164 396.2038 540.4164 393.1038 549.3164 389.9038 C 552.3164 388.8038 553.0164 386.9038 550.3164 387.0038 C 549.3164 387.0038 546.7164 387.8038 544.5164 388.8038 Z" fill="#ee1820"/>
      </g>
      <g id="Graphic_129">
        <path d="M 316.4627 446.8038 C 314.2627 447.8038 310.9627 450.3038 309.2627 452.2038 C 307.0627 454.7038 304.6627 456.2038 301.8627 456.8038 C 297.0627 457.9038 293.5627 460.2038 290.5627 464.3038 C 288.9627 466.4038 288.3627 468.9038 288.0627 475.0038 C 287.7627 483.7038 288.5627 488.0038 289.9627 484.4038 C 290.3627 483.3038 291.0627 479.5038 291.4627 475.9038 C 292.3627 468.0038 294.0627 464.4038 298.0627 462.0038 C 301.9627 459.6038 304.6627 460.3038 306.5627 464.1038 C 308.1627 467.2038 308.1627 475.6038 306.5627 479.2038 C 305.9627 480.5038 306.0627 480.8038 307.2627 480.3038 C 310.3627 479.2038 312.1627 472.0038 311.4627 464.2038 C 310.5627 454.2038 312.3627 451.1038 321.2627 447.9038 C 324.2627 446.8038 324.9627 444.9038 322.2627 445.0038 C 321.2627 445.0038 318.6627 445.8038 316.4627 446.8038 Z" fill="#ee1820"/>
      </g>
      <g id="Graphic_130">
        <path d="M 317.4627 480.8038 C 315.2627 481.8038 311.9627 484.3038 310.2627 486.2038 C 308.0627 488.7038 305.6627 490.2038 302.8627 490.8038 C 298.0627 491.9038 294.5627 494.2038 291.5627 498.3038 C 289.9627 500.4038 289.3627 502.9038 289.0627 509.0038 C 288.7627 517.7038 289.5627 522.0038 290.9627 518.4038 C 291.3627 517.3038 292.0627 513.5038 292.4627 509.9038 C 293.3627 502.0038 295.0627 498.4038 299.0627 496.0038 C 302.9627 493.6038 305.6627 494.3038 307.5627 498.1038 C 309.1627 501.2038 309.1627 509.6038 307.5627 513.2038 C 306.9627 514.5038 307.0627 514.8038 308.2627 514.3038 C 311.3627 513.2038 313.1627 506.0038 312.4627 498.2038 C 311.5627 488.2038 313.3627 485.1038 322.2627 481.9038 C 325.2627 480.8038 325.9627 478.9038 323.2627 479.0038 C 322.2627 479.0038 319.6627 479.8038 317.4627 480.8038 Z" fill="#ee1820"/>
      </g>
      <g id="Graphic_132">
        <path d="M 268.4627 471.8038 C 266.2627 472.8038 262.9627 475.3038 261.2627 477.2038 C 259.0627 479.7038 256.6627 481.2038 253.8627 481.8038 C 249.0627 482.9038 245.5627 485.2038 242.5627 489.3038 C 240.9627 491.4038 240.3627 493.9038 240.0627 500.0038 C 239.7627 508.7038 240.5627 513.0038 241.9627 509.4038 C 242.3627 508.3038 243.0627 504.5038 243.4627 500.9038 C 244.3627 493.0038 246.0627 489.4038 250.0627 487.0038 C 253.9627 484.6038 256.6627 485.3038 258.5627 489.1038 C 260.1627 492.2038 260.1627 500.6038 258.5627 504.2038 C 257.9627 505.5038 258.0627 505.8038 259.2627 505.3038 C 262.3627 504.2038 264.1627 497.0038 263.4627 489.2038 C 262.5627 479.2038 264.3627 476.1038 273.2627 472.9038 C 276.2627 471.8038 276.9627 469.9038 274.2627 470.0038 C 273.2627 470.0038 270.6627 470.8038 268.4627 471.8038 Z" fill="#ee1820"/>
      </g>
      <g id="Graphic_131">
        <path d="M 269.4627 505.8038 C 267.2627 506.8038 263.9627 509.3038 262.2627 511.2038 C 260.0627 513.7038 257.6627 515.2038 254.8627 515.8038 C 250.0627 516.9038 246.5627 519.2038 243.5627 523.3038 C 241.9627 525.4038 241.3627 527.9038 241.0627 534.0038 C 240.7627 542.7038 241.5627 547.0038 242.9627 543.4038 C 243.3627 542.3038 244.0627 538.5038 244.4627 534.9038 C 245.3627 527.0038 247.0627 523.4038 251.0627 521.0038 C 254.9627 518.6038 257.6627 519.3038 259.5627 523.1038 C 261.1627 526.2038 261.1627 534.6038 259.5627 538.2038 C 258.9627 539.5038 259.0627 539.8038 260.2627 539.3038 C 263.3627 538.2038 265.1627 531.0038 264.4627 523.2038 C 263.5627 513.2038 265.3627 510.1038 274.2627 506.9038 C 277.2627 505.8038 277.9627 503.9038 275.2627 504.0038 C 274.2627 504.0038 271.6627 504.8038 269.4627 505.8038 Z" fill="#ee1820"/>
      </g>
      <g id="Graphic_134">
        <path d="M 225.4627 490.8038 C 223.2627 491.8038 219.9627 494.3038 218.2627 496.2038 C 216.0627 498.7038 213.6627 500.2038 210.8627 500.8038 C 206.0627 501.9038 202.5627 504.2038 199.5627 508.3038 C 197.9627 510.4038 197.3627 512.9038 197.0627 519.0038 C 196.7627 527.7038 197.5627 532.0038 198.9627 528.4038 C 199.3627 527.3038 200.0627 523.5038 200.4627 519.9038 C 201.3627 512.0038 203.0627 508.4038 207.0627 506.0038 C 210.9627 503.6038 213.6627 504.3038 215.5627 508.1038 C 217.1627 511.2038 217.1627 519.6038 215.5627 523.2038 C 214.9627 524.5038 215.0627 524.8038 216.2627 524.3038 C 219.3627 523.2038 221.1627 516.0038 220.4627 508.2038 C 219.5627 498.2038 221.3627 495.1038 230.2627 491.9038 C 233.2627 490.8038 233.9627 488.9038 231.2627 489.0038 C 230.2627 489.0038 227.6627 489.8038 225.4627 490.8038 Z" fill="#ee1820"/>
      </g>
      <g id="Graphic_133">
        <path d="M 226.4627 524.8038 C 224.2627 525.8038 220.9627 528.3038 219.2627 530.2038 C 217.0627 532.7038 214.6627 534.2038 211.8627 534.8038 C 207.0627 535.9038 203.5627 538.2038 200.5627 542.3038 C 198.9627 544.4038 198.3627 546.9038 198.0627 553.0038 C 197.7627 561.7038 198.5627 566.0038 199.9627 562.4038 C 200.3627 561.3038 201.0627 557.5038 201.4627 553.9038 C 202.3627 546.0038 204.0627 542.4038 208.0627 540.0038 C 211.9627 537.6038 214.6627 538.3038 216.5627 542.1038 C 218.1627 545.2038 218.1627 553.6038 216.5627 557.2038 C 215.9627 558.5038 216.0627 558.8038 217.2627 558.3038 C 220.3627 557.2038 222.1627 550.0038 221.4627 542.2038 C 220.5627 532.2038 222.3627 529.1038 231.2627 525.9038 C 234.2627 524.8038 234.9627 522.9038 232.2627 523.0038 C 231.2627 523.0038 228.6627 523.8038 226.4627 524.8038 Z" fill="#ee1820"/>
      </g>
      <g id="Graphic_141">
        <path d="M 648 428.80474 C 648 429.60474 648.7 430.80474 649.5 431.50474 C 650.3 432.20474 651 433.40474 651 434.20474 C 651 435.30474 651.7 435.50474 653.4 435.10474 C 657.9 434.00474 663 440.10474 660 443.10474 C 659.2 443.90474 659.4 444.60474 660.5 445.50474 C 662.3 447.00474 662.5 452.10474 660.7 452.80474 C 660 453.10474 657.2 452.30474 654.4 451.00474 C 648.7 448.30474 646.7 449.10474 649 453.20474 C 650.1 455.10474 652.4 456.50474 657.3 458.10474 L 664.1 460.40474 L 665 457.70474 C 666.6 453.20474 667.7 452.00474 669.9 452.10474 C 672.6 452.20474 672.6 452.20474 669.1 448.70474 C 667.3 447.00474 665.9 444.30474 665.5 441.90474 C 664.2 434.20474 663.5 433.10474 658.9 430.90474 C 652.6 427.80474 648 426.90474 648 428.80474 Z" fill="#ee1820"/>
      </g>
      <g id="Graphic_139">
        <path d="M 654.56924 474.11594 C 654.26924 474.51594 654.36924 475.61594 654.66924 476.51594 C 654.96924 477.41594 655.36924 483.51594 655.46924 490.11594 C 655.46924 497.31594 655.96924 502.41594 656.66924 503.11594 C 658.06924 504.51594 668.86924 507.41594 669.96924 506.71594 C 670.46924 506.41594 671.16924 501.41594 671.56924 495.61594 C 672.36924 483.01594 671.56924 480.21594 666.26924 477.61594 C 660.06924 474.71594 655.16924 473.21594 654.56924 474.11594 Z" fill="#ee1820"/>
      </g>
      <g id="Graphic_137">
        <path d="M 661.4051 523.25175 C 660.0051 524.75175 662.3051 526.65175 667.2051 528.15175 C 670.8051 529.15175 672.8051 530.35175 673.2051 531.65175 C 674.1051 534.65175 673.0051 535.65175 668.6051 535.65175 C 664.2051 535.65175 664.3051 535.65175 665.8051 538.95175 C 666.7051 540.85175 666.5051 542.15175 664.8051 545.45175 C 662.8051 549.25175 662.8051 549.55175 664.5051 551.65175 C 665.7051 553.15175 667.5051 553.75175 670.6051 553.95175 C 675.0051 554.15175 675.1051 554.05175 675.8051 550.65175 C 676.2051 548.75175 676.7051 542.45175 676.9051 536.75175 L 677.2051 526.25175 L 673.2051 525.15175 C 667.2051 523.35175 662.1051 522.55175 661.4051 523.25175 Z" fill="#ee1820"/>
      </g>
      <g id="Graphic_142">
        <path d="M 527.301 497.51164 C 526.301 497.81164 526.001 501.81164 526.001 512.31164 C 526.001 531.11164 525.601 530.71164 541.001 528.81164 C 551.601 527.41164 552.001 526.81164 552.001 511.21164 C 552.001 500.01164 551.801 498.81164 550.101 497.81164 C 548.101 496.81164 529.601 496.51164 527.301 497.51164 Z" fill="#ee1820"/>
      </g>
      <g id="Graphic_143">
        <path d="M 471.7 480.95 C 470.3 485.25 470.8 493.45 472.7 497.25 C 474.4 500.95 474.4 501.25 472.7 506.75 C 471.7 509.85 470.7 515.65 470.5 519.65 L 470 526.85 L 473.4 528.25 C 476.3 529.45 476.9 529.45 478.4 528.25 C 479.3 527.45 483.7 526.25 488.1 525.75 C 492.6 525.15 496.2 524.25 496.2 523.85 C 496.2 522.75 494.7 522.75 484.3 523.95 C 479.6 524.45 475.7 524.75 475.4 524.55 C 475.2 524.35 474.8 520.55 474.6 516.25 C 474.1 508.65 474.2 508.05 476.8 505.05 C 480.1 501.15 484.1 498.95 488.1 498.95 C 489.8 498.95 493 498.25 495.3 497.35 C 500 495.45 501.7 492.35 500.2 488.35 C 499.3 486.15 498.7 485.85 496.4 486.35 C 492.4 487.25 489.2 487.85 484.5 488.55 C 481 489.05 480.2 488.85 480.2 487.65 C 480.2 486.75 481.2 485.35 482.4 484.55 C 484.2 483.25 484.3 482.95 482.9 482.95 C 482 482.95 480.3 482.05 479.2 480.95 C 476.6 478.35 472.5 478.35 471.7 480.95 Z" fill="#ee1820"/>
      </g>
      <g id="Graphic_144">
        <path d="M 380.30098 408.61663 C 379.30098 408.91663 379.00098 412.91663 379.00098 423.41663 C 379.00098 442.21663 378.60098 441.81663 394.00098 439.91663 C 404.60098 438.51663 405.00098 437.91663 405.00098 422.31663 C 405.00098 411.11663 404.80098 409.91663 403.10098 408.91663 C 401.10098 407.91663 382.60098 407.61663 380.30098 408.61663 Z" fill="#ee1820"/>
      </g>
      <g id="Graphic_145">
        <path d="M 355.6927 434.0338 C 353.4927 435.0338 350.1927 437.5338 348.4927 439.4338 C 346.2927 441.9338 343.8927 443.4338 341.0927 444.0338 C 336.2927 445.1338 332.7927 447.4338 329.7927 451.5338 C 328.1927 453.6338 327.5927 456.1338 327.2927 462.2338 C 326.9927 470.9338 327.7927 475.2338 329.1927 471.6338 C 329.5927 470.5338 330.2927 466.7338 330.6927 463.1338 C 331.5927 455.2338 333.2927 451.6338 337.2927 449.2338 C 341.1927 446.8338 343.8927 447.5338 345.7927 451.3338 C 347.3927 454.4338 347.3927 462.8338 345.7927 466.4338 C 345.1927 467.7338 345.2927 468.0338 346.4927 467.5338 C 349.5927 466.4338 351.3927 459.2338 350.6927 451.4338 C 349.7927 441.4338 351.5927 438.3338 360.4927 435.1338 C 363.4927 434.0338 364.1927 432.1338 361.4927 432.2338 C 360.4927 432.2338 357.8927 433.0338 355.6927 434.0338 Z" fill="#ee1820"/>
      </g>
      <g id="Graphic_146">
        <path d="M 532.2691 450.5 C 525.6691 453.7 520.4691 456.9 519.8691 458.1 C 519.0691 459.5 518.9691 462.9 519.3691 467.8 C 520.1691 478.1 521.9691 479.5 521.9691 469.8 C 521.9691 460.6 523.8691 457.1 530.4691 454 C 538.1691 450.4 538.4691 450.7 538.4691 463.4 C 538.4691 473.8 539.8691 480.9 541.9691 480.9 C 542.7691 480.9 547.8691 465.4 548.6691 460.3 C 549.4691 455.6 548.2691 450.8 545.6691 447.7 L 543.4691 445 Z" fill="#ee1820"/>
      </g>
      <g id="Graphic_147">
        <path d="M 429.2488 455.5178 C 428.9488 456.4178 428.6488 463.1178 428.6488 470.5178 C 428.6488 486.4178 428.0488 485.8178 442.2488 485.6178 C 450.8488 485.4178 451.1488 485.3178 451.4488 482.9178 C 451.7488 480.9178 451.6488 480.7178 450.3488 481.8178 C 448.4488 483.3178 445.6488 481.8178 443.2488 477.8178 C 441.2488 474.4178 441.2488 471.5178 443.2488 468.4178 C 444.3488 466.7178 444.4488 465.9178 443.7488 465.9178 C 441.7488 465.9178 439.4488 459.2178 440.6488 457.0178 C 441.8488 454.6178 440.2488 453.9178 434.1488 453.9178 C 431.1488 453.9178 429.6488 454.4178 429.2488 455.5178 Z" fill="#ee1820"/>
      </g>
      <g id="Graphic_148">
        <path d="M 860.73 735.455 C 852.53 737.255 839.93 739.955 832.73 741.455 C 813.03 745.655 811.23 746.155 811.23 747.855 C 811.23 749.555 811.23 749.555 832.73 744.655 C 841.03 742.655 851.83 740.255 856.73 739.055 C 861.73 737.955 869.83 735.955 874.73 734.655 C 888.43 730.955 879.23 731.455 860.73 735.455 Z" fill="#ee1820"/>
      </g>
    </g>
  </g>
</svg>
